<svg xmlns="http://www.w3.org/2000/svg" xmlns:xlink="http://www.w3.org/1999/xlink" xmlns:lucid="lucid" width="1860" height="920"><g transform="translate(2080 400)" lucid:page-tab-id="0_0"><path d="M-1095.78 132.86c19.76 0 35.78 17.9 35.78 40s-16.02 40-35.78 40h-107.34c-19.76 0-35.78-17.9-35.78-40s16.02-40 35.78-40z" stroke="#e81313" stroke-width="3" fill="#fff3d9"/><use xlink:href="#a" transform="matrix(1,0,0,1,-1233.8969527374122,137.86455710189418) translate(7.9876543209876445 39.65277777777778)"/><use xlink:href="#b" transform="matrix(1,0,0,1,-1233.8969527374122,137.86455710189418) translate(116.56790123456791 39.65277777777778)"/><path d="M-1095.78-202c19.76 0 35.78 17.9 35.78 40s-16.02 40-35.78 40h-107.34c-19.76 0-35.78-17.9-35.78-40s16.02-40 35.78-40z" stroke="#e81313" stroke-width="3" fill="#fff3d9"/><use xlink:href="#c" transform="matrix(1,0,0,1,-1233.8969527374122,-197) translate(23.481481481481488 39.65277777777778)"/><use xlink:href="#b" transform="matrix(1,0,0,1,-1233.8969527374122,-197) translate(101.07407407407408 39.65277777777778)"/><path d="M-492 80c17.67 0 32 17.9 32 40s-14.33 40-32 40h-96c-17.67 0-32-17.9-32-40s14.33-40 32-40z" stroke="#e81313" stroke-width="3" fill="#fff3d9"/><use xlink:href="#d" transform="matrix(1,0,0,1,-615,85) translate(16.049382716049372 39.65277777777778)"/><use xlink:href="#e" transform="matrix(1,0,0,1,-615,85) translate(121.60493827160494 39.65277777777778)"/><path d="M-492-80c17.67 0 32 17.9 32 40s-14.33 40-32 40h-96c-17.67 0-32-17.9-32-40s14.33-40 32-40z" stroke="#e81313" stroke-width="3" fill="#fff3d9"/><use xlink:href="#d" transform="matrix(1,0,0,1,-615,-75) translate(16.049382716049372 39.65277777777778)"/><use xlink:href="#f" transform="matrix(1,0,0,1,-615,-75) translate(121.60493827160494 39.65277777777778)"/><path d="M-272 80c17.67 0 32 17.9 32 40s-14.33 40-32 40h-96c-17.67 0-32-17.9-32-40s14.33-40 32-40z" stroke="#e81313" stroke-width="3" fill="#fff3d9"/><use xlink:href="#d" transform="matrix(1,0,0,1,-395,85) translate(16.049382716049372 39.65277777777778)"/><use xlink:href="#g" transform="matrix(1,0,0,1,-395,85) translate(121.60493827160494 39.65277777777778)"/><path d="M-272-80c17.67 0 32 17.9 32 40s-14.33 40-32 40h-96c-17.67 0-32-17.9-32-40s14.33-40 32-40z" stroke="#e81313" stroke-width="3" fill="#fff3d9"/><use xlink:href="#d" transform="matrix(1,0,0,1,-395,-75) translate(16.049382716049372 39.65277777777778)"/><use xlink:href="#h" transform="matrix(1,0,0,1,-395,-75) translate(121.60493827160494 39.65277777777778)"/><path d="M-860-94a6 6 0 0 1 6-6h208a6 6 0 0 1 6 6v268a6 6 0 0 1-6 6h-208a6 6 0 0 1-6-6z" fill="none"/><path d="M-640 180c-5.52 0-10-4.48-10-10V50c0-5.52-4.48-10-10-10 5.52 0 10-4.48 10-10V-90c0-5.52 4.48-10 10-10" stroke="#5e5e5e" stroke-width="3" fill="none"/><use xlink:href="#i" transform="matrix(1,0,0,1,-855,-95) translate(14.84567901234567 126.11111111111111)"/><use xlink:href="#j" transform="matrix(1,0,0,1,-855,-95) translate(13.58024691358024 152.77777777777777)"/><use xlink:href="#k" transform="matrix(1,0,0,1,-855,-95) translate(54.197530864197525 152.77777777777777)"/><use xlink:href="#l" transform="matrix(1,0,0,1,-855,-95) translate(72.71604938271605 152.77777777777777)"/><use xlink:href="#m" transform="matrix(1,0,0,1,-855,-95) translate(129.44444444444446 152.77777777777777)"/><path d="M-921.63 386.56c17.67 0 32 17.9 32 40s-14.33 40-32 40h-96c-17.67 0-32-17.9-32-40s14.33-40 32-40z" stroke="#e81313" stroke-width="3" fill="#fff3d9"/><use xlink:href="#n" transform="matrix(1,0,0,1,-1044.631520146298,391.5625577064308) translate(6.5123456790123555 39.65277777777778)"/><use xlink:href="#b" transform="matrix(1,0,0,1,-1044.631520146298,391.5625577064308) translate(99.04320987654322 39.65277777777778)"/><path d="M-1409.72 381.05c17.67 0 32 17.9 32 40s-14.33 40-32 40h-96c-17.68 0-32-17.9-32-40s14.32-40 32-40z" stroke="#e81313" stroke-width="3" fill="#fff3d9"/><use xlink:href="#o" transform="matrix(1,0,0,1,-1532.721916879017,386.0500665283097) translate(22.443271604938268 26.52777777777778)"/><use xlink:href="#b" transform="matrix(1,0,0,1,-1532.721916879017,386.0500665283097) translate(52.782777777777774 53.19444444444445)"/><path d="M-1492 0c17.67 0 32 17.9 32 40s-14.33 40-32 40h-96c-17.67 0-32-17.9-32-40s14.33-40 32-40z" stroke="#e81313" stroke-width="3" fill="#fff3d9"/><use xlink:href="#p" transform="matrix(1,0,0,1,-1615,5) translate(20.308641975308646 39.65277777777778)"/><use xlink:href="#b" transform="matrix(1,0,0,1,-1615,5) translate(85.24691358024691 39.65277777777778)"/><path d="M-1932-380c17.67 0 32 17.9 32 40s-14.33 40-32 40h-96c-17.67 0-32-17.9-32-40s14.33-40 32-40z" stroke="#e81313" stroke-width="3" fill="#fff3d9"/><use xlink:href="#q" transform="matrix(1,0,0,1,-2055,-375) translate(23.184012345679015 26.52777777777778)"/><use xlink:href="#r" transform="matrix(1,0,0,1,-2055,-375) translate(41.702530864197534 26.52777777777778)"/><use xlink:href="#s" transform="matrix(1,0,0,1,-2055,-375) translate(46.60993827160494 53.19444444444445)"/><path d="M-1752-380c17.67 0 32 17.9 32 40s-14.33 40-32 40h-96c-17.67 0-32-17.9-32-40s14.33-40 32-40z" stroke="#e81313" stroke-width="3" fill="#fff3d9"/><use xlink:href="#q" transform="matrix(1,0,0,1,-1875,-375) translate(23.184012345679015 26.52777777777778)"/><use xlink:href="#t" transform="matrix(1,0,0,1,-1875,-375) translate(41.702530864197534 26.52777777777778)"/><use xlink:href="#u" transform="matrix(1,0,0,1,-1875,-375) translate(46.60993827160494 53.19444444444445)"/><path d="M-1569.72-380c17.67 0 32 17.9 32 40s-14.33 40-32 40h-96c-17.68 0-32-17.9-32-40s14.32-40 32-40z" stroke="#e81313" stroke-width="3" fill="#fff3d9"/><use xlink:href="#q" transform="matrix(1,0,0,1,-1692.721916879017,-375) translate(23.184012345679015 26.52777777777778)"/><use xlink:href="#t" transform="matrix(1,0,0,1,-1692.721916879017,-375) translate(41.702530864197534 26.52777777777778)"/><use xlink:href="#v" transform="matrix(1,0,0,1,-1692.721916879017,-375) translate(46.60993827160494 53.19444444444445)"/><path d="M-1932-122c17.67 0 32 17.9 32 40s-14.33 40-32 40h-96c-17.67 0-32-17.9-32-40s14.33-40 32-40z" stroke="#e81313" stroke-width="3" fill="#fff3d9"/><use xlink:href="#w" transform="matrix(1,0,0,1,-2055,-117) translate(25.679012345679013 39.65277777777778)"/><use xlink:href="#b" transform="matrix(1,0,0,1,-2055,-117) translate(79.87654320987656 39.65277777777778)"/><path d="M-1101.46 225.82a6 6 0 0 1 7.28-4.36l15.88 3.96a2 2 0 0 1 .54 3.64 4.8 4.8 0 0 0-1.65 6.6l65.28 108.8a4.8 4.8 0 0 0 6.6 1.65 2 2 0 0 1 2.94 2.2l-3.96 15.88a6 6 0 0 1-7.28 4.36l-15.88-3.96a2 2 0 0 1-.54-3.64 4.8 4.8 0 0 0 1.65-6.6l-65.28-108.8a4.8 4.8 0 0 0-6.6-1.65 2 2 0 0 1-2.94-2.2zM-1427.98 55.65a6 6 0 0 1 3.63-7.67l15.4-5.5a2 2 0 0 1 2.48 2.72 4.8 4.8 0 0 0 2.3 6.4l146.58 69.44a4.8 4.8 0 0 0 6.4-2.3 2 2 0 0 1 3.68.2l5.5 15.4a6 6 0 0 1-3.63 7.68l-15.4 5.5a2 2 0 0 1-2.48-2.72 4.8 4.8 0 0 0-2.3-6.4l-146.58-69.44a4.8 4.8 0 0 0-6.4 2.3 2 2 0 0 1-3.68-.2zM-1154.24-95.76a6 6 0 0 1 8.48 0l11.58 11.58a2 2 0 0 1-1.4 3.4 4.8 4.8 0 0 0-4.8 4.8V95.98a4.8 4.8 0 0 0 4.8 4.8 2 2 0 0 1 1.4 3.4l-11.58 11.58a6 6 0 0 1-8.48 0l-11.58-11.58a2 2 0 0 1 1.4-3.4 4.8 4.8 0 0 0 4.8-4.8V-75.98a4.8 4.8 0 0 0-4.8-4.8 2 2 0 0 1-1.4-3.4zM-1452.1-14a6 6 0 0 1 2.53-8.1l183.24-96a5.26 5.26 0 0 0 2.22-7.1 2.02 2.02 0 0 1 2.48-2.82l16 5.93a6.67 6.67 0 0 1 4.13 7.9l-4.2 16.54a2.02 2.02 0 0 1-3.76.44 5.26 5.26 0 0 0-7.1-2.22L-1439.8-3.46a6 6 0 0 1-8.1-2.53zM-964.4 371.1a6 6 0 0 1-7.27-4.37l-112.67-450.7a5.26 5.26 0 0 0-6.38-3.82 2.02 2.02 0 0 1-2.17-3.08l9.55-14.14a6.67 6.67 0 0 1 8.65-2.17l15.07 8a2.02 2.02 0 0 1-.46 3.75 5.26 5.26 0 0 0-3.82 6.38l112.68 450.7a6 6 0 0 1-4.37 7.27zM-815.1 75.06a6 6 0 0 1 3.84 7.57l-91.2 277.66a5.26 5.26 0 0 0 3.37 6.63 2.02 2.02 0 0 1 .2 3.76l-15.6 6.88a6.67 6.67 0 0 1-8.48-2.78l-8.5-14.8a2.02 2.02 0 0 1 2.4-2.93 5.26 5.26 0 0 0 6.63-3.35l91.2-277.66a6 6 0 0 1 7.57-3.83zM-1360.02 416.53a6 6 0 0 1 5.98-6.03l269.8-.94a5.26 5.26 0 0 0 5.24-5.28 2.02 2.02 0 0 1 3.52-1.36l11.45 12.63a6.67 6.67 0 0 1 .03 8.92l-11.36 12.72a2.02 2.02 0 0 1-3.53-1.35 5.26 5.26 0 0 0-5.27-5.24l-269.8.95a6 6 0 0 1-6-5.97zM-1533.1 93.18a6 6 0 0 1 8.42-1.07l16.9 13.1a2.44 2.44 0 0 1-1.18 4.34 5.88 5.88 0 0 0-5.1 6.58l28.7 225.85a5.88 5.88 0 0 0 6.57 5.1 2.44 2.44 0 0 1 2.24 3.9l-13.1 16.9a6 6 0 0 1-8.4 1.07l-16.9-13.1a2.44 2.44 0 0 1 1.17-4.33 5.88 5.88 0 0 0 5.1-6.57l-28.68-225.85a5.88 5.88 0 0 0-6.57-5.1 2.44 2.44 0 0 1-2.24-3.9zM-1449.25 85.95a6 6 0 0 1 5.2-6.7l16.24-2.06a2 2 0 0 1 1.8 3.18 4.8 4.8 0 0 0 .87 6.74l362.03 280.58a4.8 4.8 0 0 0 6.74-.86 2 2 0 0 1 3.55.97l2.05 16.25a6 6 0 0 1-5.2 6.7l-16.24 2.06a2 2 0 0 1-1.8-3.18 4.8 4.8 0 0 0-.87-6.74L-1436.9 102.3a4.8 4.8 0 0 0-6.74.86 2 2 0 0 1-3.55-.97z" stroke="#635dff" stroke-width="3" fill="#cfe4ff"/><path d="M-880 24.53a6 6 0 0 1-6 6h-519.8a5.26 5.26 0 0 0-5.25 5.26 2.02 2.02 0 0 1-3.53 1.34l-11.4-12.68a6.67 6.67 0 0 1 0-8.92l11.4-12.68a2.02 2.02 0 0 1 3.53 1.35 5.26 5.26 0 0 0 5.26 5.27H-886a6 6 0 0 1 6 6z" stroke="#635dff" stroke-width="3" fill="#cfe4ff"/><path d="M-2060 166a6 6 0 0 1 6-6h448a6 6 0 0 1 6 6v328a6 6 0 0 1-6 6h-448a6 6 0 0 1-6-6z" stroke="#282c33" stroke-width="3" fill="#fff"/><path d="M-1805.52 372.2a6 6 0 0 1 0-8.5l11.08-11.06a1.93 1.93 0 0 1 3.28 1.36 4.65 4.65 0 0 0 4.66 4.65h113.48a4.65 4.65 0 0 0 4.65-4.65 1.93 1.93 0 0 1 3.3-1.36l11.07 11.07a6 6 0 0 1 0 8.5l-11.08 11.07a1.93 1.93 0 0 1-3.3-1.36 4.65 4.65 0 0 0-4.64-4.64h-113.48a4.65 4.65 0 0 0-4.66 4.65 1.93 1.93 0 0 1-3.28 1.37zM-1809.76 444.65a6 6 0 0 1 6-6h132.6a4.65 4.65 0 0 0 4.65-4.65 1.78 1.78 0 0 1 3.1-1.2l9.62 10.7a6.67 6.67 0 0 1 0 8.92l-9.62 10.7a1.78 1.78 0 0 1-3.1-1.2 4.65 4.65 0 0 0-4.66-4.66h-132.6a6 6 0 0 1-6-6z" stroke="#635dff" stroke-width="3" fill="#cfe4ff"/><path d="M-1681.76 246.56c17.67 0 32 17.9 32 40s-14.33 40-32 40h-96c-17.68 0-32-17.9-32-40s14.32-40 32-40z" stroke="#e81313" stroke-width="3" fill="#fff3d9"/><g><use xlink:href="#x" transform="matrix(1,0,0,1,-1804.7620395837139,251.56255770643082) translate(20.123456790123463 39.65277777777778)"/><use xlink:href="#b" transform="matrix(1,0,0,1,-1804.7620395837139,251.56255770643082) translate(85.4320987654321 39.65277777777778)"/></g><path d="M-2040 175.35a6 6 0 0 1 6-6h228a6 6 0 0 1 6 6v54a6 6 0 0 1-6 6h-228a6 6 0 0 1-6-6z" stroke="#000" stroke-opacity="0" stroke-width="3" fill="#fff" fill-opacity="0"/><g><use xlink:href="#y" transform="matrix(1,0,0,1,-2035,174.34978971733238) translate(17.777777777777814 40.833333333333314)"/></g><path d="M-2060 257.85a6 6 0 0 1 6-6h228a6 6 0 0 1 6 6v219.33a6 6 0 0 1-6 6h-228a6 6 0 0 1-6-6z" stroke="#000" stroke-opacity="0" stroke-width="3" fill="#fff" fill-opacity="0"/><g><use xlink:href="#z" transform="matrix(1,0,0,1,-2055,256.84978971733244) translate(115 15.826388888888884)"/><use xlink:href="#A" transform="matrix(1,0,0,1,-2055,256.84978971733244) translate(43.80555555555554 39.826388888888886)"/><use xlink:href="#B" transform="matrix(1,0,0,1,-2055,256.84978971733244) translate(110.21296296296296 39.826388888888886)"/><use xlink:href="#C" transform="matrix(1,0,0,1,-2055,256.84978971733244) translate(115 69.15972222222221)"/><use xlink:href="#D" transform="matrix(1,0,0,1,-2055,256.84978971733244) translate(34.367283950617264 98.49305555555556)"/><use xlink:href="#E" transform="matrix(1,0,0,1,-2055,256.84978971733244) translate(32.97530864197529 127.8263888888889)"/><use xlink:href="#F" transform="matrix(1,0,0,1,-2055,256.84978971733244) translate(115 148.27083333333334)"/><use xlink:href="#G" transform="matrix(1,0,0,1,-2055,256.84978971733244) translate(26.932098765432073 173.15972222222223)"/><use xlink:href="#H" transform="matrix(1,0,0,1,-2055,256.84978971733244) translate(32.97530864197529 202.4930555555556)"/></g><path d="M-1392-380c17.67 0 32 17.9 32 40s-14.33 40-32 40h-96c-17.67 0-32-17.9-32-40s14.33-40 32-40z" stroke="#e81313" stroke-width="3" fill="#fff3d9"/><g><use xlink:href="#q" transform="matrix(1,0,0,1,-1515,-375) translate(23.184012345679015 26.52777777777778)"/><use xlink:href="#t" transform="matrix(1,0,0,1,-1515,-375) translate(41.702530864197534 26.52777777777778)"/><use xlink:href="#I" transform="matrix(1,0,0,1,-1515,-375) translate(46.60993827160494 53.19444444444445)"/></g><g><path d="M-1504.36-31.2a6 6 0 0 1-4.2-7.38l56.7-205.47a5.26 5.26 0 0 0-3.67-6.48 2.02 2.02 0 0 1-.37-3.75l15.26-7.63a6.67 6.67 0 0 1 8.6 2.37l9.2 14.37a2.02 2.02 0 0 1-2.25 3.03 5.26 5.26 0 0 0-6.46 3.67l-56.7 205.48a6 6 0 0 1-7.38 4.18z" stroke="#635dff" stroke-width="3" fill="#cfe4ff"/></g><g><path d="M-1562.76-31.16a6 6 0 0 1-7.1-4.65l-45.5-218.35a5.26 5.26 0 0 0-6.23-4.08 2.02 2.02 0 0 1-2.03-3.17l10.08-13.76a6.67 6.67 0 0 1 8.73-1.82l14.75 8.58a2.02 2.02 0 0 1-.6 3.73 5.26 5.26 0 0 0-4.1 6.22l45.52 218.34a6 6 0 0 1-4.65 7.1z" stroke="#635dff" stroke-width="3" fill="#cfe4ff"/></g><g><path d="M-1602.96-16.62a6 6 0 0 1-8.33-1.62l-146.44-217.07a5.26 5.26 0 0 0-7.3-1.43 2.02 2.02 0 0 1-3.1-2.16l4.14-16.54a6.67 6.67 0 0 1 7.4-5l16.88 2.38a2.02 2.02 0 0 1 .85 3.67 5.26 5.26 0 0 0-1.42 7.3L-1593.83-30a6 6 0 0 1-1.6 8.32z" stroke="#635dff" stroke-width="3" fill="#cfe4ff"/></g><g><path d="M-1643.03 3.36a6 6 0 0 1-8.48.43l-287.6-259.76a5.26 5.26 0 0 0-7.42.37 2.02 2.02 0 0 1-3.52-1.34l.03-17.06a6.67 6.67 0 0 1 5.97-6.62l16.96-1.76a2.02 2.02 0 0 1 1.7 3.36 5.26 5.26 0 0 0 .4 7.44l287.57 259.75a6 6 0 0 1 .43 8.47z" stroke="#635dff" stroke-width="3" fill="#cfe4ff"/></g><g><path d="M-1822.8-279.13a6 6 0 0 1 6.7 5.23l1.95 16.25a2 2 0 0 1-3.2 1.8 4.8 4.8 0 0 0-6.75.82l-78.4 99.92a4.8 4.8 0 0 0 .8 6.73 2 2 0 0 1-.98 3.54l-16.25 1.96a6 6 0 0 1-6.67-5.23l-1.96-16.25a2 2 0 0 1 3.2-1.8 4.8 4.8 0 0 0 6.74-.82l78.4-99.92a4.8 4.8 0 0 0-.8-6.73 2 2 0 0 1 .98-3.54z" stroke="#635dff" stroke-width="3" fill="#cfe4ff"/></g><g><path d="M-1665.87-271.22a6 6 0 0 1 4.65 7.1l-3.33 16.02a2 2 0 0 1-3.62.68 4.8 4.8 0 0 0-6.65-1.38l-192.57 126.27a4.8 4.8 0 0 0-1.38 6.65 2 2 0 0 1-2.06 3.03l-16.03-3.33a6 6 0 0 1-4.65-7.1l3.33-16.02a2 2 0 0 1 3.62-.68 4.8 4.8 0 0 0 6.65 1.38l192.58-126.27a4.8 4.8 0 0 0 1.38-6.65 2 2 0 0 1 2.07-3.03z" stroke="#635dff" stroke-width="3" fill="#cfe4ff"/></g><g><path d="M-1485.7-271.84a6 6 0 0 1 3.86 7.55l-5.03 15.6a2 2 0 0 1-3.66.28 4.8 4.8 0 0 0-6.47-2.08l-340.52 174.4a4.8 4.8 0 0 0-2.1 6.47 2 2 0 0 1-2.37 2.8l-15.57-5.03a6 6 0 0 1-3.87-7.55l5.03-15.6a2 2 0 0 1 3.65-.28 4.8 4.8 0 0 0 6.47 2.08l340.53-174.4a4.8 4.8 0 0 0 2.08-6.47 2 2 0 0 1 2.38-2.8z" stroke="#635dff" stroke-width="3" fill="#cfe4ff"/></g><g><path d="M-1994.24-275.76a6 6 0 0 1 8.48 0l11.58 11.58a2 2 0 0 1-1.4 3.4 4.8 4.8 0 0 0-4.8 4.8v81.96a4.8 4.8 0 0 0 4.8 4.8 2 2 0 0 1 1.4 3.4l-11.58 11.58a6 6 0 0 1-8.48 0l-11.58-11.58a2 2 0 0 1 1.4-3.4 4.8 4.8 0 0 0 4.8-4.8v-81.96a4.8 4.8 0 0 0-4.8-4.8 2 2 0 0 1-1.4-3.4z" stroke="#635dff" stroke-width="3" fill="#cfe4ff"/></g><g><path d="M-1642.55 44.57a6 6 0 0 1-2.88 7.98l-14.8 6.97a2 2 0 0 1-2.73-2.47 4.8 4.8 0 0 0-2.9-6.15l-204.8-73.73a4.8 4.8 0 0 0-6.14 2.9 2 2 0 0 1-3.68.17l-6.97-14.8a6 6 0 0 1 2.88-8l14.8-6.96a2 2 0 0 1 2.73 2.47 4.8 4.8 0 0 0 2.9 6.15l204.8 73.73a4.8 4.8 0 0 0 6.14-2.9 2 2 0 0 1 3.68-.17z" stroke="#635dff" stroke-width="3" fill="#cfe4ff"/></g><g><path d="M-1255.95 210.8a6 6 0 0 1 6.74 5.15l2.13 16.22a2 2 0 0 1-3.18 1.84 4.8 4.8 0 0 0-6.74.9l-102.23 133.4a4.8 4.8 0 0 0 .9 6.73 2 2 0 0 1-.96 3.55l-16.22 2.14a6 6 0 0 1-6.73-5.16l-2.15-16.23a2 2 0 0 1 3.2-1.84 4.8 4.8 0 0 0 6.72-.9l102.25-133.38a4.8 4.8 0 0 0-.9-6.74 2 2 0 0 1 .96-3.55z" stroke="#635dff" stroke-width="3" fill="#cfe4ff"/></g><g><path d="M-1058.75 142.3a6 6 0 0 1-3.23-7.85l6.3-15.1a2 2 0 0 1 3.67 0 4.8 4.8 0 0 0 6.26 2.6l149.88-61.7a4.8 4.8 0 0 0 2.6-6.26 2 2 0 0 1 2.6-2.6l15.12 6.3a6 6 0 0 1 3.23 7.84l-6.3 15.1a2 2 0 0 1-3.68 0 4.8 4.8 0 0 0-6.27-2.6l-149.87 61.7a4.8 4.8 0 0 0-2.62 6.26 2 2 0 0 1-2.6 2.6z" stroke="#635dff" stroke-width="3" fill="#cfe4ff"/></g><defs><path fill="#333" d="M30-248c87 1 191-15 191 75 0 78-77 80-158 76V0H30v-248zm33 125c57 0 124 11 124-50 0-59-68-47-124-48v98" id="J"/><path fill="#333" d="M84 4C-5 8 30-112 23-190h32v120c0 31 7 50 39 49 72-2 45-101 50-169h31l1 190h-30c-1-10 1-25-2-33-11 22-28 36-60 37" id="K"/><path fill="#333" d="M9 0v-24l116-142H16v-24h144v24L44-24h123V0H9" id="L"/><path fill="#333" d="M24 0v-261h32V0H24" id="M"/><path fill="#333" d="M100-194c63 0 86 42 84 106H49c0 40 14 67 53 68 26 1 43-12 49-29l28 8c-11 28-37 45-77 45C44 4 14-33 15-96c1-61 26-98 85-98zm52 81c6-60-76-77-97-28-3 7-6 17-6 28h103" id="N"/><path fill="#333" d="M115-194c53 0 69 39 70 98 0 66-23 100-70 100C84 3 66-7 56-30L54 0H23l1-261h32v101c10-23 28-34 59-34zm-8 174c40 0 45-34 45-75 0-40-5-75-45-74-42 0-51 32-51 76 0 43 10 73 51 73" id="O"/><path fill="#333" d="M100-194c62-1 85 37 85 99 1 63-27 99-86 99S16-35 15-95c0-66 28-99 85-99zM99-20c44 1 53-31 53-75 0-43-8-75-51-75s-53 32-53 75 10 74 51 75" id="P"/><path fill="#333" d="M141 0L90-78 38 0H4l68-98-65-92h35l48 74 47-74h35l-64 92 68 98h-35" id="Q"/><g id="a"><use transform="matrix(0.06172839506172839,0,0,0.06172839506172839,0,0)" xlink:href="#J"/><use transform="matrix(0.06172839506172839,0,0,0.06172839506172839,14.814814814814813,0)" xlink:href="#K"/><use transform="matrix(0.06172839506172839,0,0,0.06172839506172839,27.160493827160494,0)" xlink:href="#L"/><use transform="matrix(0.06172839506172839,0,0,0.06172839506172839,38.27160493827161,0)" xlink:href="#L"/><use transform="matrix(0.06172839506172839,0,0,0.06172839506172839,49.38271604938272,0)" xlink:href="#M"/><use transform="matrix(0.06172839506172839,0,0,0.06172839506172839,54.25925925925927,0)" xlink:href="#N"/><use transform="matrix(0.06172839506172839,0,0,0.06172839506172839,66.60493827160495,0)" xlink:href="#O"/><use transform="matrix(0.06172839506172839,0,0,0.06172839506172839,78.95061728395063,0)" xlink:href="#P"/><use transform="matrix(0.06172839506172839,0,0,0.06172839506172839,91.29629629629632,0)" xlink:href="#Q"/></g><path fill="#333" d="M30 0v-248h187v28H63v79h144v27H63v87h162V0H30" id="R"/><path fill="#333" d="M185-189c-5-48-123-54-124 2 14 75 158 14 163 119 3 78-121 87-175 55-17-10-28-26-33-46l33-7c5 56 141 63 141-1 0-78-155-14-162-118-5-82 145-84 179-34 5 7 8 16 11 25" id="S"/><g id="b"><use transform="matrix(0.06172839506172839,0,0,0.06172839506172839,0,0)" xlink:href="#R"/><use transform="matrix(0.06172839506172839,0,0,0.06172839506172839,14.814814814814813,0)" xlink:href="#S"/><use transform="matrix(0.06172839506172839,0,0,0.06172839506172839,29.629629629629626,0)" xlink:href="#J"/></g><path fill="#333" d="M232-93c-1 65-40 97-104 97C67 4 28-28 28-90v-158h33c8 89-33 224 67 224 102 0 64-133 71-224h33v155" id="T"/><path fill="#333" d="M137 0h-34L2-248h35l83 218 83-218h36" id="U"/><path fill="#333" d="M16-82v-28h88v28H16" id="V"/><path fill="#333" d="M135-143c-3-34-86-38-87 0 15 53 115 12 119 90S17 21 10-45l28-5c4 36 97 45 98 0-10-56-113-15-118-90-4-57 82-63 122-42 12 7 21 19 24 35" id="W"/><path fill="#333" d="M59-47c-2 24 18 29 38 22v24C64 9 27 4 27-40v-127H5v-23h24l9-43h21v43h35v23H59v120" id="X"/><g id="c"><use transform="matrix(0.06172839506172839,0,0,0.06172839506172839,0,0)" xlink:href="#T"/><use transform="matrix(0.06172839506172839,0,0,0.06172839506172839,15.987654320987653,0)" xlink:href="#U"/><use transform="matrix(0.06172839506172839,0,0,0.06172839506172839,29.5679012345679,0)" xlink:href="#V"/><use transform="matrix(0.06172839506172839,0,0,0.06172839506172839,36.913580246913575,0)" xlink:href="#W"/><use transform="matrix(0.06172839506172839,0,0,0.06172839506172839,48.02469135802468,0)" xlink:href="#M"/><use transform="matrix(0.06172839506172839,0,0,0.06172839506172839,52.90123456790123,0)" xlink:href="#P"/><use transform="matrix(0.06172839506172839,0,0,0.06172839506172839,65.24691358024691,0)" xlink:href="#X"/></g><path fill="#333" d="M266 0h-40l-56-210L115 0H75L2-248h35L96-30l15-64 43-154h32l59 218 59-218h35" id="Y"/><path fill="#333" d="M114-163C36-179 61-72 57 0H25l-1-190h30c1 12-1 29 2 39 6-27 23-49 58-41v29" id="Z"/><path fill="#333" d="M24-231v-30h32v30H24zM24 0v-190h32V0H24" id="aa"/><path fill="#333" d="M141-36C126-15 110 5 73 4 37 3 15-17 15-53c-1-64 63-63 125-63 3-35-9-54-41-54-24 1-41 7-42 31l-33-3c5-37 33-52 76-52 45 0 72 20 72 64v82c-1 20 7 32 28 27v20c-31 9-61-2-59-35zM48-53c0 20 12 33 32 33 41-3 63-29 60-74-43 2-92-5-92 41" id="ab"/><path fill="#333" d="M117-194c89-4 53 116 60 194h-32v-121c0-31-8-49-39-48C34-167 62-67 57 0H25l-1-190h30c1 10-1 24 2 32 11-22 29-35 61-36" id="ac"/><path fill="#333" d="M85-194c31 0 48 13 60 33l-1-100h32l1 261h-30c-2-10 0-23-3-31C134-8 116 4 85 4 32 4 16-35 15-94c0-66 23-100 70-100zm9 24c-40 0-46 34-46 75 0 40 6 74 45 74 42 0 51-32 51-76 0-42-9-74-50-73" id="ad"/><g id="d"><use transform="matrix(0.06172839506172839,0,0,0.06172839506172839,0,0)" xlink:href="#Y"/><use transform="matrix(0.06172839506172839,0,0,0.06172839506172839,20.493827160493826,0)" xlink:href="#Z"/><use transform="matrix(0.06172839506172839,0,0,0.06172839506172839,27.839506172839506,0)" xlink:href="#aa"/><use transform="matrix(0.06172839506172839,0,0,0.06172839506172839,32.71604938271605,0)" xlink:href="#W"/><use transform="matrix(0.06172839506172839,0,0,0.06172839506172839,43.827160493827165,0)" xlink:href="#X"/><use transform="matrix(0.06172839506172839,0,0,0.06172839506172839,50.00000000000001,0)" xlink:href="#O"/><use transform="matrix(0.06172839506172839,0,0,0.06172839506172839,62.345679012345684,0)" xlink:href="#ab"/><use transform="matrix(0.06172839506172839,0,0,0.06172839506172839,74.69135802469137,0)" xlink:href="#ac"/><use transform="matrix(0.06172839506172839,0,0,0.06172839506172839,87.03703703703705,0)" xlink:href="#ad"/></g><path fill="#333" d="M27 0v-27h64v-190l-56 39v-29l58-41h29v221h61V0H27" id="ae"/><use transform="matrix(0.06172839506172839,0,0,0.06172839506172839,0,0)" xlink:href="#ae" id="e"/><path fill="#333" d="M101-251c82-7 93 87 43 132L82-64C71-53 59-42 53-27h129V0H18c2-99 128-94 128-182 0-28-16-43-45-43s-46 15-49 41l-32-3c6-41 34-60 81-64" id="af"/><use transform="matrix(0.06172839506172839,0,0,0.06172839506172839,0,0)" xlink:href="#af" id="f"/><path fill="#333" d="M126-127c33 6 58 20 58 59 0 88-139 92-164 29-3-8-5-16-6-25l32-3c6 27 21 44 54 44 32 0 52-15 52-46 0-38-36-46-79-43v-28c39 1 72-4 72-42 0-27-17-43-46-43-28 0-47 15-49 41l-32-3c6-42 35-63 81-64 48-1 79 21 79 65 0 36-21 52-52 59" id="ag"/><use transform="matrix(0.06172839506172839,0,0,0.06172839506172839,0,0)" xlink:href="#ag" id="g"/><path fill="#333" d="M155-56V0h-30v-56H8v-25l114-167h33v167h35v25h-35zm-30-156c-27 46-58 90-88 131h88v-131" id="ah"/><use transform="matrix(0.06172839506172839,0,0,0.06172839506172839,0,0)" xlink:href="#ah" id="h"/><path fill="#333" d="M212-179c-10-28-35-45-73-45-59 0-87 40-87 99 0 60 29 101 89 101 43 0 62-24 78-52l27 14C228-24 195 4 139 4 59 4 22-46 18-125c-6-104 99-153 187-111 19 9 31 26 39 46" id="ai"/><path fill="#333" d="M210-169c-67 3-38 105-44 169h-31v-121c0-29-5-50-35-48C34-165 62-65 56 0H25l-1-190h30c1 10-1 24 2 32 10-44 99-50 107 0 11-21 27-35 58-36 85-2 47 119 55 194h-31v-121c0-29-5-49-35-48" id="aj"/><path fill="#333" d="M96-169c-40 0-48 33-48 73s9 75 48 75c24 0 41-14 43-38l32 2c-6 37-31 61-74 61-59 0-76-41-82-99-10-93 101-131 147-64 4 7 5 14 7 22l-32 3c-4-21-16-35-41-35" id="ak"/><g id="i"><use transform="matrix(0.06172839506172839,0,0,0.06172839506172839,0,0)" xlink:href="#ai"/><use transform="matrix(0.06172839506172839,0,0,0.06172839506172839,15.987654320987653,0)" xlink:href="#P"/><use transform="matrix(0.06172839506172839,0,0,0.06172839506172839,28.333333333333332,0)" xlink:href="#aj"/><use transform="matrix(0.06172839506172839,0,0,0.06172839506172839,46.79012345679012,0)" xlink:href="#aj"/><use transform="matrix(0.06172839506172839,0,0,0.06172839506172839,65.24691358024691,0)" xlink:href="#K"/><use transform="matrix(0.06172839506172839,0,0,0.06172839506172839,77.5925925925926,0)" xlink:href="#ac"/><use transform="matrix(0.06172839506172839,0,0,0.06172839506172839,89.93827160493828,0)" xlink:href="#aa"/><use transform="matrix(0.06172839506172839,0,0,0.06172839506172839,94.81481481481482,0)" xlink:href="#ak"/><use transform="matrix(0.06172839506172839,0,0,0.06172839506172839,105.92592592592594,0)" xlink:href="#N"/><use transform="matrix(0.06172839506172839,0,0,0.06172839506172839,118.27160493827162,0)" xlink:href="#Z"/><use transform="matrix(0.06172839506172839,0,0,0.06172839506172839,125.6172839506173,0)" xlink:href="#N"/><use transform="matrix(0.06172839506172839,0,0,0.06172839506172839,137.962962962963,0)" xlink:href="#ac"/></g><g id="j"><use transform="matrix(0.06172839506172839,0,0,0.06172839506172839,0,0)" xlink:href="#ab"/><use transform="matrix(0.06172839506172839,0,0,0.06172839506172839,12.345679012345679,0)" xlink:href="#M"/><use transform="matrix(0.06172839506172839,0,0,0.06172839506172839,17.22222222222222,0)" xlink:href="#M"/><use transform="matrix(0.06172839506172839,0,0,0.06172839506172839,22.098765432098766,0)" xlink:href="#N"/></g><use transform="matrix(0.06172839506172839,0,0,0.06172839506172839,0,0)" xlink:href="#ah" id="k"/><path fill="#333" d="M115-194c55 1 70 41 70 98S169 2 115 4C84 4 66-9 55-30l1 105H24l-1-265h31l2 30c10-21 28-34 59-34zm-8 174c40 0 45-34 45-75s-6-73-45-74c-42 0-51 32-51 76 0 43 10 73 51 73" id="al"/><g id="l"><use transform="matrix(0.06172839506172839,0,0,0.06172839506172839,0,0)" xlink:href="#ab"/><use transform="matrix(0.06172839506172839,0,0,0.06172839506172839,12.345679012345679,0)" xlink:href="#al"/><use transform="matrix(0.06172839506172839,0,0,0.06172839506172839,24.691358024691358,0)" xlink:href="#ab"/><use transform="matrix(0.06172839506172839,0,0,0.06172839506172839,37.03703703703704,0)" xlink:href="#Z"/><use transform="matrix(0.06172839506172839,0,0,0.06172839506172839,44.382716049382715,0)" xlink:href="#X"/></g><g id="m"><use transform="matrix(0.06172839506172839,0,0,0.06172839506172839,0,0)" xlink:href="#aj"/><use transform="matrix(0.06172839506172839,0,0,0.06172839506172839,18.456790123456788,0)" xlink:href="#N"/><use transform="matrix(0.06172839506172839,0,0,0.06172839506172839,30.80246913580247,0)" xlink:href="#X"/></g><path fill="#333" d="M143 4C61 4 22-44 18-125c-5-107 100-154 193-111 17 8 29 25 37 43l-32 9c-13-25-37-40-76-40-61 0-88 39-88 99 0 61 29 100 91 101 35 0 62-11 79-27v-45h-74v-28h105v86C228-13 192 4 143 4" id="am"/><path fill="#333" d="M177-190C167-65 218 103 67 71c-23-6-38-20-44-43l32-5c15 47 100 32 89-28v-30C133-14 115 1 83 1 29 1 15-40 15-95c0-56 16-97 71-98 29-1 48 16 59 35 1-10 0-23 2-32h30zM94-22c36 0 50-32 50-73 0-42-14-75-50-75-39 0-46 34-46 75s6 73 46 73" id="an"/><g id="n"><use transform="matrix(0.06172839506172839,0,0,0.06172839506172839,0,0)" xlink:href="#am"/><use transform="matrix(0.06172839506172839,0,0,0.06172839506172839,17.28395061728395,0)" xlink:href="#ab"/><use transform="matrix(0.06172839506172839,0,0,0.06172839506172839,29.629629629629626,0)" xlink:href="#Z"/><use transform="matrix(0.06172839506172839,0,0,0.06172839506172839,36.9753086419753,0)" xlink:href="#O"/><use transform="matrix(0.06172839506172839,0,0,0.06172839506172839,49.32098765432098,0)" xlink:href="#ab"/><use transform="matrix(0.06172839506172839,0,0,0.06172839506172839,61.66666666666666,0)" xlink:href="#an"/><use transform="matrix(0.06172839506172839,0,0,0.06172839506172839,74.01234567901234,0)" xlink:href="#N"/></g><path fill="#333" d="M127-220V0H93v-220H8v-28h204v28h-85" id="ao"/><g id="o"><use transform="matrix(0.06172839506172839,0,0,0.06172839506172839,0,0)" xlink:href="#ao"/><use transform="matrix(0.06172839506172839,0,0,0.06172839506172839,12.716049382716047,0)" xlink:href="#Z"/><use transform="matrix(0.06172839506172839,0,0,0.06172839506172839,20.061728395061728,0)" xlink:href="#ab"/><use transform="matrix(0.06172839506172839,0,0,0.06172839506172839,32.407407407407405,0)" xlink:href="#aa"/><use transform="matrix(0.06172839506172839,0,0,0.06172839506172839,37.28395061728395,0)" xlink:href="#ac"/><use transform="matrix(0.06172839506172839,0,0,0.06172839506172839,49.629629629629626,0)" xlink:href="#an"/><use transform="matrix(0.06172839506172839,0,0,0.06172839506172839,61.9753086419753,0)" xlink:href="#ab"/><use transform="matrix(0.06172839506172839,0,0,0.06172839506172839,74.32098765432099,0)" xlink:href="#aj"/><use transform="matrix(0.06172839506172839,0,0,0.06172839506172839,92.77777777777777,0)" xlink:href="#N"/></g><path fill="#333" d="M160-131c35 5 61 23 61 61C221 17 115-2 30 0v-248c76 3 177-17 177 60 0 33-19 50-47 57zm-97-11c50-1 110 9 110-42 0-47-63-36-110-37v79zm0 115c55-2 124 14 124-45 0-56-70-42-124-44v89" id="ap"/><path fill="#333" d="M101-234c-31-9-42 10-38 44h38v23H63V0H32v-167H5v-23h27c-7-52 17-82 69-68v24" id="aq"/><g id="p"><use transform="matrix(0.06172839506172839,0,0,0.06172839506172839,0,0)" xlink:href="#ap"/><use transform="matrix(0.06172839506172839,0,0,0.06172839506172839,14.814814814814813,0)" xlink:href="#K"/><use transform="matrix(0.06172839506172839,0,0,0.06172839506172839,27.160493827160494,0)" xlink:href="#aq"/><use transform="matrix(0.06172839506172839,0,0,0.06172839506172839,32.901234567901234,0)" xlink:href="#aq"/><use transform="matrix(0.06172839506172839,0,0,0.06172839506172839,39.074074074074076,0)" xlink:href="#N"/><use transform="matrix(0.06172839506172839,0,0,0.06172839506172839,51.41975308641975,0)" xlink:href="#Z"/></g><path fill="#333" d="M64 0c3-98 48-159 88-221H18v-27h164v26C143-157 98-101 97 0H64" id="ar"/><use transform="matrix(0.06172839506172839,0,0,0.06172839506172839,0,0)" xlink:href="#ar" id="q"/><g id="r"><use transform="matrix(0.06172839506172839,0,0,0.06172839506172839,0,0)" xlink:href="#W"/><use transform="matrix(0.06172839506172839,0,0,0.06172839506172839,11.11111111111111,0)" xlink:href="#N"/><use transform="matrix(0.06172839506172839,0,0,0.06172839506172839,23.45679012345679,0)" xlink:href="#an"/><use transform="matrix(0.06172839506172839,0,0,0.06172839506172839,35.80246913580247,0)" xlink:href="#aj"/><use transform="matrix(0.06172839506172839,0,0,0.06172839506172839,54.25925925925925,0)" xlink:href="#N"/><use transform="matrix(0.06172839506172839,0,0,0.06172839506172839,66.60493827160494,0)" xlink:href="#ac"/><use transform="matrix(0.06172839506172839,0,0,0.06172839506172839,78.95061728395062,0)" xlink:href="#X"/></g><g id="s"><use transform="matrix(0.06172839506172839,0,0,0.06172839506172839,0,0)" xlink:href="#R"/><use transform="matrix(0.06172839506172839,0,0,0.06172839506172839,14.814814814814813,0)" xlink:href="#S"/><use transform="matrix(0.06172839506172839,0,0,0.06172839506172839,29.629629629629626,0)" xlink:href="#J"/><use transform="matrix(0.06172839506172839,0,0,0.06172839506172839,44.44444444444444,0)" xlink:href="#ae"/></g><g id="t"><use transform="matrix(0.06172839506172839,0,0,0.06172839506172839,0,0)" xlink:href="#W"/><use transform="matrix(0.06172839506172839,0,0,0.06172839506172839,11.11111111111111,0)" xlink:href="#N"/><use transform="matrix(0.06172839506172839,0,0,0.06172839506172839,23.45679012345679,0)" xlink:href="#an"/><use transform="matrix(0.06172839506172839,0,0,0.06172839506172839,35.80246913580247,0)" xlink:href="#aj"/><use transform="matrix(0.06172839506172839,0,0,0.06172839506172839,54.25925925925925,0)" xlink:href="#N"/><use transform="matrix(0.06172839506172839,0,0,0.06172839506172839,66.60493827160494,0)" xlink:href="#ac"/><use transform="matrix(0.06172839506172839,0,0,0.06172839506172839,78.95061728395062,0)" xlink:href="#X"/></g><g id="u"><use transform="matrix(0.06172839506172839,0,0,0.06172839506172839,0,0)" xlink:href="#R"/><use transform="matrix(0.06172839506172839,0,0,0.06172839506172839,14.814814814814813,0)" xlink:href="#S"/><use transform="matrix(0.06172839506172839,0,0,0.06172839506172839,29.629629629629626,0)" xlink:href="#J"/><use transform="matrix(0.06172839506172839,0,0,0.06172839506172839,44.44444444444444,0)" xlink:href="#af"/></g><g id="v"><use transform="matrix(0.06172839506172839,0,0,0.06172839506172839,0,0)" xlink:href="#R"/><use transform="matrix(0.06172839506172839,0,0,0.06172839506172839,14.814814814814813,0)" xlink:href="#S"/><use transform="matrix(0.06172839506172839,0,0,0.06172839506172839,29.629629629629626,0)" xlink:href="#J"/><use transform="matrix(0.06172839506172839,0,0,0.06172839506172839,44.44444444444444,0)" xlink:href="#ag"/></g><path fill="#333" d="M63-220v92h138v28H63V0H30v-248h175v28H63" id="as"/><g id="w"><use transform="matrix(0.06172839506172839,0,0,0.06172839506172839,0,0)" xlink:href="#as"/><use transform="matrix(0.06172839506172839,0,0,0.06172839506172839,13.518518518518517,0)" xlink:href="#aa"/><use transform="matrix(0.06172839506172839,0,0,0.06172839506172839,18.39506172839506,0)" xlink:href="#N"/><use transform="matrix(0.06172839506172839,0,0,0.06172839506172839,30.74074074074074,0)" xlink:href="#X"/><use transform="matrix(0.06172839506172839,0,0,0.06172839506172839,36.91358024691358,0)" xlink:href="#W"/></g><path fill="#333" d="M190 0L58-211 59 0H30v-248h39L202-35l-2-213h31V0h-41" id="at"/><g id="x"><use transform="matrix(0.06172839506172839,0,0,0.06172839506172839,0,0)" xlink:href="#at"/><use transform="matrix(0.06172839506172839,0,0,0.06172839506172839,15.987654320987653,0)" xlink:href="#ab"/><use transform="matrix(0.06172839506172839,0,0,0.06172839506172839,28.333333333333332,0)" xlink:href="#ab"/><use transform="matrix(0.06172839506172839,0,0,0.06172839506172839,40.67901234567901,0)" xlink:href="#aj"/></g><path fill="#333" d="M30 0v-248h33v221h125V0H30" id="au"/><path fill="#333" d="M33-154v-36h34v36H33zM33 0v-36h34V0H33" id="av"/><g id="y"><use transform="matrix(0.12962962962962957,0,0,0.12962962962962957,0,0)" xlink:href="#au"/><use transform="matrix(0.12962962962962957,0,0,0.12962962962962957,25.925925925925913,0)" xlink:href="#N"/><use transform="matrix(0.12962962962962957,0,0,0.12962962962962957,51.851851851851826,0)" xlink:href="#an"/><use transform="matrix(0.12962962962962957,0,0,0.12962962962962957,77.77777777777774,0)" xlink:href="#N"/><use transform="matrix(0.12962962962962957,0,0,0.12962962962962957,103.70370370370365,0)" xlink:href="#ac"/><use transform="matrix(0.12962962962962957,0,0,0.12962962962962957,129.62962962962956,0)" xlink:href="#ad"/><use transform="matrix(0.12962962962962957,0,0,0.12962962962962957,155.5555555555555,0)" xlink:href="#N"/><use transform="matrix(0.12962962962962957,0,0,0.12962962962962957,181.4814814814814,0)" xlink:href="#av"/><path fill="#333" d="M-2.33 3.24h199.1v3.42H-2.32z"/></g><path fill="#333" d="M24 0v-248h195v40H76v63h132v40H76v65h150V0H24" id="aw"/><path fill="#333" d="M88-194c31-1 46 15 58 34l-1-101h50l1 261h-48c-2-10 0-23-3-31C134-8 116 4 84 4 32 4 16-41 15-95c0-56 19-97 73-99zm17 164c33 0 40-30 41-66 1-37-9-64-41-64s-38 30-39 65c0 43 13 65 39 65" id="ax"/><path fill="#333" d="M195-6C206 82 75 100 31 46c-4-6-6-13-8-21l49-6c3 16 16 24 34 25 40 0 42-37 40-79-11 22-30 35-61 35-53 0-70-43-70-97 0-56 18-96 73-97 30 0 46 14 59 34l2-30h47zm-90-29c32 0 41-27 41-63 0-35-9-62-40-62-32 0-39 29-40 63 0 36 9 62 39 62" id="ay"/><path fill="#333" d="M185-48c-13 30-37 53-82 52C43 2 14-33 14-96s30-98 90-98c62 0 83 45 84 108H66c0 31 8 55 39 56 18 0 30-7 34-22zm-45-69c5-46-57-63-70-21-2 6-4 13-4 21h74" id="az"/><g id="A"><use transform="matrix(0.06790123456790124,0,0,0.06790123456790124,0,0)" xlink:href="#aw"/><use transform="matrix(0.06790123456790124,0,0,0.06790123456790124,16.296296296296298,0)" xlink:href="#ax"/><use transform="matrix(0.06790123456790124,0,0,0.06790123456790124,31.16666666666667,0)" xlink:href="#ay"/><use transform="matrix(0.06790123456790124,0,0,0.06790123456790124,46.037037037037045,0)" xlink:href="#az"/></g><path fill="#333" d="M128 0H69L1-190h53L99-40l48-150h52" id="aA"/><path fill="#333" d="M25-224v-37h50v37H25zM25 0v-190h50V0H25" id="aB"/><path fill="#333" d="M190-63c-7 42-38 67-86 67-59 0-84-38-90-98-12-110 154-137 174-36l-49 2c-2-19-15-32-35-32-30 0-35 28-38 64-6 74 65 87 74 30" id="aC"/><g id="B"><use transform="matrix(0.06790123456790124,0,0,0.06790123456790124,0,0)" xlink:href="#ax"/><use transform="matrix(0.06790123456790124,0,0,0.06790123456790124,14.870370370370372,0)" xlink:href="#az"/><use transform="matrix(0.06790123456790124,0,0,0.06790123456790124,28.45061728395062,0)" xlink:href="#aA"/><use transform="matrix(0.06790123456790124,0,0,0.06790123456790124,42.03086419753087,0)" xlink:href="#aB"/><use transform="matrix(0.06790123456790124,0,0,0.06790123456790124,48.820987654320994,0)" xlink:href="#aC"/><use transform="matrix(0.06790123456790124,0,0,0.06790123456790124,62.40123456790124,0)" xlink:href="#az"/></g><path fill="#333" d="M182-130c37 4 62 22 62 59C244 23 116-4 24 0v-248c84 5 203-23 205 63 0 31-19 50-47 55zM76-148c40-3 101 13 101-30 0-44-60-28-101-31v61zm0 110c48-3 116 14 116-37 0-48-69-32-116-35v72" id="aD"/><path fill="#333" d="M135-150c-39-12-60 13-60 57V0H25l-1-190h47c2 13-1 29 3 40 6-28 27-53 61-41v41" id="aE"/><path fill="#333" d="M115-3C79 11 28 4 28-45v-112H4v-33h27l15-45h31v45h36v33H77v99c-1 23 16 31 38 25v30" id="aF"/><path fill="#333" d="M110-194c64 0 96 36 96 99 0 64-35 99-97 99-61 0-95-36-95-99 0-62 34-99 96-99zm-1 164c35 0 45-28 45-65 0-40-10-65-43-65-34 0-45 26-45 65 0 36 10 65 43 65" id="aG"/><path fill="#333" d="M135-194c87-1 58 113 63 194h-50c-7-57 23-157-34-157-59 0-34 97-39 157H25l-1-190h47c2 12-1 28 3 38 12-26 28-41 61-42" id="aH"/><path fill="#333" d="M25 0v-261h50V0H25" id="aI"/><g id="D"><use transform="matrix(0.06790123456790124,0,0,0.06790123456790124,0,0)" xlink:href="#aD"/><use transform="matrix(0.06790123456790124,0,0,0.06790123456790124,17.58641975308642,0)" xlink:href="#aB"/><use transform="matrix(0.06790123456790124,0,0,0.06790123456790124,24.376543209876544,0)" xlink:href="#ax"/><use transform="matrix(0.06790123456790124,0,0,0.06790123456790124,39.24691358024692,0)" xlink:href="#aB"/><use transform="matrix(0.06790123456790124,0,0,0.06790123456790124,46.037037037037045,0)" xlink:href="#aE"/><use transform="matrix(0.06790123456790124,0,0,0.06790123456790124,55.543209876543216,0)" xlink:href="#az"/><use transform="matrix(0.06790123456790124,0,0,0.06790123456790124,69.12345679012347,0)" xlink:href="#aC"/><use transform="matrix(0.06790123456790124,0,0,0.06790123456790124,82.70370370370371,0)" xlink:href="#aF"/><use transform="matrix(0.06790123456790124,0,0,0.06790123456790124,90.78395061728398,0)" xlink:href="#aB"/><use transform="matrix(0.06790123456790124,0,0,0.06790123456790124,97.5740740740741,0)" xlink:href="#aG"/><use transform="matrix(0.06790123456790124,0,0,0.06790123456790124,112.44444444444447,0)" xlink:href="#aH"/><use transform="matrix(0.06790123456790124,0,0,0.06790123456790124,127.31481481481484,0)" xlink:href="#az"/><use transform="matrix(0.06790123456790124,0,0,0.06790123456790124,140.8950617283951,0)" xlink:href="#aI"/><use transform="matrix(0.06790123456790124,0,0,0.06790123456790124,147.68518518518522,0)" xlink:href="#az"/></g><path fill="#333" d="M220-157c-53 9-28 100-34 157h-49v-107c1-27-5-49-29-50C55-147 81-57 75 0H25l-1-190h47c2 12-1 28 3 38 10-53 101-56 108 0 13-22 24-43 59-42 82 1 51 116 57 194h-49v-107c-1-25-5-48-29-50" id="aJ"/><path fill="#333" d="M85 4C-2 5 27-109 22-190h50c7 57-23 150 33 157 60-5 35-97 40-157h50l1 190h-47c-2-12 1-28-3-38-12 25-28 42-61 42" id="aK"/><path fill="#333" d="M133-34C117-15 103 5 69 4 32 3 11-16 11-54c-1-60 55-63 116-61 1-26-3-47-28-47-18 1-26 9-28 27l-52-2c7-38 36-58 82-57s74 22 75 68l1 82c-1 14 12 18 25 15v27c-30 8-71 5-69-32zm-48 3c29 0 43-24 42-57-32 0-66-3-65 30 0 17 8 27 23 27" id="aL"/><g id="E"><use transform="matrix(0.06790123456790124,0,0,0.06790123456790124,0,0)" xlink:href="#aC"/><use transform="matrix(0.06790123456790124,0,0,0.06790123456790124,13.580246913580249,0)" xlink:href="#aG"/><use transform="matrix(0.06790123456790124,0,0,0.06790123456790124,28.45061728395062,0)" xlink:href="#aJ"/><use transform="matrix(0.06790123456790124,0,0,0.06790123456790124,50.17901234567902,0)" xlink:href="#aJ"/><use transform="matrix(0.06790123456790124,0,0,0.06790123456790124,71.90740740740742,0)" xlink:href="#aK"/><use transform="matrix(0.06790123456790124,0,0,0.06790123456790124,86.77777777777779,0)" xlink:href="#aH"/><use transform="matrix(0.06790123456790124,0,0,0.06790123456790124,101.64814814814815,0)" xlink:href="#aB"/><use transform="matrix(0.06790123456790124,0,0,0.06790123456790124,108.43827160493828,0)" xlink:href="#aC"/><use transform="matrix(0.06790123456790124,0,0,0.06790123456790124,122.01851851851853,0)" xlink:href="#aL"/><use transform="matrix(0.06790123456790124,0,0,0.06790123456790124,135.5987654320988,0)" xlink:href="#aF"/><use transform="matrix(0.06790123456790124,0,0,0.06790123456790124,143.67901234567904,0)" xlink:href="#aB"/><use transform="matrix(0.06790123456790124,0,0,0.06790123456790124,150.46913580246917,0)" xlink:href="#az"/></g><path fill="#333" d="M238-95c0 69-44 99-111 99C63 4 22-25 22-93v-155h51v151c-1 38 19 59 55 60 90 1 49-130 58-211h52v153" id="aM"/><g id="G"><use transform="matrix(0.06790123456790124,0,0,0.06790123456790124,0,0)" xlink:href="#aM"/><use transform="matrix(0.06790123456790124,0,0,0.06790123456790124,17.58641975308642,0)" xlink:href="#aH"/><use transform="matrix(0.06790123456790124,0,0,0.06790123456790124,32.45679012345679,0)" xlink:href="#aB"/><use transform="matrix(0.06790123456790124,0,0,0.06790123456790124,39.24691358024692,0)" xlink:href="#ax"/><use transform="matrix(0.06790123456790124,0,0,0.06790123456790124,54.11728395061729,0)" xlink:href="#aB"/><use transform="matrix(0.06790123456790124,0,0,0.06790123456790124,60.90740740740742,0)" xlink:href="#aE"/><use transform="matrix(0.06790123456790124,0,0,0.06790123456790124,70.4135802469136,0)" xlink:href="#az"/><use transform="matrix(0.06790123456790124,0,0,0.06790123456790124,83.99382716049385,0)" xlink:href="#aC"/><use transform="matrix(0.06790123456790124,0,0,0.06790123456790124,97.5740740740741,0)" xlink:href="#aF"/><use transform="matrix(0.06790123456790124,0,0,0.06790123456790124,105.65432098765436,0)" xlink:href="#aB"/><use transform="matrix(0.06790123456790124,0,0,0.06790123456790124,112.44444444444449,0)" xlink:href="#aG"/><use transform="matrix(0.06790123456790124,0,0,0.06790123456790124,127.31481481481485,0)" xlink:href="#aH"/><use transform="matrix(0.06790123456790124,0,0,0.06790123456790124,142.18518518518522,0)" xlink:href="#az"/><use transform="matrix(0.06790123456790124,0,0,0.06790123456790124,155.76543209876547,0)" xlink:href="#aI"/><use transform="matrix(0.06790123456790124,0,0,0.06790123456790124,162.5555555555556,0)" xlink:href="#az"/></g><g id="H"><use transform="matrix(0.06790123456790124,0,0,0.06790123456790124,0,0)" xlink:href="#aC"/><use transform="matrix(0.06790123456790124,0,0,0.06790123456790124,13.580246913580249,0)" xlink:href="#aG"/><use transform="matrix(0.06790123456790124,0,0,0.06790123456790124,28.45061728395062,0)" xlink:href="#aJ"/><use transform="matrix(0.06790123456790124,0,0,0.06790123456790124,50.17901234567902,0)" xlink:href="#aJ"/><use transform="matrix(0.06790123456790124,0,0,0.06790123456790124,71.90740740740742,0)" xlink:href="#aK"/><use transform="matrix(0.06790123456790124,0,0,0.06790123456790124,86.77777777777779,0)" xlink:href="#aH"/><use transform="matrix(0.06790123456790124,0,0,0.06790123456790124,101.64814814814815,0)" xlink:href="#aB"/><use transform="matrix(0.06790123456790124,0,0,0.06790123456790124,108.43827160493828,0)" xlink:href="#aC"/><use transform="matrix(0.06790123456790124,0,0,0.06790123456790124,122.01851851851853,0)" xlink:href="#aL"/><use transform="matrix(0.06790123456790124,0,0,0.06790123456790124,135.5987654320988,0)" xlink:href="#aF"/><use transform="matrix(0.06790123456790124,0,0,0.06790123456790124,143.67901234567904,0)" xlink:href="#aB"/><use transform="matrix(0.06790123456790124,0,0,0.06790123456790124,150.46913580246917,0)" xlink:href="#az"/></g><g id="I"><use transform="matrix(0.06172839506172839,0,0,0.06172839506172839,0,0)" xlink:href="#R"/><use transform="matrix(0.06172839506172839,0,0,0.06172839506172839,14.814814814814813,0)" xlink:href="#S"/><use transform="matrix(0.06172839506172839,0,0,0.06172839506172839,29.629629629629626,0)" xlink:href="#J"/><use transform="matrix(0.06172839506172839,0,0,0.06172839506172839,44.44444444444444,0)" xlink:href="#ah"/></g></defs></g></svg>