0
SECTION
2
HEADER
9
$INSUNITS
70
4
0
ENDSEC
0
SECTION
2
TABLES
0
TABLE
2
LTYPE
0
LTYPE
72
65
70
64
2
CONTINUOUS
3
______
73
0
40
0
0
ENDTAB
0
TABLE
2
LAYER
0
ENDTAB
0
ENDSEC
0
SECTION
2
ENTITIES
0
LINE
8
front_outsideCutPath
10
0
20
203
11
0
21
181
0
LINE
8
front_outsideCutPath
10
0
20
181
11
6
21
181
0
LINE
8
front_outsideCutPath
10
6
20
181
11
6
21
169
0
LINE
8
front_outsideCutPath
10
6
20
169
11
0
21
169
0
LINE
8
front_outsideCutPath
10
0
20
169
11
0
21
157
0
LINE
8
front_outsideCutPath
10
0
20
157
11
6
21
157
0
LINE
8
front_outsideCutPath
10
6
20
157
11
6
21
145
0
LINE
8
front_outsideCutPath
10
6
20
145
11
0
21
145
0
LINE
8
front_outsideCutPath
10
0
20
145
11
0
21
133
0
LINE
8
front_outsideCutPath
10
0
20
133
11
6
21
133
0
LINE
8
front_outsideCutPath
10
6
20
133
11
6
21
121
0
LINE
8
front_outsideCutPath
10
6
20
121
11
0
21
121
0
LINE
8
front_outsideCutPath
10
0
20
121
11
0
21
109
0
LINE
8
front_outsideCutPath
10
0
20
109
11
6
21
109
0
LINE
8
front_outsideCutPath
10
6
20
109
11
6
21
97
0
LINE
8
front_outsideCutPath
10
6
20
97
11
0
21
97
0
LINE
8
front_outsideCutPath
10
0
20
97
11
0
21
85
0
LINE
8
front_outsideCutPath
10
0
20
85
11
6
21
85
0
LINE
8
front_outsideCutPath
10
6
20
85
11
6
21
73
0
LINE
8
front_outsideCutPath
10
6
20
73
11
0
21
73
0
LINE
8
front_outsideCutPath
10
0
20
73
11
0
21
61
0
LINE
8
front_outsideCutPath
10
0
20
61
11
6
21
61
0
LINE
8
front_outsideCutPath
10
6
20
61
11
6
21
49
0
LINE
8
front_outsideCutPath
10
6
20
49
11
0
21
49
0
LINE
8
front_outsideCutPath
10
0
20
49
11
0
21
37
0
LINE
8
front_outsideCutPath
10
0
20
37
11
6
21
37
0
LINE
8
front_outsideCutPath
10
6
20
37
11
6
21
25
0
LINE
8
front_outsideCutPath
10
6
20
25
11
0
21
25
0
LINE
8
front_outsideCutPath
10
0
20
25
11
0
21
13
0
LINE
8
front_outsideCutPath
10
0
20
13
11
0
21
3
0
LINE
8
front_outsideCutPath
10
0
20
3
11
22
21
3
0
LINE
8
front_outsideCutPath
10
22
20
3
11
22
21
9
0
LINE
8
front_outsideCutPath
10
22
20
9
11
34
21
9
0
LINE
8
front_outsideCutPath
10
34
20
9
11
34
21
3
0
LINE
8
front_outsideCutPath
10
34
20
3
11
46
21
3
0
LINE
8
front_outsideCutPath
10
46
20
3
11
46
21
9
0
LINE
8
front_outsideCutPath
10
46
20
9
11
58
21
9
0
LINE
8
front_outsideCutPath
10
58
20
9
11
58
21
3
0
LINE
8
front_outsideCutPath
10
58
20
3
11
70
21
3
0
LINE
8
front_outsideCutPath
10
70
20
3
11
70
21
9
0
LINE
8
front_outsideCutPath
10
70
20
9
11
82
21
9
0
LINE
8
front_outsideCutPath
10
82
20
9
11
82
21
3
0
LINE
8
front_outsideCutPath
10
82
20
3
11
94
21
3
0
LINE
8
front_outsideCutPath
10
94
20
3
11
94
21
9
0
LINE
8
front_outsideCutPath
10
94
20
9
11
106
21
9
0
LINE
8
front_outsideCutPath
10
106
20
9
11
106
21
3
0
LINE
8
front_outsideCutPath
10
106
20
3
11
118
21
3
0
LINE
8
front_outsideCutPath
10
118
20
3
11
118
21
9
0
LINE
8
front_outsideCutPath
10
118
20
9
11
130
21
9
0
LINE
8
front_outsideCutPath
10
130
20
9
11
130
21
3
0
LINE
8
front_outsideCutPath
10
130
20
3
11
142
21
3
0
LINE
8
front_outsideCutPath
10
142
20
3
11
142
21
9
0
LINE
8
front_outsideCutPath
10
142
20
9
11
154
21
9
0
LINE
8
front_outsideCutPath
10
154
20
9
11
154
21
3
0
LINE
8
front_outsideCutPath
10
154
20
3
11
166
21
3
0
LINE
8
front_outsideCutPath
10
166
20
3
11
166
21
9
0
LINE
8
front_outsideCutPath
10
166
20
9
11
178
21
9
0
LINE
8
front_outsideCutPath
10
178
20
9
11
178
21
3
0
LINE
8
front_outsideCutPath
10
178
20
3
11
190
21
3
0
LINE
8
front_outsideCutPath
10
190
20
3
11
200
21
3
0
LINE
8
front_outsideCutPath
10
200
20
3
11
200
21
25
0
LINE
8
front_outsideCutPath
10
200
20
25
11
194
21
25
0
LINE
8
front_outsideCutPath
10
194
20
25
11
194
21
37
0
LINE
8
front_outsideCutPath
10
194
20
37
11
200
21
37
0
LINE
8
front_outsideCutPath
10
200
20
37
11
200
21
49
0
LINE
8
front_outsideCutPath
10
200
20
49
11
194
21
49
0
LINE
8
front_outsideCutPath
10
194
20
49
11
194
21
61
0
LINE
8
front_outsideCutPath
10
194
20
61
11
200
21
61
0
LINE
8
front_outsideCutPath
10
200
20
61
11
200
21
73
0
LINE
8
front_outsideCutPath
10
200
20
73
11
194
21
73
0
LINE
8
front_outsideCutPath
10
194
20
73
11
194
21
85
0
LINE
8
front_outsideCutPath
10
194
20
85
11
200
21
85
0
LINE
8
front_outsideCutPath
10
200
20
85
11
200
21
97
0
LINE
8
front_outsideCutPath
10
200
20
97
11
194
21
97
0
LINE
8
front_outsideCutPath
10
194
20
97
11
194
21
109
0
LINE
8
front_outsideCutPath
10
194
20
109
11
200
21
109
0
LINE
8
front_outsideCutPath
10
200
20
109
11
200
21
121
0
LINE
8
front_outsideCutPath
10
200
20
121
11
194
21
121
0
LINE
8
front_outsideCutPath
10
194
20
121
11
194
21
133
0
LINE
8
front_outsideCutPath
10
194
20
133
11
200
21
133
0
LINE
8
front_outsideCutPath
10
200
20
133
11
200
21
145
0
LINE
8
front_outsideCutPath
10
200
20
145
11
194
21
145
0
LINE
8
front_outsideCutPath
10
194
20
145
11
194
21
157
0
LINE
8
front_outsideCutPath
10
194
20
157
11
200
21
157
0
LINE
8
front_outsideCutPath
10
200
20
157
11
200
21
169
0
LINE
8
front_outsideCutPath
10
200
20
169
11
194
21
169
0
LINE
8
front_outsideCutPath
10
194
20
169
11
194
21
181
0
LINE
8
front_outsideCutPath
10
194
20
181
11
200
21
181
0
LINE
8
front_outsideCutPath
10
200
20
181
11
200
21
193
0
LINE
8
front_outsideCutPath
10
200
20
193
11
200
21
203
0
LINE
8
front_outsideCutPath
10
200
20
203
11
178
21
203
0
LINE
8
front_outsideCutPath
10
178
20
203
11
178
21
197
0
LINE
8
front_outsideCutPath
10
178
20
197
11
166
21
197
0
LINE
8
front_outsideCutPath
10
166
20
197
11
166
21
203
0
LINE
8
front_outsideCutPath
10
166
20
203
11
154
21
203
0
LINE
8
front_outsideCutPath
10
154
20
203
11
154
21
197
0
LINE
8
front_outsideCutPath
10
154
20
197
11
142
21
197
0
LINE
8
front_outsideCutPath
10
142
20
197
11
142
21
203
0
LINE
8
front_outsideCutPath
10
142
20
203
11
130
21
203
0
LINE
8
front_outsideCutPath
10
130
20
203
11
130
21
197
0
LINE
8
front_outsideCutPath
10
130
20
197
11
118
21
197
0
LINE
8
front_outsideCutPath
10
118
20
197
11
118
21
203
0
LINE
8
front_outsideCutPath
10
118
20
203
11
106
21
203
0
LINE
8
front_outsideCutPath
10
106
20
203
11
106
21
197
0
LINE
8
front_outsideCutPath
10
106
20
197
11
94
21
197
0
LINE
8
front_outsideCutPath
10
94
20
197
11
94
21
203
0
LINE
8
front_outsideCutPath
10
94
20
203
11
82
21
203
0
LINE
8
front_outsideCutPath
10
82
20
203
11
82
21
197
0
LINE
8
front_outsideCutPath
10
82
20
197
11
70
21
197
0
LINE
8
front_outsideCutPath
10
70
20
197
11
70
21
203
0
LINE
8
front_outsideCutPath
10
70
20
203
11
58
21
203
0
LINE
8
front_outsideCutPath
10
58
20
203
11
58
21
197
0
LINE
8
front_outsideCutPath
10
58
20
197
11
46
21
197
0
LINE
8
front_outsideCutPath
10
46
20
197
11
46
21
203
0
LINE
8
front_outsideCutPath
10
46
20
203
11
34
21
203
0
LINE
8
front_outsideCutPath
10
34
20
203
11
34
21
197
0
LINE
8
front_outsideCutPath
10
34
20
197
11
22
21
197
0
LINE
8
front_outsideCutPath
10
22
20
197
11
22
21
203
0
LINE
8
front_outsideCutPath
10
22
20
203
11
10
21
203
0
LINE
8
front_outsideCutPath
10
10
20
203
11
0
21
203
0
LINE
8
front_labelLayer
10
66.8652344
20
109.2992516
11
66.8652344
21
106.7797204
0
LINE
8
front_labelLayer
10
66.8652344
20
106.7797204
11
61.4160156
21
106.7797204
0
LINE
8
front_labelLayer
10
61.4160156
20
106.7797204
11
61.4160156
21
87.8930016
0
LINE
8
front_labelLayer
10
61.4160156
20
87.8930016
11
58.1738281
21
87.8930016
0
LINE
8
front_labelLayer
10
58.1738281
20
87.8930016
11
58.1738281
21
106.7797204
0
LINE
8
front_labelLayer
10
58.1738281
20
106.7797204
11
54.3457031
21
106.7797204
0
LINE
8
front_labelLayer
10
54.3457031
20
106.7797204
11
54.3457031
21
108.2445641
0
LINE
8
front_labelLayer
10
54.3457031
20
108.2445641
11
58.1738281
21
109.4164391
0
LINE
8
front_labelLayer
10
58.1738281
20
109.4164391
11
58.1738281
21
110.6078454
0
LINE
8
front_labelLayer
10
69.0527344
20
117.8148766
11
68.2128906
21
115.2172204
0
LINE
8
front_labelLayer
10
61.4160156
20
110.6859704
11
61.4160156
21
109.2992516
0
LINE
8
front_labelLayer
10
61.4160156
20
109.2992516
11
66.8652344
21
109.2992516
0
ARC
8
front_labelLayer
10
71.3132852
20
110.7589035
40
13.1403254
50
167.5776017
51
180.6586733
0
ARC
8
front_labelLayer
10
65.1342687
20
112.1994918
40
6.7965188
50
141.7433808
51
168.2322134
0
ARC
8
front_labelLayer
10
64.1282029
20
112.7245831
40
5.6852843
50
98.2551506
51
139.6203365
0
ARC
8
front_labelLayer
10
65.0115467
20
108.6438694
40
9.8547647
50
89.6696884
51
99.9314295
0
ARC
8
front_labelLayer
10
65.0140092
20
108.0580109
40
10.440601
50
81.5640889
51
89.7017368
0
ARC
8
front_labelLayer
10
64.2800111
20
102.9372484
40
15.6136599
50
75.9739913
51
81.6564701
0
ARC
8
front_labelLayer
10
63.0203943
20
97.7126664
40
20.9878055
50
73.2963707
51
76.0945994
0
ARC
8
front_labelLayer
10
63.3376495
20
100.2471662
40
15.7439035
50
71.9613196
51
76.5918331
0
ARC
8
front_labelLayer
10
64.5590655
20
105.4285302
40
10.4205473
50
76.518348
51
83.0216772
0
ARC
8
front_labelLayer
10
64.9845388
20
108.8501085
40
6.9726262
50
83.0760822
51
89.7927047
0
ARC
8
front_labelLayer
10
64.9705352
20
111.4504214
40
4.3724437
50
89.4859241
51
103.4197451
0
ARC
8
front_labelLayer
10
64.5763274
20
112.9649251
40
2.8079851
50
102.7677313
51
144.3380324
0
ARC
8
front_labelLayer
10
65.3704908
20
112.4539535
40
3.7514221
50
145.0688608
51
162.1801797
0
ARC
8
front_labelLayer
10
68.0934068
20
111.5378263
40
6.624174
50
161.8437532
51
171.7846897
0
ARC
8
front_labelLayer
10
72.5345194
20
110.8707846
40
11.1150576
50
171.6527741
51
178.4383535
0
ARC
8
front_labelLayer
10
76.7231691
20
110.6921667
40
15.3071547
50
178.1972976
51
180.0231933
0
LINE
8
front_labelLayer
10
83.0957031
20
109.4555016
11
82.6464844
21
106.4476891
0
LINE
8
front_labelLayer
10
74.0136719
20
99.3773766
11
74.0136719
21
87.8930016
0
LINE
8
front_labelLayer
10
74.0136719
20
87.8930016
11
70.7714844
21
87.8930016
0
LINE
8
front_labelLayer
10
70.7714844
20
87.8930016
11
70.7714844
21
109.2992516
0
LINE
8
front_labelLayer
10
70.7714844
20
109.2992516
11
73.4472656
21
109.2992516
0
LINE
8
front_labelLayer
10
73.4472656
20
109.2992516
11
73.8183594
21
105.3344079
0
LINE
8
front_labelLayer
10
73.8183594
20
105.3344079
11
73.9746094
21
105.3344079
0
ARC
8
front_labelLayer
10
80.57039
20
94.8055885
40
14.8843253
50
84.9922828
51
90.1281106
0
ARC
8
front_labelLayer
10
80.9278409
20
98.8104007
40
10.8635998
50
78.4891881
51
85.0266001
0
ARC
8
front_labelLayer
10
79.5404561
20
92.5002468
40
14.2891063
50
77.4453714
51
81.63605
0
ARC
8
front_labelLayer
10
80.1629988
20
96.7914025
40
9.9530392
50
81.5884282
51
87.1916472
0
ARC
8
front_labelLayer
10
80.2982237
20
99.136314
40
7.6043452
50
87.3436407
51
89.9660141
0
ARC
8
front_labelLayer
10
80.266804
20
101.1230213
40
5.6177515
50
89.6335416
51
137.0880794
0
ARC
8
front_labelLayer
10
81.645518
20
99.5726192
40
7.6856705
50
135.6208956
51
138.8377027
0
ARC
8
front_labelLayer
10
81.4434781
20
99.7698311
40
7.4037775
50
138.9575692
51
174.542229
0
ARC
8
front_labelLayer
10
83.8547517
20
99.392537
40
9.8410916
50
173.6907599
51
180.088265
0
ARC
8
front_labelLayer
10
83.5138146
20
99.9600628
40
10.9489736
50
139.4139298
51
150.6032866
0
ARC
8
front_labelLayer
10
81.5506614
20
101.6422786
40
8.363665
50
124.2321539
51
139.416103
0
ARC
8
front_labelLayer
10
80.5009745
20
103.226774
40
6.4632037
50
89.6796658
51
124.4405637
0
ARC
8
front_labelLayer
10
88.8293308
20
98.5027553
40
16.7472217
50
349.1761914
51
0.3862666
0
ARC
8
front_labelLayer
10
94.4677204
20
97.378732
40
10.998156
50
330.2507055
51
349.4116437
0
ARC
8
front_labelLayer
10
96.2029282
20
96.4768411
40
9.0444529
50
318.1439772
51
329.7566141
0
ARC
8
front_labelLayer
10
96.5161163
20
96.2258519
40
8.6437358
50
278.8959152
51
317.9979127
0
ARC
8
front_labelLayer
10
95.7091657
20
100.0920299
40
12.5897728
50
269.7502922
51
279.8033185
0
ARC
8
front_labelLayer
10
95.5782948
20
97.9136683
40
10.4115691
50
253.5436902
51
270.4182498
0
ARC
8
front_labelLayer
10
95.2317187
20
96.5730211
40
9.0277851
50
238.8115622
51
253.2428275
0
ARC
8
front_labelLayer
10
95.1198624
20
96.3480761
40
8.7774509
50
207.7947035
51
238.6757932
0
ARC
8
front_labelLayer
10
96.7248312
20
97.331049
40
10.6562989
50
205.6560185
51
208.4461418
0
ARC
8
front_labelLayer
10
97.9611427
20
97.8461802
40
11.9939667
50
188.9102462
51
205.3171411
0
ARC
8
front_labelLayer
10
102.1274117
20
98.5518134
40
16.2193343
50
179.7744651
51
189.0932919
0
ARC
8
front_labelLayer
10
102.7420206
20
98.7296788
40
16.8342037
50
169.244298
51
180.388077
0
ARC
8
front_labelLayer
10
97.0252577
20
99.8596753
40
11.0070767
50
150.7111535
51
169.4695443
0
ARC
8
front_labelLayer
10
95.2002845
20
100.7968657
40
8.9572318
50
138.1759422
51
150.2287436
0
ARC
8
front_labelLayer
10
94.8967176
20
101.0298176
40
8.5757205
50
99.1759366
51
137.9832747
0
ARC
8
front_labelLayer
10
95.7322548
20
97.0976784
40
12.5923353
50
89.7326345
51
100.0759754
0
ARC
8
front_labelLayer
10
95.8992496
20
98.7958398
40
10.8945744
50
73.5222762
51
90.5692242
0
ARC
8
front_labelLayer
10
96.5381533
20
101.1171449
40
8.4875082
50
41.1445613
51
73.2133882
0
ARC
8
front_labelLayer
10
95.3185387
20
100.0689018
40
10.095653
50
13.501438
51
41.0703422
0
ARC
8
front_labelLayer
10
90.6065921
20
98.8358469
40
14.9655881
50
1.1277152
51
13.8800077
0
ARC
8
front_labelLayer
10
86.5480279
20
98.6183479
40
19.0281441
50
359.9919
51
1.5419869
0
ARC
8
front_labelLayer
10
105.6857451
20
98.5314006
40
16.4183832
50
179.7059633
51
187.9160742
0
ARC
8
front_labelLayer
10
99.6639888
20
97.666382
40
10.3349129
50
187.7639221
51
200.0976823
0
ARC
8
front_labelLayer
10
96.3466301
20
96.4508983
40
6.8018877
50
200.0845909
51
216.9131622
0
ARC
8
front_labelLayer
10
95.1352479
20
95.5859141
40
5.31394
50
217.3009524
51
261.7099121
0
ARC
8
front_labelLayer
10
95.6976143
20
98.2694693
40
8.0523242
50
260.5033178
51
270.2476713
0
ARC
8
front_labelLayer
10
95.8049523
20
97.7476409
40
7.5307698
50
269.4481634
51
284.7255676
0
ARC
8
front_labelLayer
10
96.4011192
20
95.5366507
40
5.2408817
50
284.5662286
51
322.6333842
0
ARC
8
front_labelLayer
10
95.0072547
20
96.5436568
40
6.9599955
50
323.0089188
51
342.6390535
0
ARC
8
front_labelLayer
10
91.0204944
20
97.8466454
40
11.1540646
50
342.3615698
51
353.7537633
0
ARC
8
front_labelLayer
10
85.1386926
20
98.5556194
40
17.0782096
50
353.536312
51
0.2014239
0
ARC
8
front_labelLayer
10
86.0398685
20
98.6982264
40
16.1771391
50
359.7075596
51
7.8972675
0
ARC
8
front_labelLayer
10
91.9643883
20
99.547561
40
10.1921474
50
7.7439872
51
20.0690174
0
ARC
8
front_labelLayer
10
95.2657612
20
100.7590403
40
6.6755145
50
20.0257072
51
37.4350486
0
ARC
8
front_labelLayer
10
96.3611338
20
101.5363004
40
5.3334969
50
37.9577619
51
80.4006227
0
ARC
8
front_labelLayer
10
95.7386696
20
98.7589327
40
8.1771633
50
79.3453381
51
90.3174814
0
ARC
8
front_labelLayer
10
95.6234115
20
99.2202572
40
7.7160303
50
89.4805916
51
103.880499
0
ARC
8
front_labelLayer
10
94.9750658
20
101.689157
40
5.1638235
50
103.4685193
51
142.3118911
0
ARC
8
front_labelLayer
10
96.2355068
20
100.8027259
40
6.7035612
50
142.902582
51
162.3749538
0
ARC
8
front_labelLayer
10
100.2071509
20
99.4791876
40
10.8896786
50
162.0653199
51
173.1674776
0
ARC
8
front_labelLayer
10
106.3999644
20
98.6893314
40
17.1325447
50
173.0086159
51
180.2463847
0
LINE
8
front_labelLayer
10
129.1503906
20
87.8930016
11
125.9082031
21
87.8930016
0
LINE
8
front_labelLayer
10
125.9082031
20
87.8930016
11
125.9082031
21
101.7406579
0
LINE
8
front_labelLayer
10
114.5019531
20
99.1234704
11
114.5019531
21
87.8930016
0
LINE
8
front_labelLayer
10
114.5019531
20
87.8930016
11
111.2597656
21
87.8930016
0
LINE
8
front_labelLayer
10
111.2597656
20
87.8930016
11
111.2597656
21
109.2992516
0
LINE
8
front_labelLayer
10
111.2597656
20
109.2992516
11
113.8964844
21
109.2992516
0
LINE
8
front_labelLayer
10
113.8964844
20
109.2992516
11
114.4238281
21
106.3695641
0
LINE
8
front_labelLayer
10
114.4238281
20
106.3695641
11
114.5800781
21
106.3695641
0
LINE
8
front_labelLayer
10
129.1503906
20
101.8578454
11
129.1503906
21
87.8930016
0
ARC
8
front_labelLayer
10
116.7435183
20
101.7932188
40
9.1648355
50
359.6714031
51
8.6877284
0
ARC
8
front_labelLayer
10
120.1402494
20
102.3319176
40
5.7257406
50
8.4931506
51
22.6579773
0
ARC
8
front_labelLayer
10
121.8660442
20
103.0491038
40
3.8568611
50
22.7024314
51
42.3419599
0
ARC
8
front_labelLayer
10
122.0600287
20
103.1363626
40
3.655305
50
43.3790967
51
71.5385976
0
ARC
8
front_labelLayer
10
121.3346174
20
101.1093711
40
5.8078784
50
71.0828126
51
84.3691102
0
ARC
8
front_labelLayer
10
121.0089917
20
98.3407981
40
8.5952021
50
84.0197848
51
90.1510762
0
ARC
8
front_labelLayer
10
120.9166789
20
97.1236006
40
9.8126169
50
89.5933157
51
100.3717871
0
ARC
8
front_labelLayer
10
120.2232287
20
100.7619094
40
6.1089722
50
100.1176426
51
118.1602606
0
ARC
8
front_labelLayer
10
119.524405
20
102.1322431
40
4.5711437
50
118.5439341
51
139.1926878
0
ARC
8
front_labelLayer
10
120.1337452
20
101.7233685
40
5.3003097
50
140.1519198
51
160.3146307
0
ARC
8
front_labelLayer
10
123.8133142
20
100.3451614
40
9.2292712
50
159.953448
51
171.380107
0
ARC
8
front_labelLayer
10
129.8239181
20
99.3789766
40
15.3168889
50
171.176575
51
178.3217636
0
ARC
8
front_labelLayer
10
135.2728233
20
99.1320405
40
20.770872
50
178.0810852
51
180.0236404
0
ARC
8
front_labelLayer
10
120.1263342
20
102.856936
40
6.5650219
50
116.9442905
51
147.6525624
0
ARC
8
front_labelLayer
10
120.8097842
20
101.7137845
40
7.8942969
50
115.8072059
51
117.6067343
0
ARC
8
front_labelLayer
10
121.1590105
20
100.8994709
40
8.7795195
50
94.3226687
51
115.5454382
0
ARC
8
front_labelLayer
10
121.3691517
20
99.0737211
40
10.6161585
50
89.9578954
51
94.7108841
0
ARC
8
front_labelLayer
10
121.4560019
20
96.8894119
40
12.8007088
50
80.5585325
51
90.3538235
0
ARC
8
front_labelLayer
10
122.255968
20
101.5231149
40
8.0986011
50
65.1094151
51
80.7638223
0
ARC
8
front_labelLayer
10
123.1910889
20
103.594379
40
5.8261977
50
46.5584467
51
64.8782424
0
ARC
8
front_labelLayer
10
123.2659272
20
103.8101331
40
5.6188705
50
19.3848891
51
45.5997041
0
ARC
8
front_labelLayer
10
120.0152449
20
102.5904204
40
9.0903921
50
6.9633576
51
19.8363437
0
ARC
8
front_labelLayer
10
115.0016374
20
101.9163328
40
14.1488742
50
359.7631548
51
7.211564
0
LINE
8
front_labelLayer
10
145.6542969
20
90.5687829
11
145.6542969
21
88.0883141
0
LINE
8
front_labelLayer
10
136.0449219
20
94.0453454
11
136.0449219
21
106.7797204
0
LINE
8
front_labelLayer
10
136.0449219
20
106.7797204
11
132.9785156
21
106.7797204
0
LINE
8
front_labelLayer
10
132.9785156
20
106.7797204
11
132.9785156
21
108.3422204
0
LINE
8
front_labelLayer
10
132.9785156
20
108.3422204
11
136.0449219
21
109.6898766
0
LINE
8
front_labelLayer
10
136.0449219
20
109.6898766
11
137.4121094
21
114.2601891
0
LINE
8
front_labelLayer
10
137.4121094
20
114.2601891
11
139.2871094
21
114.2601891
0
LINE
8
front_labelLayer
10
139.2871094
20
114.2601891
11
139.2871094
21
109.2992516
0
LINE
8
front_labelLayer
10
139.2871094
20
109.2992516
11
145.4980469
21
109.2992516
0
LINE
8
front_labelLayer
10
145.4980469
20
109.2992516
11
145.4980469
21
106.7797204
0
LINE
8
front_labelLayer
10
145.4980469
20
106.7797204
11
139.2871094
21
106.7797204
0
LINE
8
front_labelLayer
10
139.2871094
20
106.7797204
11
139.2871094
21
94.1820641
0
ARC
8
front_labelLayer
10
142.7468439
20
100.8259197
40
10.6477851
50
269.8803559
51
278.3028353
0
ARC
8
front_labelLayer
10
142.848382
20
99.9965848
40
9.8124991
50
278.4154494
51
279.0081024
0
ARC
8
front_labelLayer
10
141.6536525
20
107.6290229
40
17.5378705
50
278.9589396
51
280.5104777
0
ARC
8
front_labelLayer
10
142.7920877
20
101.5207061
40
11.3243749
50
280.4847583
51
282.6268276
0
ARC
8
front_labelLayer
10
143.7906742
20
97.0842965
40
6.7769723
50
282.5876383
51
285.5795268
0
ARC
8
front_labelLayer
10
144.291568
20
95.2420993
40
4.8679477
50
285.7240514
51
286.2565691
0
ARC
8
front_labelLayer
10
144.2912034
20
90.9713296
40
3.1890127
50
287.9888003
51
295.3048452
0
ARC
8
front_labelLayer
10
143.5220401
20
93.2983923
40
5.6398776
50
283.3069101
51
288.1198
0
ARC
8
front_labelLayer
10
142.709484
20
96.687794
40
9.1253075
50
280.0070079
51
283.3735352
0
ARC
8
front_labelLayer
10
142.1653686
20
99.640816
40
12.127975
50
279.1864031
51
280.114225
0
ARC
8
front_labelLayer
10
141.8321141
20
101.536243
40
14.0523194
50
275.5260139
51
279.2939672
0
ARC
8
front_labelLayer
10
142.2081562
20
97.6084011
40
10.1065206
50
270.8932467
51
275.5483935
0
ARC
8
front_labelLayer
10
142.2554025
20
95.8141289
40
8.3117522
50
270.0031492
51
270.7604201
0
ARC
8
front_labelLayer
10
142.1250271
20
95.9694835
40
8.4681176
50
253.7847919
51
270.8852537
0
ARC
8
front_labelLayer
10
141.1217805
20
92.5480317
40
4.9026264
50
190.3817674
51
253.8772384
0
ARC
8
front_labelLayer
10
146.2353073
20
93.9306397
40
10.191031
50
179.3550907
51
192.8477645
0
ARC
8
front_labelLayer
10
145.8156771
20
94.141233
40
6.5286954
50
179.6416642
51
189.7505901
0
ARC
8
front_labelLayer
10
143.5109262
20
93.7301538
40
4.1876443
50
189.5479704
51
205.7873484
0
ARC
8
front_labelLayer
10
142.5637664
20
93.2933913
40
3.1448578
50
206.1294578
51
221.4083873
0
ARC
8
front_labelLayer
10
142.4575596
20
93.212803
40
3.0119144
50
221.5949107
51
262.3505242
0
ARC
8
front_labelLayer
10
142.7101385
20
94.5116507
40
4.3335169
50
261.3266111
51
270.1913275
0
LINE
8
left_outsideCutPath
10
209
20
203
11
209
21
181
0
LINE
8
left_outsideCutPath
10
209
20
181
11
203
21
181
0
LINE
8
left_outsideCutPath
10
203
20
181
11
203
21
169
0
LINE
8
left_outsideCutPath
10
203
20
169
11
209
21
169
0
LINE
8
left_outsideCutPath
10
209
20
169
11
209
21
157
0
LINE
8
left_outsideCutPath
10
209
20
157
11
203
21
157
0
LINE
8
left_outsideCutPath
10
203
20
157
11
203
21
145
0
LINE
8
left_outsideCutPath
10
203
20
145
11
209
21
145
0
LINE
8
left_outsideCutPath
10
209
20
145
11
209
21
133
0
LINE
8
left_outsideCutPath
10
209
20
133
11
203
21
133
0
LINE
8
left_outsideCutPath
10
203
20
133
11
203
21
121
0
LINE
8
left_outsideCutPath
10
203
20
121
11
209
21
121
0
LINE
8
left_outsideCutPath
10
209
20
121
11
209
21
109
0
LINE
8
left_outsideCutPath
10
209
20
109
11
203
21
109
0
LINE
8
left_outsideCutPath
10
203
20
109
11
203
21
97
0
LINE
8
left_outsideCutPath
10
203
20
97
11
209
21
97
0
LINE
8
left_outsideCutPath
10
209
20
97
11
209
21
85
0
LINE
8
left_outsideCutPath
10
209
20
85
11
203
21
85
0
LINE
8
left_outsideCutPath
10
203
20
85
11
203
21
73
0
LINE
8
left_outsideCutPath
10
203
20
73
11
209
21
73
0
LINE
8
left_outsideCutPath
10
209
20
73
11
209
21
61
0
LINE
8
left_outsideCutPath
10
209
20
61
11
203
21
61
0
LINE
8
left_outsideCutPath
10
203
20
61
11
203
21
49
0
LINE
8
left_outsideCutPath
10
203
20
49
11
209
21
49
0
LINE
8
left_outsideCutPath
10
209
20
49
11
209
21
37
0
LINE
8
left_outsideCutPath
10
209
20
37
11
203
21
37
0
LINE
8
left_outsideCutPath
10
203
20
37
11
203
21
25
0
LINE
8
left_outsideCutPath
10
203
20
25
11
209
21
25
0
LINE
8
left_outsideCutPath
10
209
20
25
11
209
21
13
0
LINE
8
left_outsideCutPath
10
209
20
13
11
209
21
3
0
LINE
8
left_outsideCutPath
10
209
20
3
11
227
21
3
0
LINE
8
left_outsideCutPath
10
227
20
3
11
227
21
9
0
LINE
8
left_outsideCutPath
10
227
20
9
11
239
21
9
0
LINE
8
left_outsideCutPath
10
239
20
9
11
239
21
3
0
LINE
8
left_outsideCutPath
10
239
20
3
11
251
21
3
0
LINE
8
left_outsideCutPath
10
251
20
3
11
251
21
9
0
LINE
8
left_outsideCutPath
10
251
20
9
11
263
21
9
0
LINE
8
left_outsideCutPath
10
263
20
9
11
263
21
3
0
LINE
8
left_outsideCutPath
10
263
20
3
11
275
21
3
0
LINE
8
left_outsideCutPath
10
275
20
3
11
275
21
9
0
LINE
8
left_outsideCutPath
10
275
20
9
11
287
21
9
0
LINE
8
left_outsideCutPath
10
287
20
9
11
287
21
3
0
LINE
8
left_outsideCutPath
10
287
20
3
11
299
21
3
0
LINE
8
left_outsideCutPath
10
299
20
3
11
299
21
9
0
LINE
8
left_outsideCutPath
10
299
20
9
11
311
21
9
0
LINE
8
left_outsideCutPath
10
311
20
9
11
311
21
3
0
LINE
8
left_outsideCutPath
10
311
20
3
11
323
21
3
0
LINE
8
left_outsideCutPath
10
323
20
3
11
323
21
9
0
LINE
8
left_outsideCutPath
10
323
20
9
11
335
21
9
0
LINE
8
left_outsideCutPath
10
335
20
9
11
335
21
3
0
LINE
8
left_outsideCutPath
10
335
20
3
11
347
21
3
0
LINE
8
left_outsideCutPath
10
347
20
3
11
347
21
9
0
LINE
8
left_outsideCutPath
10
347
20
9
11
359
21
9
0
LINE
8
left_outsideCutPath
10
359
20
9
11
359
21
3
0
LINE
8
left_outsideCutPath
10
359
20
3
11
371
21
3
0
LINE
8
left_outsideCutPath
10
371
20
3
11
371
21
9
0
LINE
8
left_outsideCutPath
10
371
20
9
11
383
21
9
0
LINE
8
left_outsideCutPath
10
383
20
9
11
383
21
3
0
LINE
8
left_outsideCutPath
10
383
20
3
11
395
21
3
0
LINE
8
left_outsideCutPath
10
395
20
3
11
395
21
9
0
LINE
8
left_outsideCutPath
10
395
20
9
11
407
21
9
0
LINE
8
left_outsideCutPath
10
407
20
9
11
407
21
3
0
LINE
8
left_outsideCutPath
10
407
20
3
11
419
21
3
0
LINE
8
left_outsideCutPath
10
419
20
3
11
419
21
9
0
LINE
8
left_outsideCutPath
10
419
20
9
11
431
21
9
0
LINE
8
left_outsideCutPath
10
431
20
9
11
431
21
3
0
LINE
8
left_outsideCutPath
10
431
20
3
11
443
21
3
0
LINE
8
left_outsideCutPath
10
443
20
3
11
443
21
9
0
LINE
8
left_outsideCutPath
10
443
20
9
11
455
21
9
0
LINE
8
left_outsideCutPath
10
455
20
9
11
455
21
3
0
LINE
8
left_outsideCutPath
10
455
20
3
11
467
21
3
0
LINE
8
left_outsideCutPath
10
467
20
3
11
467
21
9
0
LINE
8
left_outsideCutPath
10
467
20
9
11
479
21
9
0
LINE
8
left_outsideCutPath
10
479
20
9
11
479
21
3
0
LINE
8
left_outsideCutPath
10
479
20
3
11
491
21
3
0
LINE
8
left_outsideCutPath
10
491
20
3
11
497
21
3
0
LINE
8
left_outsideCutPath
10
497
20
3
11
497
21
25
0
LINE
8
left_outsideCutPath
10
497
20
25
11
503
21
25
0
LINE
8
left_outsideCutPath
10
503
20
25
11
503
21
37
0
LINE
8
left_outsideCutPath
10
503
20
37
11
497
21
37
0
LINE
8
left_outsideCutPath
10
497
20
37
11
497
21
49
0
LINE
8
left_outsideCutPath
10
497
20
49
11
503
21
49
0
LINE
8
left_outsideCutPath
10
503
20
49
11
503
21
61
0
LINE
8
left_outsideCutPath
10
503
20
61
11
497
21
61
0
LINE
8
left_outsideCutPath
10
497
20
61
11
497
21
73
0
LINE
8
left_outsideCutPath
10
497
20
73
11
503
21
73
0
LINE
8
left_outsideCutPath
10
503
20
73
11
503
21
85
0
LINE
8
left_outsideCutPath
10
503
20
85
11
497
21
85
0
LINE
8
left_outsideCutPath
10
497
20
85
11
497
21
97
0
LINE
8
left_outsideCutPath
10
497
20
97
11
503
21
97
0
LINE
8
left_outsideCutPath
10
503
20
97
11
503
21
109
0
LINE
8
left_outsideCutPath
10
503
20
109
11
497
21
109
0
LINE
8
left_outsideCutPath
10
497
20
109
11
497
21
121
0
LINE
8
left_outsideCutPath
10
497
20
121
11
503
21
121
0
LINE
8
left_outsideCutPath
10
503
20
121
11
503
21
133
0
LINE
8
left_outsideCutPath
10
503
20
133
11
497
21
133
0
LINE
8
left_outsideCutPath
10
497
20
133
11
497
21
145
0
LINE
8
left_outsideCutPath
10
497
20
145
11
503
21
145
0
LINE
8
left_outsideCutPath
10
503
20
145
11
503
21
157
0
LINE
8
left_outsideCutPath
10
503
20
157
11
497
21
157
0
LINE
8
left_outsideCutPath
10
497
20
157
11
497
21
169
0
LINE
8
left_outsideCutPath
10
497
20
169
11
503
21
169
0
LINE
8
left_outsideCutPath
10
503
20
169
11
503
21
181
0
LINE
8
left_outsideCutPath
10
503
20
181
11
497
21
181
0
LINE
8
left_outsideCutPath
10
497
20
181
11
497
21
193
0
LINE
8
left_outsideCutPath
10
497
20
193
11
497
21
203
0
LINE
8
left_outsideCutPath
10
497
20
203
11
479
21
203
0
LINE
8
left_outsideCutPath
10
479
20
203
11
479
21
197
0
LINE
8
left_outsideCutPath
10
479
20
197
11
467
21
197
0
LINE
8
left_outsideCutPath
10
467
20
197
11
467
21
203
0
LINE
8
left_outsideCutPath
10
467
20
203
11
455
21
203
0
LINE
8
left_outsideCutPath
10
455
20
203
11
455
21
197
0
LINE
8
left_outsideCutPath
10
455
20
197
11
443
21
197
0
LINE
8
left_outsideCutPath
10
443
20
197
11
443
21
203
0
LINE
8
left_outsideCutPath
10
443
20
203
11
431
21
203
0
LINE
8
left_outsideCutPath
10
431
20
203
11
431
21
197
0
LINE
8
left_outsideCutPath
10
431
20
197
11
419
21
197
0
LINE
8
left_outsideCutPath
10
419
20
197
11
419
21
203
0
LINE
8
left_outsideCutPath
10
419
20
203
11
407
21
203
0
LINE
8
left_outsideCutPath
10
407
20
203
11
407
21
197
0
LINE
8
left_outsideCutPath
10
407
20
197
11
395
21
197
0
LINE
8
left_outsideCutPath
10
395
20
197
11
395
21
203
0
LINE
8
left_outsideCutPath
10
395
20
203
11
383
21
203
0
LINE
8
left_outsideCutPath
10
383
20
203
11
383
21
197
0
LINE
8
left_outsideCutPath
10
383
20
197
11
371
21
197
0
LINE
8
left_outsideCutPath
10
371
20
197
11
371
21
203
0
LINE
8
left_outsideCutPath
10
371
20
203
11
359
21
203
0
LINE
8
left_outsideCutPath
10
359
20
203
11
359
21
197
0
LINE
8
left_outsideCutPath
10
359
20
197
11
347
21
197
0
LINE
8
left_outsideCutPath
10
347
20
197
11
347
21
203
0
LINE
8
left_outsideCutPath
10
347
20
203
11
335
21
203
0
LINE
8
left_outsideCutPath
10
335
20
203
11
335
21
197
0
LINE
8
left_outsideCutPath
10
335
20
197
11
323
21
197
0
LINE
8
left_outsideCutPath
10
323
20
197
11
323
21
203
0
LINE
8
left_outsideCutPath
10
323
20
203
11
311
21
203
0
LINE
8
left_outsideCutPath
10
311
20
203
11
311
21
197
0
LINE
8
left_outsideCutPath
10
311
20
197
11
299
21
197
0
LINE
8
left_outsideCutPath
10
299
20
197
11
299
21
203
0
LINE
8
left_outsideCutPath
10
299
20
203
11
287
21
203
0
LINE
8
left_outsideCutPath
10
287
20
203
11
287
21
197
0
LINE
8
left_outsideCutPath
10
287
20
197
11
275
21
197
0
LINE
8
left_outsideCutPath
10
275
20
197
11
275
21
203
0
LINE
8
left_outsideCutPath
10
275
20
203
11
263
21
203
0
LINE
8
left_outsideCutPath
10
263
20
203
11
263
21
197
0
LINE
8
left_outsideCutPath
10
263
20
197
11
251
21
197
0
LINE
8
left_outsideCutPath
10
251
20
197
11
251
21
203
0
LINE
8
left_outsideCutPath
10
251
20
203
11
239
21
203
0
LINE
8
left_outsideCutPath
10
239
20
203
11
239
21
197
0
LINE
8
left_outsideCutPath
10
239
20
197
11
227
21
197
0
LINE
8
left_outsideCutPath
10
227
20
197
11
227
21
203
0
LINE
8
left_outsideCutPath
10
227
20
203
11
215
21
203
0
LINE
8
left_outsideCutPath
10
215
20
203
11
209
21
203
0
LINE
8
left_labelLayer
10
328.2636719
20
118.2836266
11
328.2636719
21
87.8930016
0
LINE
8
left_labelLayer
10
328.2636719
20
87.8930016
11
325.0214844
21
87.8930016
0
LINE
8
left_labelLayer
10
325.0214844
20
87.8930016
11
325.0214844
21
118.2836266
0
LINE
8
left_labelLayer
10
325.0214844
20
118.2836266
11
328.2636719
21
118.2836266
0
LINE
8
left_labelLayer
10
352.0527344
20
100.0609704
11
352.0527344
21
98.0101891
0
LINE
8
left_labelLayer
10
352.0527344
20
98.0101891
11
337.3066406
21
98.0101891
0
LINE
8
left_labelLayer
10
351.1347656
20
91.7797204
11
351.1347656
21
88.8890954
0
LINE
8
left_labelLayer
10
337.3847656
20
100.6469079
11
348.5761719
21
100.6469079
0
ARC
8
left_labelLayer
10
344.0750347
20
100.1009133
40
12.5989877
50
256.0087878
51
270.4848119
0
ARC
8
left_labelLayer
10
343.1575801
20
96.5391695
40
8.9211425
50
223.5465776
51
256.1956989
0
ARC
8
left_labelLayer
10
343.6636953
20
96.9070211
40
9.5417642
50
194.0877239
51
223.0538179
0
ARC
8
left_labelLayer
10
348.3011131
20
98.1751847
40
14.3487453
50
181.3574597
51
194.4919938
0
ARC
8
left_labelLayer
10
352.4666737
20
98.416691
40
18.5194083
50
179.9886941
51
181.7991281
0
ARC
8
left_labelLayer
10
350.9715446
20
98.5345464
40
17.0246621
50
168.9539291
51
180.3843417
0
ARC
8
left_labelLayer
10
345.4113697
20
99.6666915
40
11.3506736
50
149.4071053
51
169.1853737
0
ARC
8
left_labelLayer
10
343.8621868
20
100.4852141
40
9.6009205
50
140.1055959
51
148.9067371
0
ARC
8
left_labelLayer
10
342.910456
20
101.3626704
40
8.3081851
50
92.4762648
51
140.5386382
0
ARC
8
left_labelLayer
10
343.3345586
20
98.2285391
40
11.4613398
50
89.9638154
51
93.9176162
0
ARC
8
left_labelLayer
10
343.4357548
20
99.8126249
40
9.8776986
50
74.2125869
51
90.5450129
0
ARC
8
left_labelLayer
10
344.0544236
20
102.0920703
40
7.5159593
50
41.2064713
51
74.0232655
0
ARC
8
left_labelLayer
10
342.8827821
20
101.0781014
40
9.0654141
50
11.5994222
51
41.149604
0
ARC
8
left_labelLayer
10
338.8570644
20
100.1496915
40
13.1959682
50
359.6147776
51
12.0336443
0
ARC
8
left_labelLayer
10
350.3169807
20
98.2701557
40
13.0129371
50
181.1447052
51
190.8007122
0
ARC
8
left_labelLayer
10
345.7261614
20
97.3647154
40
8.3338218
50
190.6005744
51
206.0275315
0
ARC
8
left_labelLayer
10
343.6950223
20
96.4044809
40
6.0873867
50
206.2950205
51
222.5558025
0
ARC
8
left_labelLayer
10
343.51505
20
96.3102529
40
5.8913209
50
223.0645137
51
258.1401318
0
ARC
8
left_labelLayer
10
344.2315352
20
99.2604625
40
8.9263081
50
257.5311918
51
270.4319406
0
ARC
8
left_labelLayer
10
344.2395325
20
107.4580884
40
17.1237832
50
270.198402
51
292.2090383
0
ARC
8
left_labelLayer
10
343.4168793
20
109.8204986
40
19.6223201
50
291.8255361
51
293.1613501
0
ARC
8
left_labelLayer
10
343.3778398
20
106.7405959
40
19.4639659
50
287.9022934
51
293.4861579
0
ARC
8
left_labelLayer
10
344.7897685
20
102.3842888
40
14.8845634
50
281.9935823
51
287.8851242
0
ARC
8
left_labelLayer
10
345.131965
20
101.1543877
40
13.610631
50
275.9054489
51
281.6603855
0
ARC
8
left_labelLayer
10
344.4469488
20
107.5483083
40
20.0411124
50
271.911956
51
275.9727153
0
ARC
8
left_labelLayer
10
344.1968859
20
113.9175573
40
26.4151851
50
269.9669322
51
271.9931256
0
ARC
8
left_labelLayer
10
343.2405179
20
100.5842361
40
6.3910996
50
89.4422245
51
106.2089709
0
ARC
8
left_labelLayer
10
342.8560251
20
101.986157
40
4.9376269
50
106.4657091
51
137.9176401
0
ARC
8
left_labelLayer
10
343.9583847
20
101.0181012
40
6.4046
50
138.0994736
51
160.5866327
0
ARC
8
left_labelLayer
10
346.7919952
20
99.9756623
40
9.4236838
50
160.3353322
51
172.5315217
0
ARC
8
left_labelLayer
10
349.5822994
20
99.5285868
40
12.2486928
50
172.1545096
51
174.7615277
0
ARC
8
left_labelLayer
10
337.5281176
20
100.7096694
40
11.0482325
50
359.6745192
51
8.922446
0
ARC
8
left_labelLayer
10
341.4759156
20
101.3529013
40
7.0484805
50
8.7342225
51
23.2772018
0
ARC
8
left_labelLayer
10
343.3500798
20
102.1396284
40
5.0159997
50
23.4821445
51
39.7072135
0
ARC
8
left_labelLayer
10
343.8104387
20
102.4841269
40
4.4418441
50
40.0822937
51
80.6243192
0
ARC
8
left_labelLayer
10
343.3365775
20
100.3119465
40
6.6631721
50
79.646861
51
90.2910143
0
LINE
8
left_labelLayer
10
367.2285156
20
109.2992516
11
367.2285156
21
106.7797204
0
LINE
8
left_labelLayer
10
367.2285156
20
106.7797204
11
361.7792969
21
106.7797204
0
LINE
8
left_labelLayer
10
361.7792969
20
106.7797204
11
361.7792969
21
87.8930016
0
LINE
8
left_labelLayer
10
361.7792969
20
87.8930016
11
358.5371094
21
87.8930016
0
LINE
8
left_labelLayer
10
358.5371094
20
87.8930016
11
358.5371094
21
106.7797204
0
LINE
8
left_labelLayer
10
358.5371094
20
106.7797204
11
354.7089844
21
106.7797204
0
LINE
8
left_labelLayer
10
354.7089844
20
106.7797204
11
354.7089844
21
108.2445641
0
LINE
8
left_labelLayer
10
354.7089844
20
108.2445641
11
358.5371094
21
109.4164391
0
LINE
8
left_labelLayer
10
358.5371094
20
109.4164391
11
358.5371094
21
110.6078454
0
LINE
8
left_labelLayer
10
369.4160156
20
117.8148766
11
368.5761719
21
115.2172204
0
LINE
8
left_labelLayer
10
361.7792969
20
110.6859704
11
361.7792969
21
109.2992516
0
LINE
8
left_labelLayer
10
361.7792969
20
109.2992516
11
367.2285156
21
109.2992516
0
ARC
8
left_labelLayer
10
371.6765665
20
110.7589035
40
13.1403254
50
167.5776017
51
180.6586733
0
ARC
8
left_labelLayer
10
365.4975499
20
112.1994918
40
6.7965188
50
141.7433808
51
168.2322134
0
ARC
8
left_labelLayer
10
364.4914842
20
112.7245831
40
5.6852843
50
98.2551506
51
139.6203365
0
ARC
8
left_labelLayer
10
365.3748279
20
108.6438694
40
9.8547647
50
89.6696884
51
99.9314295
0
ARC
8
left_labelLayer
10
365.3772905
20
108.0580109
40
10.440601
50
81.5640889
51
89.7017368
0
ARC
8
left_labelLayer
10
364.6432924
20
102.9372484
40
15.6136599
50
75.9739913
51
81.6564701
0
ARC
8
left_labelLayer
10
363.3836755
20
97.7126664
40
20.9878055
50
73.2963707
51
76.0945994
0
ARC
8
left_labelLayer
10
363.7009307
20
100.2471662
40
15.7439035
50
71.9613196
51
76.5918331
0
ARC
8
left_labelLayer
10
364.9223468
20
105.4285302
40
10.4205473
50
76.518348
51
83.0216772
0
ARC
8
left_labelLayer
10
365.3478201
20
108.8501085
40
6.9726262
50
83.0760822
51
89.7927047
0
ARC
8
left_labelLayer
10
365.3338164
20
111.4504214
40
4.3724437
50
89.4859241
51
103.4197451
0
ARC
8
left_labelLayer
10
364.9396086
20
112.9649251
40
2.8079851
50
102.7677313
51
144.3380324
0
ARC
8
left_labelLayer
10
365.733772
20
112.4539535
40
3.7514221
50
145.0688608
51
162.1801797
0
ARC
8
left_labelLayer
10
368.456688
20
111.5378263
40
6.624174
50
161.8437532
51
171.7846897
0
ARC
8
left_labelLayer
10
372.8978007
20
110.8707846
40
11.1150576
50
171.6527741
51
178.4383535
0
ARC
8
left_labelLayer
10
377.0864503
20
110.6921667
40
15.3071547
50
178.1972976
51
180.0231933
0
LINE
8
left_labelLayer
10
380.9785156
20
90.5687829
11
380.9785156
21
88.0883141
0
LINE
8
left_labelLayer
10
371.3691406
20
94.0453454
11
371.3691406
21
106.7797204
0
LINE
8
left_labelLayer
10
371.3691406
20
106.7797204
11
368.3027344
21
106.7797204
0
LINE
8
left_labelLayer
10
368.3027344
20
106.7797204
11
368.3027344
21
108.3422204
0
LINE
8
left_labelLayer
10
368.3027344
20
108.3422204
11
371.3691406
21
109.6898766
0
LINE
8
left_labelLayer
10
371.3691406
20
109.6898766
11
372.7363281
21
114.2601891
0
LINE
8
left_labelLayer
10
372.7363281
20
114.2601891
11
374.6113281
21
114.2601891
0
LINE
8
left_labelLayer
10
374.6113281
20
114.2601891
11
374.6113281
21
109.2992516
0
LINE
8
left_labelLayer
10
374.6113281
20
109.2992516
11
380.8222656
21
109.2992516
0
LINE
8
left_labelLayer
10
380.8222656
20
109.2992516
11
380.8222656
21
106.7797204
0
LINE
8
left_labelLayer
10
380.8222656
20
106.7797204
11
374.6113281
21
106.7797204
0
LINE
8
left_labelLayer
10
374.6113281
20
106.7797204
11
374.6113281
21
94.1820641
0
ARC
8
left_labelLayer
10
378.0710626
20
100.8259197
40
10.6477851
50
269.8803559
51
278.3028353
0
ARC
8
left_labelLayer
10
378.1726008
20
99.9965848
40
9.8124991
50
278.4154494
51
279.0081024
0
ARC
8
left_labelLayer
10
376.9778713
20
107.6290229
40
17.5378705
50
278.9589396
51
280.5104777
0
ARC
8
left_labelLayer
10
378.1163064
20
101.5207061
40
11.3243749
50
280.4847583
51
282.6268276
0
ARC
8
left_labelLayer
10
379.1148929
20
97.0842965
40
6.7769723
50
282.5876383
51
285.5795268
0
ARC
8
left_labelLayer
10
379.6157867
20
95.2420993
40
4.8679477
50
285.7240514
51
286.2565691
0
ARC
8
left_labelLayer
10
379.6154221
20
90.9713296
40
3.1890127
50
287.9888003
51
295.3048452
0
ARC
8
left_labelLayer
10
378.8462589
20
93.2983923
40
5.6398776
50
283.3069101
51
288.1198
0
ARC
8
left_labelLayer
10
378.0337027
20
96.687794
40
9.1253075
50
280.0070079
51
283.3735352
0
ARC
8
left_labelLayer
10
377.4895873
20
99.640816
40
12.127975
50
279.1864031
51
280.114225
0
ARC
8
left_labelLayer
10
377.1563329
20
101.536243
40
14.0523194
50
275.5260139
51
279.2939672
0
ARC
8
left_labelLayer
10
377.532375
20
97.6084011
40
10.1065206
50
270.8932467
51
275.5483935
0
ARC
8
left_labelLayer
10
377.5796213
20
95.8141289
40
8.3117522
50
270.0031492
51
270.7604201
0
ARC
8
left_labelLayer
10
377.4492459
20
95.9694835
40
8.4681176
50
253.7847919
51
270.8852537
0
ARC
8
left_labelLayer
10
376.4459993
20
92.5480317
40
4.9026264
50
190.3817674
51
253.8772384
0
ARC
8
left_labelLayer
10
381.5595261
20
93.9306397
40
10.191031
50
179.3550907
51
192.8477645
0
ARC
8
left_labelLayer
10
381.1398958
20
94.141233
40
6.5286954
50
179.6416642
51
189.7505901
0
ARC
8
left_labelLayer
10
378.8351449
20
93.7301538
40
4.1876443
50
189.5479704
51
205.7873484
0
ARC
8
left_labelLayer
10
377.8879851
20
93.2933913
40
3.1448578
50
206.1294578
51
221.4083873
0
ARC
8
left_labelLayer
10
377.7817783
20
93.212803
40
3.0119144
50
221.5949107
51
262.3505242
0
ARC
8
left_labelLayer
10
378.0343572
20
94.5116507
40
4.3335169
50
261.3266111
51
270.1913275
0
LINE
8
top_outsideCutPath
10
512
20
297
11
512
21
279
0
LINE
8
top_outsideCutPath
10
512
20
279
11
506
21
279
0
LINE
8
top_outsideCutPath
10
506
20
279
11
506
21
267
0
LINE
8
top_outsideCutPath
10
506
20
267
11
512
21
267
0
LINE
8
top_outsideCutPath
10
512
20
267
11
512
21
255
0
LINE
8
top_outsideCutPath
10
512
20
255
11
506
21
255
0
LINE
8
top_outsideCutPath
10
506
20
255
11
506
21
243
0
LINE
8
top_outsideCutPath
10
506
20
243
11
512
21
243
0
LINE
8
top_outsideCutPath
10
512
20
243
11
512
21
231
0
LINE
8
top_outsideCutPath
10
512
20
231
11
506
21
231
0
LINE
8
top_outsideCutPath
10
506
20
231
11
506
21
219
0
LINE
8
top_outsideCutPath
10
506
20
219
11
512
21
219
0
LINE
8
top_outsideCutPath
10
512
20
219
11
512
21
207
0
LINE
8
top_outsideCutPath
10
512
20
207
11
506
21
207
0
LINE
8
top_outsideCutPath
10
506
20
207
11
506
21
195
0
LINE
8
top_outsideCutPath
10
506
20
195
11
512
21
195
0
LINE
8
top_outsideCutPath
10
512
20
195
11
512
21
183
0
LINE
8
top_outsideCutPath
10
512
20
183
11
506
21
183
0
LINE
8
top_outsideCutPath
10
506
20
183
11
506
21
171
0
LINE
8
top_outsideCutPath
10
506
20
171
11
512
21
171
0
LINE
8
top_outsideCutPath
10
512
20
171
11
512
21
159
0
LINE
8
top_outsideCutPath
10
512
20
159
11
506
21
159
0
LINE
8
top_outsideCutPath
10
506
20
159
11
506
21
147
0
LINE
8
top_outsideCutPath
10
506
20
147
11
512
21
147
0
LINE
8
top_outsideCutPath
10
512
20
147
11
512
21
135
0
LINE
8
top_outsideCutPath
10
512
20
135
11
506
21
135
0
LINE
8
top_outsideCutPath
10
506
20
135
11
506
21
123
0
LINE
8
top_outsideCutPath
10
506
20
123
11
512
21
123
0
LINE
8
top_outsideCutPath
10
512
20
123
11
512
21
111
0
LINE
8
top_outsideCutPath
10
512
20
111
11
506
21
111
0
LINE
8
top_outsideCutPath
10
506
20
111
11
506
21
99
0
LINE
8
top_outsideCutPath
10
506
20
99
11
512
21
99
0
LINE
8
top_outsideCutPath
10
512
20
99
11
512
21
87
0
LINE
8
top_outsideCutPath
10
512
20
87
11
506
21
87
0
LINE
8
top_outsideCutPath
10
506
20
87
11
506
21
75
0
LINE
8
top_outsideCutPath
10
506
20
75
11
512
21
75
0
LINE
8
top_outsideCutPath
10
512
20
75
11
512
21
63
0
LINE
8
top_outsideCutPath
10
512
20
63
11
506
21
63
0
LINE
8
top_outsideCutPath
10
506
20
63
11
506
21
51
0
LINE
8
top_outsideCutPath
10
506
20
51
11
512
21
51
0
LINE
8
top_outsideCutPath
10
512
20
51
11
512
21
39
0
LINE
8
top_outsideCutPath
10
512
20
39
11
506
21
39
0
LINE
8
top_outsideCutPath
10
506
20
39
11
506
21
27
0
LINE
8
top_outsideCutPath
10
506
20
27
11
512
21
27
0
LINE
8
top_outsideCutPath
10
512
20
27
11
512
21
15
0
LINE
8
top_outsideCutPath
10
512
20
15
11
512
21
9
0
LINE
8
top_outsideCutPath
10
512
20
9
11
528
21
9
0
LINE
8
top_outsideCutPath
10
528
20
9
11
528
21
3
0
LINE
8
top_outsideCutPath
10
528
20
3
11
540
21
3
0
LINE
8
top_outsideCutPath
10
540
20
3
11
540
21
9
0
LINE
8
top_outsideCutPath
10
540
20
9
11
552
21
9
0
LINE
8
top_outsideCutPath
10
552
20
9
11
552
21
3
0
LINE
8
top_outsideCutPath
10
552
20
3
11
564
21
3
0
LINE
8
top_outsideCutPath
10
564
20
3
11
564
21
9
0
LINE
8
top_outsideCutPath
10
564
20
9
11
576
21
9
0
LINE
8
top_outsideCutPath
10
576
20
9
11
576
21
3
0
LINE
8
top_outsideCutPath
10
576
20
3
11
588
21
3
0
LINE
8
top_outsideCutPath
10
588
20
3
11
588
21
9
0
LINE
8
top_outsideCutPath
10
588
20
9
11
600
21
9
0
LINE
8
top_outsideCutPath
10
600
20
9
11
600
21
3
0
LINE
8
top_outsideCutPath
10
600
20
3
11
612
21
3
0
LINE
8
top_outsideCutPath
10
612
20
3
11
612
21
9
0
LINE
8
top_outsideCutPath
10
612
20
9
11
624
21
9
0
LINE
8
top_outsideCutPath
10
624
20
9
11
624
21
3
0
LINE
8
top_outsideCutPath
10
624
20
3
11
636
21
3
0
LINE
8
top_outsideCutPath
10
636
20
3
11
636
21
9
0
LINE
8
top_outsideCutPath
10
636
20
9
11
648
21
9
0
LINE
8
top_outsideCutPath
10
648
20
9
11
648
21
3
0
LINE
8
top_outsideCutPath
10
648
20
3
11
660
21
3
0
LINE
8
top_outsideCutPath
10
660
20
3
11
660
21
9
0
LINE
8
top_outsideCutPath
10
660
20
9
11
672
21
9
0
LINE
8
top_outsideCutPath
10
672
20
9
11
672
21
3
0
LINE
8
top_outsideCutPath
10
672
20
3
11
684
21
3
0
LINE
8
top_outsideCutPath
10
684
20
3
11
684
21
9
0
LINE
8
top_outsideCutPath
10
684
20
9
11
696
21
9
0
LINE
8
top_outsideCutPath
10
696
20
9
11
700
21
9
0
LINE
8
top_outsideCutPath
10
700
20
9
11
700
21
27
0
LINE
8
top_outsideCutPath
10
700
20
27
11
706
21
27
0
LINE
8
top_outsideCutPath
10
706
20
27
11
706
21
39
0
LINE
8
top_outsideCutPath
10
706
20
39
11
700
21
39
0
LINE
8
top_outsideCutPath
10
700
20
39
11
700
21
51
0
LINE
8
top_outsideCutPath
10
700
20
51
11
706
21
51
0
LINE
8
top_outsideCutPath
10
706
20
51
11
706
21
63
0
LINE
8
top_outsideCutPath
10
706
20
63
11
700
21
63
0
LINE
8
top_outsideCutPath
10
700
20
63
11
700
21
75
0
LINE
8
top_outsideCutPath
10
700
20
75
11
706
21
75
0
LINE
8
top_outsideCutPath
10
706
20
75
11
706
21
87
0
LINE
8
top_outsideCutPath
10
706
20
87
11
700
21
87
0
LINE
8
top_outsideCutPath
10
700
20
87
11
700
21
99
0
LINE
8
top_outsideCutPath
10
700
20
99
11
706
21
99
0
LINE
8
top_outsideCutPath
10
706
20
99
11
706
21
111
0
LINE
8
top_outsideCutPath
10
706
20
111
11
700
21
111
0
LINE
8
top_outsideCutPath
10
700
20
111
11
700
21
123
0
LINE
8
top_outsideCutPath
10
700
20
123
11
706
21
123
0
LINE
8
top_outsideCutPath
10
706
20
123
11
706
21
135
0
LINE
8
top_outsideCutPath
10
706
20
135
11
700
21
135
0
LINE
8
top_outsideCutPath
10
700
20
135
11
700
21
147
0
LINE
8
top_outsideCutPath
10
700
20
147
11
706
21
147
0
LINE
8
top_outsideCutPath
10
706
20
147
11
706
21
159
0
LINE
8
top_outsideCutPath
10
706
20
159
11
700
21
159
0
LINE
8
top_outsideCutPath
10
700
20
159
11
700
21
171
0
LINE
8
top_outsideCutPath
10
700
20
171
11
706
21
171
0
LINE
8
top_outsideCutPath
10
706
20
171
11
706
21
183
0
LINE
8
top_outsideCutPath
10
706
20
183
11
700
21
183
0
LINE
8
top_outsideCutPath
10
700
20
183
11
700
21
195
0
LINE
8
top_outsideCutPath
10
700
20
195
11
706
21
195
0
LINE
8
top_outsideCutPath
10
706
20
195
11
706
21
207
0
LINE
8
top_outsideCutPath
10
706
20
207
11
700
21
207
0
LINE
8
top_outsideCutPath
10
700
20
207
11
700
21
219
0
LINE
8
top_outsideCutPath
10
700
20
219
11
706
21
219
0
LINE
8
top_outsideCutPath
10
706
20
219
11
706
21
231
0
LINE
8
top_outsideCutPath
10
706
20
231
11
700
21
231
0
LINE
8
top_outsideCutPath
10
700
20
231
11
700
21
243
0
LINE
8
top_outsideCutPath
10
700
20
243
11
706
21
243
0
LINE
8
top_outsideCutPath
10
706
20
243
11
706
21
255
0
LINE
8
top_outsideCutPath
10
706
20
255
11
700
21
255
0
LINE
8
top_outsideCutPath
10
700
20
255
11
700
21
267
0
LINE
8
top_outsideCutPath
10
700
20
267
11
706
21
267
0
LINE
8
top_outsideCutPath
10
706
20
267
11
706
21
279
0
LINE
8
top_outsideCutPath
10
706
20
279
11
700
21
279
0
LINE
8
top_outsideCutPath
10
700
20
279
11
700
21
291
0
LINE
8
top_outsideCutPath
10
700
20
291
11
700
21
297
0
LINE
8
top_outsideCutPath
10
700
20
297
11
684
21
297
0
LINE
8
top_outsideCutPath
10
684
20
297
11
684
21
303
0
LINE
8
top_outsideCutPath
10
684
20
303
11
672
21
303
0
LINE
8
top_outsideCutPath
10
672
20
303
11
672
21
297
0
LINE
8
top_outsideCutPath
10
672
20
297
11
660
21
297
0
LINE
8
top_outsideCutPath
10
660
20
297
11
660
21
303
0
LINE
8
top_outsideCutPath
10
660
20
303
11
648
21
303
0
LINE
8
top_outsideCutPath
10
648
20
303
11
648
21
297
0
LINE
8
top_outsideCutPath
10
648
20
297
11
636
21
297
0
LINE
8
top_outsideCutPath
10
636
20
297
11
636
21
303
0
LINE
8
top_outsideCutPath
10
636
20
303
11
624
21
303
0
LINE
8
top_outsideCutPath
10
624
20
303
11
624
21
297
0
LINE
8
top_outsideCutPath
10
624
20
297
11
612
21
297
0
LINE
8
top_outsideCutPath
10
612
20
297
11
612
21
303
0
LINE
8
top_outsideCutPath
10
612
20
303
11
600
21
303
0
LINE
8
top_outsideCutPath
10
600
20
303
11
600
21
297
0
LINE
8
top_outsideCutPath
10
600
20
297
11
588
21
297
0
LINE
8
top_outsideCutPath
10
588
20
297
11
588
21
303
0
LINE
8
top_outsideCutPath
10
588
20
303
11
576
21
303
0
LINE
8
top_outsideCutPath
10
576
20
303
11
576
21
297
0
LINE
8
top_outsideCutPath
10
576
20
297
11
564
21
297
0
LINE
8
top_outsideCutPath
10
564
20
297
11
564
21
303
0
LINE
8
top_outsideCutPath
10
564
20
303
11
552
21
303
0
LINE
8
top_outsideCutPath
10
552
20
303
11
552
21
297
0
LINE
8
top_outsideCutPath
10
552
20
297
11
540
21
297
0
LINE
8
top_outsideCutPath
10
540
20
297
11
540
21
303
0
LINE
8
top_outsideCutPath
10
540
20
303
11
528
21
303
0
LINE
8
top_outsideCutPath
10
528
20
303
11
528
21
297
0
LINE
8
top_outsideCutPath
10
528
20
297
11
516
21
297
0
LINE
8
top_outsideCutPath
10
516
20
297
11
512
21
297
0
LINE
8
top_labelLayer
10
588.6951471
20
147.296875
11
588.6951471
21
144.8164063
0
LINE
8
top_labelLayer
10
579.0857721
20
150.7734375
11
579.0857721
21
163.5078125
0
LINE
8
top_labelLayer
10
579.0857721
20
163.5078125
11
576.0193658
21
163.5078125
0
LINE
8
top_labelLayer
10
576.0193658
20
163.5078125
11
576.0193658
21
165.0703125
0
LINE
8
top_labelLayer
10
576.0193658
20
165.0703125
11
579.0857721
21
166.4179688
0
LINE
8
top_labelLayer
10
579.0857721
20
166.4179688
11
580.4529596
21
170.9882813
0
LINE
8
top_labelLayer
10
580.4529596
20
170.9882813
11
582.3279596
21
170.9882813
0
LINE
8
top_labelLayer
10
582.3279596
20
170.9882813
11
582.3279596
21
166.0273438
0
LINE
8
top_labelLayer
10
582.3279596
20
166.0273438
11
588.5388971
21
166.0273438
0
LINE
8
top_labelLayer
10
588.5388971
20
166.0273438
11
588.5388971
21
163.5078125
0
LINE
8
top_labelLayer
10
588.5388971
20
163.5078125
11
582.3279596
21
163.5078125
0
LINE
8
top_labelLayer
10
582.3279596
20
163.5078125
11
582.3279596
21
150.9101563
0
ARC
8
top_labelLayer
10
585.7876941
20
157.5540118
40
10.6477851
50
269.8803559
51
278.3028353
0
ARC
8
top_labelLayer
10
585.8892323
20
156.7246769
40
9.8124991
50
278.4154494
51
279.0081024
0
ARC
8
top_labelLayer
10
584.6945027
20
164.357115
40
17.5378705
50
278.9589396
51
280.5104777
0
ARC
8
top_labelLayer
10
585.8329379
20
158.2487983
40
11.3243749
50
280.4847583
51
282.6268276
0
ARC
8
top_labelLayer
10
586.8315244
20
153.8123886
40
6.7769723
50
282.5876383
51
285.5795268
0
ARC
8
top_labelLayer
10
587.3324182
20
151.9701915
40
4.8679477
50
285.7240514
51
286.2565691
0
ARC
8
top_labelLayer
10
587.3320536
20
147.6994217
40
3.1890127
50
287.9888003
51
295.3048452
0
ARC
8
top_labelLayer
10
586.5628904
20
150.0264844
40
5.6398776
50
283.3069101
51
288.1198
0
ARC
8
top_labelLayer
10
585.7503342
20
153.4158861
40
9.1253075
50
280.0070079
51
283.3735352
0
ARC
8
top_labelLayer
10
585.2062188
20
156.3689081
40
12.127975
50
279.1864031
51
280.114225
0
ARC
8
top_labelLayer
10
584.8729643
20
158.2643351
40
14.0523194
50
275.5260139
51
279.2939672
0
ARC
8
top_labelLayer
10
585.2490064
20
154.3364932
40
10.1065206
50
270.8932467
51
275.5483935
0
ARC
8
top_labelLayer
10
585.2962527
20
152.5422211
40
8.3117522
50
270.0031492
51
270.7604201
0
ARC
8
top_labelLayer
10
585.1658774
20
152.6975756
40
8.4681176
50
253.7847919
51
270.8852537
0
ARC
8
top_labelLayer
10
584.1626307
20
149.2761238
40
4.9026264
50
190.3817674
51
253.8772384
0
ARC
8
top_labelLayer
10
589.2761576
20
150.6587318
40
10.191031
50
179.3550907
51
192.8477645
0
ARC
8
top_labelLayer
10
588.8565273
20
150.8693251
40
6.5286954
50
179.6416642
51
189.7505901
0
ARC
8
top_labelLayer
10
586.5517764
20
150.4582459
40
4.1876443
50
189.5479704
51
205.7873484
0
ARC
8
top_labelLayer
10
585.6046166
20
150.0214834
40
3.1448578
50
206.1294578
51
221.4083873
0
ARC
8
top_labelLayer
10
585.4984098
20
149.9408951
40
3.0119144
50
221.5949107
51
262.3505242
0
ARC
8
top_labelLayer
10
585.7509887
20
151.2397428
40
4.3335169
50
261.3266111
51
270.1913275
0
ARC
8
top_labelLayer
10
594.7022122
20
155.2308474
40
16.7472217
50
349.1761914
51
0.3862666
0
ARC
8
top_labelLayer
10
600.3406018
20
154.1068241
40
10.998156
50
330.2507055
51
349.4116437
0
ARC
8
top_labelLayer
10
602.0758097
20
153.2049332
40
9.0444529
50
318.1439772
51
329.7566141
0
ARC
8
top_labelLayer
10
602.3889977
20
152.9539441
40
8.6437358
50
278.8959152
51
317.9979127
0
ARC
8
top_labelLayer
10
601.5820472
20
156.820122
40
12.5897728
50
269.7502922
51
279.8033185
0
ARC
8
top_labelLayer
10
601.4511763
20
154.6417604
40
10.4115691
50
253.5436902
51
270.4182498
0
ARC
8
top_labelLayer
10
601.1046002
20
153.3011132
40
9.0277851
50
238.8115622
51
253.2428275
0
ARC
8
top_labelLayer
10
600.9927438
20
153.0761682
40
8.7774509
50
207.7947035
51
238.6757932
0
ARC
8
top_labelLayer
10
602.5977126
20
154.0591411
40
10.6562989
50
205.6560185
51
208.4461418
0
ARC
8
top_labelLayer
10
603.8340241
20
154.5742723
40
11.9939667
50
188.9102462
51
205.3171411
0
ARC
8
top_labelLayer
10
608.0002932
20
155.2799056
40
16.2193343
50
179.7744651
51
189.0932919
0
ARC
8
top_labelLayer
10
608.6149021
20
155.4577709
40
16.8342037
50
169.244298
51
180.388077
0
ARC
8
top_labelLayer
10
602.8981391
20
156.5877674
40
11.0070767
50
150.7111535
51
169.4695443
0
ARC
8
top_labelLayer
10
601.073166
20
157.5249578
40
8.9572318
50
138.1759422
51
150.2287436
0
ARC
8
top_labelLayer
10
600.7695991
20
157.7579097
40
8.5757205
50
99.1759366
51
137.9832747
0
ARC
8
top_labelLayer
10
601.6051363
20
153.8257705
40
12.5923353
50
89.7326345
51
100.0759754
0
ARC
8
top_labelLayer
10
601.7721311
20
155.523932
40
10.8945744
50
73.5222762
51
90.5692242
0
ARC
8
top_labelLayer
10
602.4110348
20
157.8452371
40
8.4875082
50
41.1445613
51
73.2133882
0
ARC
8
top_labelLayer
10
601.1914201
20
156.796994
40
10.095653
50
13.501438
51
41.0703422
0
ARC
8
top_labelLayer
10
596.4794736
20
155.563939
40
14.9655881
50
1.1277152
51
13.8800077
0
ARC
8
top_labelLayer
10
592.4209094
20
155.34644
40
19.0281441
50
359.9919
51
1.5419869
0
ARC
8
top_labelLayer
10
611.5586266
20
155.2594927
40
16.4183832
50
179.7059633
51
187.9160742
0
ARC
8
top_labelLayer
10
605.5368702
20
154.3944741
40
10.3349129
50
187.7639221
51
200.0976823
0
ARC
8
top_labelLayer
10
602.2195115
20
153.1789904
40
6.8018877
50
200.0845909
51
216.9131622
0
ARC
8
top_labelLayer
10
601.0081294
20
152.3140062
40
5.31394
50
217.3009524
51
261.7099121
0
ARC
8
top_labelLayer
10
601.5704958
20
154.9975614
40
8.0523242
50
260.5033178
51
270.2476713
0
ARC
8
top_labelLayer
10
601.6778338
20
154.475733
40
7.5307698
50
269.4481634
51
284.7255676
0
ARC
8
top_labelLayer
10
602.2740007
20
152.2647428
40
5.2408817
50
284.5662286
51
322.6333842
0
ARC
8
top_labelLayer
10
600.8801362
20
153.2717489
40
6.9599955
50
323.0089188
51
342.6390535
0
ARC
8
top_labelLayer
10
596.8933759
20
154.5747376
40
11.1540646
50
342.3615698
51
353.7537633
0
ARC
8
top_labelLayer
10
591.0115741
20
155.2837115
40
17.0782096
50
353.536312
51
0.2014239
0
ARC
8
top_labelLayer
10
591.91275
20
155.4263185
40
16.1771391
50
359.7075596
51
7.8972675
0
ARC
8
top_labelLayer
10
597.8372698
20
156.2756532
40
10.1921474
50
7.7439872
51
20.0690174
0
ARC
8
top_labelLayer
10
601.1386426
20
157.4871325
40
6.6755145
50
20.0257072
51
37.4350486
0
ARC
8
top_labelLayer
10
602.2340153
20
158.2643925
40
5.3334969
50
37.9577619
51
80.4006227
0
ARC
8
top_labelLayer
10
601.611551
20
155.4870248
40
8.1771633
50
79.3453381
51
90.3174814
0
ARC
8
top_labelLayer
10
601.496293
20
155.9483493
40
7.7160303
50
89.4805916
51
103.880499
0
ARC
8
top_labelLayer
10
600.8479472
20
158.4172491
40
5.1638235
50
103.4685193
51
142.3118911
0
ARC
8
top_labelLayer
10
602.1083882
20
157.530818
40
6.7035612
50
142.902582
51
162.3749538
0
ARC
8
top_labelLayer
10
606.0800324
20
156.2072797
40
10.8896786
50
162.0653199
51
173.1674776
0
ARC
8
top_labelLayer
10
612.2728459
20
155.4174236
40
17.1325447
50
173.0086159
51
180.2463847
0
LINE
8
top_labelLayer
10
620.3748346
20
147.375
11
620.1404596
21
147.375
0
LINE
8
top_labelLayer
10
620.3748346
20
143.8203125
11
620.3748346
21
135.0117188
0
LINE
8
top_labelLayer
10
620.3748346
20
135.0117188
11
617.1326471
21
135.0117188
0
LINE
8
top_labelLayer
10
617.1326471
20
135.0117188
11
617.1326471
21
166.0273438
0
LINE
8
top_labelLayer
10
617.1326471
20
166.0273438
11
619.7693658
21
166.0273438
0
LINE
8
top_labelLayer
10
619.7693658
20
166.0273438
11
620.2185846
21
163.0976563
0
LINE
8
top_labelLayer
10
620.2185846
20
163.0976563
11
620.3748346
21
163.0976563
0
LINE
8
top_labelLayer
10
620.3748346
20
156.0664063
11
620.3748346
21
155.34375
0
ARC
8
top_labelLayer
10
627.0389088
20
154.0645693
40
9.8342526
50
255.7755372
51
270.3185509
0
ARC
8
top_labelLayer
10
626.7582687
20
152.8177127
40
8.5567335
50
245.9801612
51
255.5455732
0
ARC
8
top_labelLayer
10
626.2146914
20
151.5536181
40
7.1808618
50
215.5850217
51
245.8361615
0
ARC
8
top_labelLayer
10
589.6995353
20
143.5282875
40
30.6830094
50
2.950321
51
7.2020924
0
ARC
8
top_labelLayer
10
594.6636898
20
143.8060275
40
25.7111487
50
0.0318332
51
2.9015927
0
ARC
8
top_labelLayer
10
627.5167228
20
158.0819002
40
8.7272204
50
132.3565004
51
144.9195899
0
ARC
8
top_labelLayer
10
626.1797884
20
159.5404567
40
6.748649
50
115.4006102
51
132.3118399
0
ARC
8
top_labelLayer
10
626.7012861
20
158.2709317
40
8.1194761
50
97.706634
51
114.882147
0
ARC
8
top_labelLayer
10
627.0654904
20
155.9089142
40
10.5090919
50
89.8468301
51
97.9474287
0
ARC
8
top_labelLayer
10
627.1939283
20
156.4803339
40
9.9381415
50
74.1923569
51
90.5785158
0
ARC
8
top_labelLayer
10
627.8815923
20
158.9801394
40
7.3455743
50
38.052341
51
74.0417312
0
ARC
8
top_labelLayer
10
625.9848956
20
157.526402
40
9.7352111
50
16.3356002
51
37.9090581
0
ARC
8
top_labelLayer
10
621.0022269
20
155.9917085
40
14.9485556
50
4.5766552
51
16.6088792
0
ARC
8
top_labelLayer
10
614.8679459
20
155.3804728
40
21.1123893
50
359.9003398
51
4.9018173
0
ARC
8
top_labelLayer
10
616.9709343
20
155.2315964
40
19.0096999
50
350.6562847
51
0.338036
0
ARC
8
top_labelLayer
10
623.5980349
20
154.1043994
40
12.2875722
50
335.8305888
51
350.8254888
0
ARC
8
top_labelLayer
10
626.5131646
20
152.8461873
40
9.1129431
50
321.3161437
51
335.5436139
0
ARC
8
top_labelLayer
10
627.6276412
20
151.9380576
40
7.6753836
50
274.0640059
51
321.4081022
0
ARC
8
top_labelLayer
10
627.1084462
20
155.2267986
40
10.9963399
50
269.9225642
51
275.5481767
0
ARC
8
top_labelLayer
10
626.558055
20
154.3222952
40
9.342006
50
89.5904284
51
100.3501722
0
ARC
8
top_labelLayer
10
625.8919021
20
157.8218729
40
5.7797506
50
100.0868153
51
118.1917851
0
ARC
8
top_labelLayer
10
625.2094819
20
159.1528175
40
4.2843893
50
118.5569437
51
141.024342
0
ARC
8
top_labelLayer
10
626.2493521
20
158.4193084
40
5.5548008
50
141.8890352
51
160.5973165
0
ARC
8
top_labelLayer
10
629.9038695
20
157.0783571
40
9.447375
50
160.2895617
51
171.245309
0
ARC
8
top_labelLayer
10
635.9126352
20
156.1095488
40
15.533649
50
171.0868485
51
178.3247414
0
ARC
8
top_labelLayer
10
641.0091062
20
155.8673662
40
20.6352316
50
178.0662786
51
179.4473369
0
ARC
8
top_labelLayer
10
641.8117157
20
155.2600402
40
21.4370446
50
179.7762644
51
185.7075319
0
ARC
8
top_labelLayer
10
633.3598898
20
154.3892011
40
12.9405392
50
185.5924881
51
194.2050626
0
ARC
8
top_labelLayer
10
627.9456881
20
152.9840295
40
7.3471414
50
193.9430431
51
208.0218413
0
ARC
8
top_labelLayer
10
625.7550749
20
151.8696025
40
4.8899808
50
208.5536435
51
217.5605597
0
ARC
8
top_labelLayer
10
625.576618
20
151.7953811
40
4.7035364
50
218.1690497
51
253.8047105
0
ARC
8
top_labelLayer
10
626.4490314
20
154.4851197
40
7.5303731
50
253.1382386
51
266.8483141
0
ARC
8
top_labelLayer
10
626.6936709
20
157.3701855
40
10.4248771
50
266.3775722
51
270.0510514
0
ARC
8
top_labelLayer
10
626.7767846
20
152.407776
40
5.4629623
50
269.2256967
51
292.0430417
0
ARC
8
top_labelLayer
10
626.8504946
20
151.9685025
40
5.0290621
50
293.1429682
51
324.1353947
0
ARC
8
top_labelLayer
10
625.7550651
20
152.8959265
40
6.4610871
50
323.1616025
51
325.0152305
0
ARC
8
top_labelLayer
10
624.5826574
20
153.622854
40
7.8388108
50
325.5753843
51
344.150456
0
ARC
8
top_labelLayer
10
620.5262621
20
154.8219654
40
12.068569
50
343.9336227
51
355.1137442
0
ARC
8
top_labelLayer
10
615.3480622
20
155.3474021
40
17.2729024
50
354.8402199
51
0.1174596
0
ARC
8
top_labelLayer
10
616.2600825
20
155.4653836
40
16.3610542
50
359.7108379
51
7.8610433
0
ARC
8
top_labelLayer
10
622.2089593
20
156.3133804
40
10.3521331
50
7.7149617
51
19.8859633
0
ARC
8
top_labelLayer
10
625.4806843
20
157.4951404
40
6.8735216
50
19.8991439
51
35.8980151
0
ARC
8
top_labelLayer
10
626.9400249
20
158.6003329
40
5.0434976
50
35.44816
51
85.2266616
0
ARC
8
top_labelLayer
10
626.6351627
20
156.6885314
40
6.9755386
50
84.0379069
51
90.0848334
0
LINE
8
back_outsideCutPath
10
0
20
406
11
0
21
384
0
LINE
8
back_outsideCutPath
10
0
20
384
11
6
21
384
0
LINE
8
back_outsideCutPath
10
6
20
384
11
6
21
372
0
LINE
8
back_outsideCutPath
10
6
20
372
11
0
21
372
0
LINE
8
back_outsideCutPath
10
0
20
372
11
0
21
360
0
LINE
8
back_outsideCutPath
10
0
20
360
11
6
21
360
0
LINE
8
back_outsideCutPath
10
6
20
360
11
6
21
348
0
LINE
8
back_outsideCutPath
10
6
20
348
11
0
21
348
0
LINE
8
back_outsideCutPath
10
0
20
348
11
0
21
336
0
LINE
8
back_outsideCutPath
10
0
20
336
11
6
21
336
0
LINE
8
back_outsideCutPath
10
6
20
336
11
6
21
324
0
LINE
8
back_outsideCutPath
10
6
20
324
11
0
21
324
0
LINE
8
back_outsideCutPath
10
0
20
324
11
0
21
312
0
LINE
8
back_outsideCutPath
10
0
20
312
11
6
21
312
0
LINE
8
back_outsideCutPath
10
6
20
312
11
6
21
300
0
LINE
8
back_outsideCutPath
10
6
20
300
11
0
21
300
0
LINE
8
back_outsideCutPath
10
0
20
300
11
0
21
288
0
LINE
8
back_outsideCutPath
10
0
20
288
11
6
21
288
0
LINE
8
back_outsideCutPath
10
6
20
288
11
6
21
276
0
LINE
8
back_outsideCutPath
10
6
20
276
11
0
21
276
0
LINE
8
back_outsideCutPath
10
0
20
276
11
0
21
264
0
LINE
8
back_outsideCutPath
10
0
20
264
11
6
21
264
0
LINE
8
back_outsideCutPath
10
6
20
264
11
6
21
252
0
LINE
8
back_outsideCutPath
10
6
20
252
11
0
21
252
0
LINE
8
back_outsideCutPath
10
0
20
252
11
0
21
240
0
LINE
8
back_outsideCutPath
10
0
20
240
11
6
21
240
0
LINE
8
back_outsideCutPath
10
6
20
240
11
6
21
228
0
LINE
8
back_outsideCutPath
10
6
20
228
11
0
21
228
0
LINE
8
back_outsideCutPath
10
0
20
228
11
0
21
216
0
LINE
8
back_outsideCutPath
10
0
20
216
11
0
21
206
0
LINE
8
back_outsideCutPath
10
0
20
206
11
22
21
206
0
LINE
8
back_outsideCutPath
10
22
20
206
11
22
21
212
0
LINE
8
back_outsideCutPath
10
22
20
212
11
34
21
212
0
LINE
8
back_outsideCutPath
10
34
20
212
11
34
21
206
0
LINE
8
back_outsideCutPath
10
34
20
206
11
46
21
206
0
LINE
8
back_outsideCutPath
10
46
20
206
11
46
21
212
0
LINE
8
back_outsideCutPath
10
46
20
212
11
58
21
212
0
LINE
8
back_outsideCutPath
10
58
20
212
11
58
21
206
0
LINE
8
back_outsideCutPath
10
58
20
206
11
70
21
206
0
LINE
8
back_outsideCutPath
10
70
20
206
11
70
21
212
0
LINE
8
back_outsideCutPath
10
70
20
212
11
82
21
212
0
LINE
8
back_outsideCutPath
10
82
20
212
11
82
21
206
0
LINE
8
back_outsideCutPath
10
82
20
206
11
94
21
206
0
LINE
8
back_outsideCutPath
10
94
20
206
11
94
21
212
0
LINE
8
back_outsideCutPath
10
94
20
212
11
106
21
212
0
LINE
8
back_outsideCutPath
10
106
20
212
11
106
21
206
0
LINE
8
back_outsideCutPath
10
106
20
206
11
118
21
206
0
LINE
8
back_outsideCutPath
10
118
20
206
11
118
21
212
0
LINE
8
back_outsideCutPath
10
118
20
212
11
130
21
212
0
LINE
8
back_outsideCutPath
10
130
20
212
11
130
21
206
0
LINE
8
back_outsideCutPath
10
130
20
206
11
142
21
206
0
LINE
8
back_outsideCutPath
10
142
20
206
11
142
21
212
0
LINE
8
back_outsideCutPath
10
142
20
212
11
154
21
212
0
LINE
8
back_outsideCutPath
10
154
20
212
11
154
21
206
0
LINE
8
back_outsideCutPath
10
154
20
206
11
166
21
206
0
LINE
8
back_outsideCutPath
10
166
20
206
11
166
21
212
0
LINE
8
back_outsideCutPath
10
166
20
212
11
178
21
212
0
LINE
8
back_outsideCutPath
10
178
20
212
11
178
21
206
0
LINE
8
back_outsideCutPath
10
178
20
206
11
190
21
206
0
LINE
8
back_outsideCutPath
10
190
20
206
11
200
21
206
0
LINE
8
back_outsideCutPath
10
200
20
206
11
200
21
228
0
LINE
8
back_outsideCutPath
10
200
20
228
11
194
21
228
0
LINE
8
back_outsideCutPath
10
194
20
228
11
194
21
240
0
LINE
8
back_outsideCutPath
10
194
20
240
11
200
21
240
0
LINE
8
back_outsideCutPath
10
200
20
240
11
200
21
252
0
LINE
8
back_outsideCutPath
10
200
20
252
11
194
21
252
0
LINE
8
back_outsideCutPath
10
194
20
252
11
194
21
264
0
LINE
8
back_outsideCutPath
10
194
20
264
11
200
21
264
0
LINE
8
back_outsideCutPath
10
200
20
264
11
200
21
276
0
LINE
8
back_outsideCutPath
10
200
20
276
11
194
21
276
0
LINE
8
back_outsideCutPath
10
194
20
276
11
194
21
288
0
LINE
8
back_outsideCutPath
10
194
20
288
11
200
21
288
0
LINE
8
back_outsideCutPath
10
200
20
288
11
200
21
300
0
LINE
8
back_outsideCutPath
10
200
20
300
11
194
21
300
0
LINE
8
back_outsideCutPath
10
194
20
300
11
194
21
312
0
LINE
8
back_outsideCutPath
10
194
20
312
11
200
21
312
0
LINE
8
back_outsideCutPath
10
200
20
312
11
200
21
324
0
LINE
8
back_outsideCutPath
10
200
20
324
11
194
21
324
0
LINE
8
back_outsideCutPath
10
194
20
324
11
194
21
336
0
LINE
8
back_outsideCutPath
10
194
20
336
11
200
21
336
0
LINE
8
back_outsideCutPath
10
200
20
336
11
200
21
348
0
LINE
8
back_outsideCutPath
10
200
20
348
11
194
21
348
0
LINE
8
back_outsideCutPath
10
194
20
348
11
194
21
360
0
LINE
8
back_outsideCutPath
10
194
20
360
11
200
21
360
0
LINE
8
back_outsideCutPath
10
200
20
360
11
200
21
372
0
LINE
8
back_outsideCutPath
10
200
20
372
11
194
21
372
0
LINE
8
back_outsideCutPath
10
194
20
372
11
194
21
384
0
LINE
8
back_outsideCutPath
10
194
20
384
11
200
21
384
0
LINE
8
back_outsideCutPath
10
200
20
384
11
200
21
396
0
LINE
8
back_outsideCutPath
10
200
20
396
11
200
21
406
0
LINE
8
back_outsideCutPath
10
200
20
406
11
178
21
406
0
LINE
8
back_outsideCutPath
10
178
20
406
11
178
21
400
0
LINE
8
back_outsideCutPath
10
178
20
400
11
166
21
400
0
LINE
8
back_outsideCutPath
10
166
20
400
11
166
21
406
0
LINE
8
back_outsideCutPath
10
166
20
406
11
154
21
406
0
LINE
8
back_outsideCutPath
10
154
20
406
11
154
21
400
0
LINE
8
back_outsideCutPath
10
154
20
400
11
142
21
400
0
LINE
8
back_outsideCutPath
10
142
20
400
11
142
21
406
0
LINE
8
back_outsideCutPath
10
142
20
406
11
130
21
406
0
LINE
8
back_outsideCutPath
10
130
20
406
11
130
21
400
0
LINE
8
back_outsideCutPath
10
130
20
400
11
118
21
400
0
LINE
8
back_outsideCutPath
10
118
20
400
11
118
21
406
0
LINE
8
back_outsideCutPath
10
118
20
406
11
106
21
406
0
LINE
8
back_outsideCutPath
10
106
20
406
11
106
21
400
0
LINE
8
back_outsideCutPath
10
106
20
400
11
94
21
400
0
LINE
8
back_outsideCutPath
10
94
20
400
11
94
21
406
0
LINE
8
back_outsideCutPath
10
94
20
406
11
82
21
406
0
LINE
8
back_outsideCutPath
10
82
20
406
11
82
21
400
0
LINE
8
back_outsideCutPath
10
82
20
400
11
70
21
400
0
LINE
8
back_outsideCutPath
10
70
20
400
11
70
21
406
0
LINE
8
back_outsideCutPath
10
70
20
406
11
58
21
406
0
LINE
8
back_outsideCutPath
10
58
20
406
11
58
21
400
0
LINE
8
back_outsideCutPath
10
58
20
400
11
46
21
400
0
LINE
8
back_outsideCutPath
10
46
20
400
11
46
21
406
0
LINE
8
back_outsideCutPath
10
46
20
406
11
34
21
406
0
LINE
8
back_outsideCutPath
10
34
20
406
11
34
21
400
0
LINE
8
back_outsideCutPath
10
34
20
400
11
22
21
400
0
LINE
8
back_outsideCutPath
10
22
20
400
11
22
21
406
0
LINE
8
back_outsideCutPath
10
22
20
406
11
10
21
406
0
LINE
8
back_outsideCutPath
10
10
20
406
11
0
21
406
0
LINE
8
back_labelLayer
10
61.7773438
20
293.7541269
11
61.5429688
21
293.7541269
0
LINE
8
back_labelLayer
10
61.5429688
20
293.7541269
11
60.859375
21
291.0002206
0
LINE
8
back_labelLayer
10
60.859375
20
291.0002206
11
58.5351563
21
291.0002206
0
LINE
8
back_labelLayer
10
58.5351563
20
291.0002206
11
58.5351563
21
321.3908456
0
LINE
8
back_labelLayer
10
58.5351563
20
321.3908456
11
61.7773438
21
321.3908456
0
LINE
8
back_labelLayer
10
61.7773438
20
321.3908456
11
61.7773438
21
314.0080331
0
LINE
8
back_labelLayer
10
61.6210938
20
309.5549081
11
61.7773438
21
309.5549081
0
ARC
8
back_labelLayer
10
68.593355
20
302.8492573
40
9.9092532
50
74.2393364
51
90.5623784
0
ARC
8
back_labelLayer
10
69.2485884
20
305.2530113
40
7.4179282
50
38.563129
51
74.0670384
0
ARC
8
back_labelLayer
10
67.5623803
20
303.9418862
40
9.553771
50
16.4709264
51
38.4075301
0
ARC
8
back_labelLayer
10
62.7046631
20
302.4186482
40
14.644265
50
5.1338428
51
16.7973384
0
ARC
8
back_labelLayer
10
56.5722363
20
301.7672166
40
20.8106234
50
359.8779239
51
5.4093639
0
ARC
8
back_labelLayer
10
58.3734435
20
301.6107233
40
19.0096999
50
350.6562847
51
0.338036
0
ARC
8
back_labelLayer
10
65.000544
20
300.4835263
40
12.2875722
50
335.8305888
51
350.8254888
0
ARC
8
back_labelLayer
10
67.9156738
20
299.2253142
40
9.1129431
50
321.3161437
51
335.5436139
0
ARC
8
back_labelLayer
10
69.0301504
20
298.3171845
40
7.6753836
50
274.0640059
51
321.4081022
0
ARC
8
back_labelLayer
10
68.5109554
20
301.6059255
40
10.9963399
50
269.9225642
51
275.5481767
0
ARC
8
back_labelLayer
10
68.4414179
20
300.4436962
40
9.8342526
50
255.7755372
51
270.3185509
0
ARC
8
back_labelLayer
10
68.1607779
20
299.1968396
40
8.5567335
50
245.9801612
51
255.5455732
0
ARC
8
back_labelLayer
10
67.6172006
20
297.932745
40
7.1808618
50
215.5850217
51
245.8361615
0
ARC
8
back_labelLayer
10
-5.8198316
20
313.9508869
40
67.5971995
50
358.1123241
51
0.0484375
0
ARC
8
back_labelLayer
10
12.9935652
20
313.3192732
40
48.7732081
50
355.7238661
51
358.1258968
0
ARC
8
back_labelLayer
10
21.2994192
20
312.7484423
40
40.4479432
50
355.4715455
51
355.6529398
0
ARC
8
back_labelLayer
10
67.823882
20
305.3384944
40
7.3714835
50
95.1835124
51
145.1108994
0
ARC
8
back_labelLayer
10
68.4718089
20
301.684781
40
11.0732789
50
89.8743444
51
96.8145428
0
ARC
8
back_labelLayer
10
67.9594668
20
300.9326254
40
9.1108169
50
89.5731341
51
100.732428
0
ARC
8
back_labelLayer
10
67.2850123
20
304.3402016
40
5.6373187
50
100.446944
51
119.6700751
0
ARC
8
back_labelLayer
10
66.6595894
20
305.5095036
40
4.3118815
50
120.1402923
51
142.4248974
0
ARC
8
back_labelLayer
10
67.694298
20
304.82501
40
5.5500545
50
143.3382269
51
161.2559915
0
ARC
8
back_labelLayer
10
72.0212778
20
303.2887885
40
10.1414014
50
160.8926435
51
171.2334238
0
ARC
8
back_labelLayer
10
79.2446637
20
302.12349
40
17.4580761
50
171.0667895
51
177.8456849
0
ARC
8
back_labelLayer
10
86.7570323
20
301.7414165
40
24.9796954
50
177.6176779
51
180.0425242
0
ARC
8
back_labelLayer
10
83.2142249
20
301.6391671
40
21.4370446
50
179.7762644
51
185.7075319
0
ARC
8
back_labelLayer
10
74.762399
20
300.7683279
40
12.9405392
50
185.5924881
51
194.2050626
0
ARC
8
back_labelLayer
10
69.3481973
20
299.3631564
40
7.3471414
50
193.9430431
51
208.0218413
0
ARC
8
back_labelLayer
10
67.1575841
20
298.2487294
40
4.8899808
50
208.5536435
51
217.5605597
0
ARC
8
back_labelLayer
10
66.9791272
20
298.174508
40
4.7035364
50
218.1690497
51
253.8047105
0
ARC
8
back_labelLayer
10
67.8515406
20
300.8642466
40
7.5303731
50
253.1382386
51
266.8483141
0
ARC
8
back_labelLayer
10
68.09618
20
303.7493124
40
10.4248771
50
266.3775722
51
270.0510514
0
ARC
8
back_labelLayer
10
68.1746288
20
299.7873385
40
6.4632692
50
269.386896
51
285.8630704
0
ARC
8
back_labelLayer
10
68.6548094
20
298.0519017
40
4.6626864
50
286.0162899
51
326.849735
0
ARC
8
back_labelLayer
10
66.3372089
20
299.5872274
40
7.4426671
50
326.7105034
51
343.6661728
0
ARC
8
back_labelLayer
10
61.9987903
20
300.9129045
40
11.9789222
50
343.4171465
51
353.636913
0
ARC
8
back_labelLayer
10
55.4460868
20
301.6904302
40
18.5774884
50
353.493474
51
0.2205455
0
ARC
8
back_labelLayer
10
54.868503
20
301.8394763
40
19.1550914
50
359.7680748
51
6.30953
0
ARC
8
back_labelLayer
10
62.0838069
20
302.6674777
40
11.8925337
50
6.164867
51
16.0396384
0
ARC
8
back_labelLayer
10
66.7318224
20
304.0372458
40
7.0470653
50
15.7779461
51
32.0151261
0
ARC
8
back_labelLayer
10
68.181273
20
304.8672993
40
5.3784052
50
32.7033974
51
35.524251
0
ARC
8
back_labelLayer
10
68.7113484
20
305.2440548
40
4.7280803
50
35.5408422
51
79.8011252
0
ARC
8
back_labelLayer
10
68.0764144
20
302.544823
40
7.498527
50
78.6781351
51
90.3749487
0
LINE
8
back_labelLayer
10
98.6132813
20
291.0002206
11
96.2109375
21
291.0002206
0
LINE
8
back_labelLayer
10
96.2109375
20
291.0002206
11
95.5664063
21
294.0470956
0
LINE
8
back_labelLayer
10
95.5664063
20
294.0470956
11
95.4101563
21
294.0470956
0
LINE
8
back_labelLayer
10
91.8164063
20
303.7150644
11
95.4492188
21
303.8322519
0
LINE
8
back_labelLayer
10
95.4492188
20
303.8322519
11
95.4492188
21
305.1603769
0
LINE
8
back_labelLayer
10
84.84375
20
308.4416269
11
83.8476563
21
310.9220956
0
LINE
8
back_labelLayer
10
98.6132813
20
305.6095956
11
98.6132813
21
291.0002206
0
LINE
8
back_labelLayer
10
95.3710938
20
299.5939706
11
95.3710938
21
301.5275644
0
LINE
8
back_labelLayer
10
95.3710938
20
301.5275644
11
92.1289063
21
301.3908456
0
ARC
8
back_labelLayer
10
84.8613577
20
302.3758867
40
13.4404579
50
314.7445023
51
321.7071862
0
ARC
8
back_labelLayer
10
88.1634616
20
299.0206919
40
8.732932
50
304.8485615
51
314.8530781
0
ARC
8
back_labelLayer
10
89.7497343
20
296.7627941
40
5.9735541
50
294.3932694
51
304.7371559
0
ARC
8
back_labelLayer
10
89.2077995
20
298.1669852
40
7.4767126
50
281.2979431
51
293.7313825
0
ARC
8
back_labelLayer
10
88.4913886
20
301.6390623
40
11.0218819
50
272.9334968
51
281.4139196
0
ARC
8
back_labelLayer
10
88.2539202
20
305.2003203
40
14.5907295
50
269.9539273
51
273.1490954
0
ARC
8
back_labelLayer
10
88.1719024
20
300.5591841
40
9.9498367
50
258.6719668
51
270.4047379
0
ARC
8
back_labelLayer
10
87.4807726
20
297.2531023
40
6.572467
50
238.3273159
51
258.9183733
0
ARC
8
back_labelLayer
10
87.0045136
20
296.3842159
40
5.5831557
50
227.7689639
51
237.8049912
0
ARC
8
back_labelLayer
10
86.8555266
20
296.1762333
40
5.329101
50
192.082764
51
227.4520772
0
ARC
8
back_labelLayer
10
89.6029977
20
296.8535103
40
8.1579416
50
179.5457339
51
192.6949276
0
ARC
8
back_labelLayer
10
87.0506194
20
297.1488888
40
5.6100523
50
115.4904657
51
182.3568108
0
ARC
8
back_labelLayer
10
89.8601962
20
291.9955447
40
11.475301
50
101.3568226
51
117.0798613
0
ARC
8
back_labelLayer
10
92.1165412
20
281.4514444
40
22.2576769
50
92.4696232
51
101.706495
0
ARC
8
back_labelLayer
10
92.7650521
20
272.0587143
40
31.6705609
50
91.716469
51
92.9095663
0
ARC
8
back_labelLayer
10
86.1370371
20
305.2102212
40
9.312315
50
359.6933219
51
8.0035887
0
ARC
8
back_labelLayer
10
89.6596818
20
305.7233988
40
5.7525581
50
7.827265
51
20.6041585
0
ARC
8
back_labelLayer
10
91.6531072
20
306.4859821
40
3.6183046
50
20.4094141
51
41.4479415
0
ARC
8
back_labelLayer
10
91.9476396
20
306.6478781
40
3.2911936
50
42.7295508
51
71.0380357
0
ARC
8
back_labelLayer
10
91.2542174
20
304.7624488
40
5.2998056
50
70.5716346
51
83.9928547
0
ARC
8
back_labelLayer
10
90.9229496
20
302.0715764
40
8.0107129
50
83.6506658
51
90.1753205
0
ARC
8
back_labelLayer
10
90.9810597
20
299.5267187
40
10.5558565
50
90.4484667
51
103.7665543
0
ARC
8
back_labelLayer
10
92.2223771
20
294.2920328
40
15.93561
50
103.6226587
51
112.4319976
0
ARC
8
back_labelLayer
10
94.3501496
20
288.9195772
40
21.7136376
50
112.2122283
51
115.9640928
0
ARC
8
back_labelLayer
10
90.9426922
20
297.7644388
40
14.9486946
50
106.3568595
51
118.3349881
0
ARC
8
back_labelLayer
10
91.5795791
20
295.7970075
40
17.0159516
50
104.5162497
51
106.5489359
0
ARC
8
back_labelLayer
10
91.1124735
20
297.7430986
40
15.0149464
50
90.0714473
51
104.6521062
0
ARC
8
back_labelLayer
10
91.1714002
20
299.0650448
40
13.6932085
50
81.5679754
51
90.3249092
0
ARC
8
back_labelLayer
10
91.9631205
20
304.2228757
40
8.4750788
50
68.2273559
51
81.7494199
0
ARC
8
back_labelLayer
10
93.0658581
20
306.9665896
40
5.5180643
50
47.8683269
51
68.2934043
0
ARC
8
back_labelLayer
10
93.244837
20
307.3239542
40
5.1340905
50
19.2330949
51
46.6741159
0
ARC
8
back_labelLayer
10
90.2633701
20
306.2148427
40
8.3147601
50
6.3379143
51
19.6815331
0
ARC
8
back_labelLayer
10
85.8560415
20
305.6535321
40
12.7573153
50
359.8026719
51
6.6583461
0
ARC
8
back_labelLayer
10
88.9522776
20
302.2118157
40
8.9266796
50
269.5792074
51
282.0413697
0
ARC
8
back_labelLayer
10
89.6034169
20
299.3236419
40
5.9663129
50
281.7120963
51
306.4593944
0
ARC
8
back_labelLayer
10
89.8921325
20
298.8488263
40
5.4130895
50
306.9881367
51
313.8559377
0
ARC
8
back_labelLayer
10
89.8577943
20
298.8389805
40
5.4298731
50
314.1891955
51
347.4269883
0
ARC
8
back_labelLayer
10
87.1378345
20
299.5205908
40
8.2333072
50
346.9177589
51
0.2824656
0
ARC
8
back_labelLayer
10
85.1241253
20
299.5938881
40
10.2469685
50
359.8171154
51
0.0004615
0
ARC
8
back_labelLayer
10
92.9001317
20
277.5971947
40
23.8061466
50
91.8564826
51
96.4478279
0
ARC
8
back_labelLayer
10
91.8265356
20
286.8873381
40
14.4542236
50
96.3545307
51
102.9953326
0
ARC
8
back_labelLayer
10
90.3692266
20
293.0789928
40
8.093487
50
102.7995399
51
113.2433182
0
ARC
8
back_labelLayer
10
89.1678596
20
295.9522021
40
4.9794623
50
113.588664
51
121.680512
0
ARC
8
back_labelLayer
10
88.3331827
20
297.2233925
40
3.4595983
50
120.9734067
51
172.4179859
0
ARC
8
back_labelLayer
10
89.964611
20
296.8975224
40
5.1208941
50
171.2121901
51
180.2058213
0
ARC
8
back_labelLayer
10
89.4770592
20
296.840844
40
4.6334674
50
179.5266019
51
192.778712
0
ARC
8
back_labelLayer
10
87.9096349
20
296.4608955
40
3.0209204
50
192.3264513
51
222.0579739
0
ARC
8
back_labelLayer
10
87.7930263
20
296.3911524
40
2.8877427
50
222.580436
51
229.254685
0
ARC
8
back_labelLayer
10
88.1870173
20
296.8984024
40
3.5293519
50
229.783699
51
254.2724285
0
ARC
8
back_labelLayer
10
88.7117364
20
298.6469773
40
5.3547853
50
253.9396676
51
266.4533745
0
ARC
8
back_labelLayer
10
88.8792048
20
300.5773318
40
7.2919587
50
266.0783034
51
270.0590399
0
LINE
8
back_labelLayer
10
119.5703125
20
311.6838144
11
118.5742188
21
308.9299081
0
LINE
8
back_labelLayer
10
119.2578125
20
294.5939706
11
119.2578125
21
291.7228769
0
ARC
8
back_labelLayer
10
113.7442445
20
302.7265148
40
12.1173605
50
256.4243769
51
270.4889786
0
ARC
8
back_labelLayer
10
112.7759528
20
298.9473524
40
8.2166771
50
221.7976294
51
256.8020512
0
ARC
8
back_labelLayer
10
113.713631
20
299.6401668
40
9.3781087
50
196.0166613
51
221.1349241
0
ARC
8
back_labelLayer
10
118.4263272
20
301.080609
40
14.3055553
50
183.5913751
51
196.3539523
0
ARC
8
back_labelLayer
10
123.7057388
20
301.5457076
40
19.6041875
50
179.9388607
51
183.9814949
0
ARC
8
back_labelLayer
10
121.9903277
20
301.6818018
40
17.889136
50
169.8978477
51
180.3688876
0
ARC
8
back_labelLayer
10
115.7626959
20
302.8338209
40
11.5560609
50
153.0875145
51
170.105141
0
ARC
8
back_labelLayer
10
113.3998078
20
303.9628741
40
8.9382539
50
138.6550046
51
152.6853609
0
ARC
8
back_labelLayer
10
112.9588016
20
304.2842502
40
8.3950213
50
101.4912906
51
138.3133909
0
ARC
8
back_labelLayer
10
113.9712484
20
300.0705587
40
12.7268642
50
89.5891859
51
102.1787782
0
ARC
8
back_labelLayer
10
114.0491032
20
298.1660326
40
14.6310692
50
77.7702434
51
89.9475375
0
ARC
8
back_labelLayer
10
113.772166
20
296.6382199
40
16.1829606
50
74.6797009
51
77.9578473
0
ARC
8
back_labelLayer
10
115.2680328
20
302.0574959
40
10.5610402
50
70.0945902
51
74.7386008
0
ARC
8
back_labelLayer
10
116.690956
20
305.957027
40
6.4100306
50
63.5033897
51
70.1861664
0
ARC
8
back_labelLayer
10
117.3721847
20
307.3830721
40
4.8299224
50
62.9282302
51
63.1884379
0
ARC
8
back_labelLayer
10
113.2481357
20
295.526008
40
14.423304
50
68.3294412
51
74.8831264
0
ARC
8
back_labelLayer
10
112.4872282
20
292.8279299
40
17.2264814
50
74.7801913
51
77.4497534
0
ARC
8
back_labelLayer
10
113.2861307
20
296.5778785
40
13.3925826
50
77.2998703
51
81.7345393
0
ARC
8
back_labelLayer
10
113.8687982
20
300.6379649
40
9.2909084
50
81.6909918
51
87.5078977
0
ARC
8
back_labelLayer
10
113.9812188
20
302.7391792
40
7.1868235
50
87.6749175
51
89.9748374
0
ARC
8
back_labelLayer
10
113.8236508
20
302.7361484
40
7.1916497
50
88.7194059
51
112.5667647
0
ARC
8
back_labelLayer
10
113.3126353
20
304.4256984
40
5.4382211
50
114.426575
51
161.6632786
0
ARC
8
back_labelLayer
10
118.3890636
20
302.4387308
40
10.8858284
50
160.1418448
51
175.1368176
0
ARC
8
back_labelLayer
10
125.3761083
20
301.6541367
40
17.9152365
50
174.5309752
51
180.1549423
0
ARC
8
back_labelLayer
10
123.1625354
20
301.5246075
40
15.7018072
50
179.7041315
51
188.0743615
0
ARC
8
back_labelLayer
10
117.5069496
20
300.6971379
40
9.9860935
50
187.9315356
51
200.3885276
0
ARC
8
back_labelLayer
10
114.4489041
20
299.5642911
40
6.7249639
50
200.4183408
51
216.6392601
0
ARC
8
back_labelLayer
10
113.1669009
20
298.6478206
40
5.1494322
50
216.9695372
51
261.3103027
0
ARC
8
back_labelLayer
10
113.7326724
20
301.2855296
40
7.8439893
50
260.1359339
51
270.2692335
0
ARC
8
back_labelLayer
10
113.7065585
20
307.0136714
40
13.5721906
50
270.2658442
51
286.2891405
0
ARC
8
back_labelLayer
10
112.8814735
20
310.090689
40
16.7572665
50
286.0460654
51
292.3653935
0
ARC
8
back_labelLayer
10
115.0787956
20
299.9439992
40
9.2223117
50
282.0344295
51
296.9454516
0
ARC
8
back_labelLayer
10
114.1303388
20
304.2183372
40
13.6005118
50
272.5980511
51
282.1878377
0
ARC
8
back_labelLayer
10
113.8583595
20
308.3895233
40
17.779931
50
269.9655087
51
272.8643076
0
LINE
8
back_labelLayer
10
127.3828125
20
301.9572519
11
127.5390625
21
301.9572519
0
LINE
8
back_labelLayer
10
130.0976563
20
305.0822519
11
137.0117188
21
312.4064706
0
LINE
8
back_labelLayer
10
137.0117188
20
312.4064706
11
140.859375
21
312.4064706
0
LINE
8
back_labelLayer
10
140.859375
20
312.4064706
11
132.1875
21
303.2853769
0
LINE
8
back_labelLayer
10
132.1875
20
303.2853769
11
141.4648438
21
291.0002206
0
LINE
8
back_labelLayer
10
141.4648438
20
291.0002206
11
137.5390625
21
291.0002206
0
LINE
8
back_labelLayer
10
137.5390625
20
291.0002206
11
129.9804688
21
301.1174081
0
LINE
8
back_labelLayer
10
129.9804688
20
301.1174081
11
127.5390625
21
299.0080331
0
LINE
8
back_labelLayer
10
127.5390625
20
299.0080331
11
127.5390625
21
291.0002206
0
LINE
8
back_labelLayer
10
127.5390625
20
291.0002206
11
124.3359375
21
291.0002206
0
LINE
8
back_labelLayer
10
124.3359375
20
291.0002206
11
124.3359375
21
321.3908456
0
LINE
8
back_labelLayer
10
124.3359375
20
321.3908456
11
127.5390625
21
321.3908456
0
LINE
8
back_labelLayer
10
127.5390625
20
321.3908456
11
127.5390625
21
305.2775644
0
ARC
8
back_labelLayer
10
143.2049826
20
290.8682534
40
19.1934088
50
142.3233883
51
144.7075311
0
ARC
8
back_labelLayer
10
153.4259436
20
282.9845945
40
32.1015491
50
140.4331304
51
142.3365755
0
ARC
8
back_labelLayer
10
166.7453892
20
272.0203272
40
49.3532769
50
139.2798925
51
140.470333
0
ARC
8
back_labelLayer
10
182.1460169
20
258.7768636
40
69.6650618
50
138.3417626
51
139.2877292
0
ARC
8
back_labelLayer
10
105.9335653
20
305.3179975
40
21.6055351
50
358.2739212
51
359.8927752
0
ARC
8
back_labelLayer
10
89.1214247
20
305.786549
40
38.4241793
50
357.5041925
51
358.3306784
0
ARC
8
back_labelLayer
10
63.9680665
20
306.8975517
40
63.602059
50
356.6325199
51
357.491028
0
ARC
8
back_labelLayer
10
22.1537855
20
309.3362788
40
105.4873929
50
356.0329123
51
356.6442768
0
ARC
8
back_labelLayer
10
-7.0496828
20
311.3092597
40
134.7573961
50
356.0205403
51
356.0550821
0
LINE
8
right_outsideCutPath
10
209
20
406
11
209
21
384
0
LINE
8
right_outsideCutPath
10
209
20
384
11
203
21
384
0
LINE
8
right_outsideCutPath
10
203
20
384
11
203
21
372
0
LINE
8
right_outsideCutPath
10
203
20
372
11
209
21
372
0
LINE
8
right_outsideCutPath
10
209
20
372
11
209
21
360
0
LINE
8
right_outsideCutPath
10
209
20
360
11
203
21
360
0
LINE
8
right_outsideCutPath
10
203
20
360
11
203
21
348
0
LINE
8
right_outsideCutPath
10
203
20
348
11
209
21
348
0
LINE
8
right_outsideCutPath
10
209
20
348
11
209
21
336
0
LINE
8
right_outsideCutPath
10
209
20
336
11
203
21
336
0
LINE
8
right_outsideCutPath
10
203
20
336
11
203
21
324
0
LINE
8
right_outsideCutPath
10
203
20
324
11
209
21
324
0
LINE
8
right_outsideCutPath
10
209
20
324
11
209
21
312
0
LINE
8
right_outsideCutPath
10
209
20
312
11
203
21
312
0
LINE
8
right_outsideCutPath
10
203
20
312
11
203
21
300
0
LINE
8
right_outsideCutPath
10
203
20
300
11
209
21
300
0
LINE
8
right_outsideCutPath
10
209
20
300
11
209
21
288
0
LINE
8
right_outsideCutPath
10
209
20
288
11
203
21
288
0
LINE
8
right_outsideCutPath
10
203
20
288
11
203
21
276
0
LINE
8
right_outsideCutPath
10
203
20
276
11
209
21
276
0
LINE
8
right_outsideCutPath
10
209
20
276
11
209
21
264
0
LINE
8
right_outsideCutPath
10
209
20
264
11
203
21
264
0
LINE
8
right_outsideCutPath
10
203
20
264
11
203
21
252
0
LINE
8
right_outsideCutPath
10
203
20
252
11
209
21
252
0
LINE
8
right_outsideCutPath
10
209
20
252
11
209
21
240
0
LINE
8
right_outsideCutPath
10
209
20
240
11
203
21
240
0
LINE
8
right_outsideCutPath
10
203
20
240
11
203
21
228
0
LINE
8
right_outsideCutPath
10
203
20
228
11
209
21
228
0
LINE
8
right_outsideCutPath
10
209
20
228
11
209
21
216
0
LINE
8
right_outsideCutPath
10
209
20
216
11
209
21
206
0
LINE
8
right_outsideCutPath
10
209
20
206
11
227
21
206
0
LINE
8
right_outsideCutPath
10
227
20
206
11
227
21
212
0
LINE
8
right_outsideCutPath
10
227
20
212
11
239
21
212
0
LINE
8
right_outsideCutPath
10
239
20
212
11
239
21
206
0
LINE
8
right_outsideCutPath
10
239
20
206
11
251
21
206
0
LINE
8
right_outsideCutPath
10
251
20
206
11
251
21
212
0
LINE
8
right_outsideCutPath
10
251
20
212
11
263
21
212
0
LINE
8
right_outsideCutPath
10
263
20
212
11
263
21
206
0
LINE
8
right_outsideCutPath
10
263
20
206
11
275
21
206
0
LINE
8
right_outsideCutPath
10
275
20
206
11
275
21
212
0
LINE
8
right_outsideCutPath
10
275
20
212
11
287
21
212
0
LINE
8
right_outsideCutPath
10
287
20
212
11
287
21
206
0
LINE
8
right_outsideCutPath
10
287
20
206
11
299
21
206
0
LINE
8
right_outsideCutPath
10
299
20
206
11
299
21
212
0
LINE
8
right_outsideCutPath
10
299
20
212
11
311
21
212
0
LINE
8
right_outsideCutPath
10
311
20
212
11
311
21
206
0
LINE
8
right_outsideCutPath
10
311
20
206
11
323
21
206
0
LINE
8
right_outsideCutPath
10
323
20
206
11
323
21
212
0
LINE
8
right_outsideCutPath
10
323
20
212
11
335
21
212
0
LINE
8
right_outsideCutPath
10
335
20
212
11
335
21
206
0
LINE
8
right_outsideCutPath
10
335
20
206
11
347
21
206
0
LINE
8
right_outsideCutPath
10
347
20
206
11
347
21
212
0
LINE
8
right_outsideCutPath
10
347
20
212
11
359
21
212
0
LINE
8
right_outsideCutPath
10
359
20
212
11
359
21
206
0
LINE
8
right_outsideCutPath
10
359
20
206
11
371
21
206
0
LINE
8
right_outsideCutPath
10
371
20
206
11
371
21
212
0
LINE
8
right_outsideCutPath
10
371
20
212
11
383
21
212
0
LINE
8
right_outsideCutPath
10
383
20
212
11
383
21
206
0
LINE
8
right_outsideCutPath
10
383
20
206
11
395
21
206
0
LINE
8
right_outsideCutPath
10
395
20
206
11
395
21
212
0
LINE
8
right_outsideCutPath
10
395
20
212
11
407
21
212
0
LINE
8
right_outsideCutPath
10
407
20
212
11
407
21
206
0
LINE
8
right_outsideCutPath
10
407
20
206
11
419
21
206
0
LINE
8
right_outsideCutPath
10
419
20
206
11
419
21
212
0
LINE
8
right_outsideCutPath
10
419
20
212
11
431
21
212
0
LINE
8
right_outsideCutPath
10
431
20
212
11
431
21
206
0
LINE
8
right_outsideCutPath
10
431
20
206
11
443
21
206
0
LINE
8
right_outsideCutPath
10
443
20
206
11
443
21
212
0
LINE
8
right_outsideCutPath
10
443
20
212
11
455
21
212
0
LINE
8
right_outsideCutPath
10
455
20
212
11
455
21
206
0
LINE
8
right_outsideCutPath
10
455
20
206
11
467
21
206
0
LINE
8
right_outsideCutPath
10
467
20
206
11
467
21
212
0
LINE
8
right_outsideCutPath
10
467
20
212
11
479
21
212
0
LINE
8
right_outsideCutPath
10
479
20
212
11
479
21
206
0
LINE
8
right_outsideCutPath
10
479
20
206
11
491
21
206
0
LINE
8
right_outsideCutPath
10
491
20
206
11
497
21
206
0
LINE
8
right_outsideCutPath
10
497
20
206
11
497
21
228
0
LINE
8
right_outsideCutPath
10
497
20
228
11
503
21
228
0
LINE
8
right_outsideCutPath
10
503
20
228
11
503
21
240
0
LINE
8
right_outsideCutPath
10
503
20
240
11
497
21
240
0
LINE
8
right_outsideCutPath
10
497
20
240
11
497
21
252
0
LINE
8
right_outsideCutPath
10
497
20
252
11
503
21
252
0
LINE
8
right_outsideCutPath
10
503
20
252
11
503
21
264
0
LINE
8
right_outsideCutPath
10
503
20
264
11
497
21
264
0
LINE
8
right_outsideCutPath
10
497
20
264
11
497
21
276
0
LINE
8
right_outsideCutPath
10
497
20
276
11
503
21
276
0
LINE
8
right_outsideCutPath
10
503
20
276
11
503
21
288
0
LINE
8
right_outsideCutPath
10
503
20
288
11
497
21
288
0
LINE
8
right_outsideCutPath
10
497
20
288
11
497
21
300
0
LINE
8
right_outsideCutPath
10
497
20
300
11
503
21
300
0
LINE
8
right_outsideCutPath
10
503
20
300
11
503
21
312
0
LINE
8
right_outsideCutPath
10
503
20
312
11
497
21
312
0
LINE
8
right_outsideCutPath
10
497
20
312
11
497
21
324
0
LINE
8
right_outsideCutPath
10
497
20
324
11
503
21
324
0
LINE
8
right_outsideCutPath
10
503
20
324
11
503
21
336
0
LINE
8
right_outsideCutPath
10
503
20
336
11
497
21
336
0
LINE
8
right_outsideCutPath
10
497
20
336
11
497
21
348
0
LINE
8
right_outsideCutPath
10
497
20
348
11
503
21
348
0
LINE
8
right_outsideCutPath
10
503
20
348
11
503
21
360
0
LINE
8
right_outsideCutPath
10
503
20
360
11
497
21
360
0
LINE
8
right_outsideCutPath
10
497
20
360
11
497
21
372
0
LINE
8
right_outsideCutPath
10
497
20
372
11
503
21
372
0
LINE
8
right_outsideCutPath
10
503
20
372
11
503
21
384
0
LINE
8
right_outsideCutPath
10
503
20
384
11
497
21
384
0
LINE
8
right_outsideCutPath
10
497
20
384
11
497
21
396
0
LINE
8
right_outsideCutPath
10
497
20
396
11
497
21
406
0
LINE
8
right_outsideCutPath
10
497
20
406
11
479
21
406
0
LINE
8
right_outsideCutPath
10
479
20
406
11
479
21
400
0
LINE
8
right_outsideCutPath
10
479
20
400
11
467
21
400
0
LINE
8
right_outsideCutPath
10
467
20
400
11
467
21
406
0
LINE
8
right_outsideCutPath
10
467
20
406
11
455
21
406
0
LINE
8
right_outsideCutPath
10
455
20
406
11
455
21
400
0
LINE
8
right_outsideCutPath
10
455
20
400
11
443
21
400
0
LINE
8
right_outsideCutPath
10
443
20
400
11
443
21
406
0
LINE
8
right_outsideCutPath
10
443
20
406
11
431
21
406
0
LINE
8
right_outsideCutPath
10
431
20
406
11
431
21
400
0
LINE
8
right_outsideCutPath
10
431
20
400
11
419
21
400
0
LINE
8
right_outsideCutPath
10
419
20
400
11
419
21
406
0
LINE
8
right_outsideCutPath
10
419
20
406
11
407
21
406
0
LINE
8
right_outsideCutPath
10
407
20
406
11
407
21
400
0
LINE
8
right_outsideCutPath
10
407
20
400
11
395
21
400
0
LINE
8
right_outsideCutPath
10
395
20
400
11
395
21
406
0
LINE
8
right_outsideCutPath
10
395
20
406
11
383
21
406
0
LINE
8
right_outsideCutPath
10
383
20
406
11
383
21
400
0
LINE
8
right_outsideCutPath
10
383
20
400
11
371
21
400
0
LINE
8
right_outsideCutPath
10
371
20
400
11
371
21
406
0
LINE
8
right_outsideCutPath
10
371
20
406
11
359
21
406
0
LINE
8
right_outsideCutPath
10
359
20
406
11
359
21
400
0
LINE
8
right_outsideCutPath
10
359
20
400
11
347
21
400
0
LINE
8
right_outsideCutPath
10
347
20
400
11
347
21
406
0
LINE
8
right_outsideCutPath
10
347
20
406
11
335
21
406
0
LINE
8
right_outsideCutPath
10
335
20
406
11
335
21
400
0
LINE
8
right_outsideCutPath
10
335
20
400
11
323
21
400
0
LINE
8
right_outsideCutPath
10
323
20
400
11
323
21
406
0
LINE
8
right_outsideCutPath
10
323
20
406
11
311
21
406
0
LINE
8
right_outsideCutPath
10
311
20
406
11
311
21
400
0
LINE
8
right_outsideCutPath
10
311
20
400
11
299
21
400
0
LINE
8
right_outsideCutPath
10
299
20
400
11
299
21
406
0
LINE
8
right_outsideCutPath
10
299
20
406
11
287
21
406
0
LINE
8
right_outsideCutPath
10
287
20
406
11
287
21
400
0
LINE
8
right_outsideCutPath
10
287
20
400
11
275
21
400
0
LINE
8
right_outsideCutPath
10
275
20
400
11
275
21
406
0
LINE
8
right_outsideCutPath
10
275
20
406
11
263
21
406
0
LINE
8
right_outsideCutPath
10
263
20
406
11
263
21
400
0
LINE
8
right_outsideCutPath
10
263
20
400
11
251
21
400
0
LINE
8
right_outsideCutPath
10
251
20
400
11
251
21
406
0
LINE
8
right_outsideCutPath
10
251
20
406
11
239
21
406
0
LINE
8
right_outsideCutPath
10
239
20
406
11
239
21
400
0
LINE
8
right_outsideCutPath
10
239
20
400
11
227
21
400
0
LINE
8
right_outsideCutPath
10
227
20
400
11
227
21
406
0
LINE
8
right_outsideCutPath
10
227
20
406
11
215
21
406
0
LINE
8
right_outsideCutPath
10
215
20
406
11
209
21
406
0
LINE
8
right_labelLayer
10
323.9472656
20
317.1719928
11
323.4980469
21
314.1641803
0
LINE
8
right_labelLayer
10
314.8652344
20
307.0938678
11
314.8652344
21
295.6094928
0
LINE
8
right_labelLayer
10
314.8652344
20
295.6094928
11
311.6230469
21
295.6094928
0
LINE
8
right_labelLayer
10
311.6230469
20
295.6094928
11
311.6230469
21
317.0157428
0
LINE
8
right_labelLayer
10
311.6230469
20
317.0157428
11
314.2988281
21
317.0157428
0
LINE
8
right_labelLayer
10
314.2988281
20
317.0157428
11
314.6699219
21
313.0508991
0
LINE
8
right_labelLayer
10
314.6699219
20
313.0508991
11
314.8261719
21
313.0508991
0
ARC
8
right_labelLayer
10
321.4219525
20
302.5220797
40
14.8843253
50
84.9922828
51
90.1281106
0
ARC
8
right_labelLayer
10
321.7794034
20
306.526892
40
10.8635998
50
78.4891881
51
85.0266001
0
ARC
8
right_labelLayer
10
320.3920186
20
300.216738
40
14.2891063
50
77.4453714
51
81.63605
0
ARC
8
right_labelLayer
10
321.0145613
20
304.5078938
40
9.9530392
50
81.5884282
51
87.1916472
0
ARC
8
right_labelLayer
10
321.1497862
20
306.8528052
40
7.6043452
50
87.3436407
51
89.9660141
0
ARC
8
right_labelLayer
10
321.1183665
20
308.8395125
40
5.6177515
50
89.6335416
51
137.0880794
0
ARC
8
right_labelLayer
10
322.4970805
20
307.2891104
40
7.6856705
50
135.6208956
51
138.8377027
0
ARC
8
right_labelLayer
10
322.2950406
20
307.4863223
40
7.4037775
50
138.9575692
51
174.542229
0
ARC
8
right_labelLayer
10
324.7063142
20
307.1090282
40
9.8410916
50
173.6907599
51
180.088265
0
ARC
8
right_labelLayer
10
324.3653771
20
307.676554
40
10.9489736
50
139.4139298
51
150.6032866
0
ARC
8
right_labelLayer
10
322.4022239
20
309.3587699
40
8.363665
50
124.2321539
51
139.416103
0
ARC
8
right_labelLayer
10
321.352537
20
310.9432653
40
6.4632037
50
89.6796658
51
124.4405637
0
LINE
8
right_labelLayer
10
331.1933594
20
317.0157428
11
331.1933594
21
295.6094928
0
LINE
8
right_labelLayer
10
331.1933594
20
295.6094928
11
327.9511719
21
295.6094928
0
LINE
8
right_labelLayer
10
327.9511719
20
295.6094928
11
327.9511719
21
317.0157428
0
LINE
8
right_labelLayer
10
327.9511719
20
317.0157428
11
331.1933594
21
317.0157428
0
ARC
8
right_labelLayer
10
331.2704027
20
322.8387516
40
3.5927371
50
170.8452009
51
180.3544785
0
ARC
8
right_labelLayer
10
329.9254388
20
323.0636318
40
2.2291407
50
155.9679211
51
171.0515669
0
ARC
8
right_labelLayer
10
329.2739858
20
323.3526445
40
1.5164579
50
133.7879874
51
155.9171913
0
ARC
8
right_labelLayer
10
329.5144998
20
323.0867457
40
1.874874
50
92.6446208
51
133.4710381
0
ARC
8
right_labelLayer
10
329.5904657
20
322.490096
40
2.4748657
50
89.9691828
51
93.7641615
0
ARC
8
right_labelLayer
10
329.6213986
20
323.0549337
40
1.9102573
50
46.3708479
51
90.8879036
0
ARC
8
right_labelLayer
10
329.8115138
20
323.2512047
40
1.6370166
50
17.7251939
51
46.4473147
0
ARC
8
right_labelLayer
10
328.9249553
20
322.945908
40
2.5745212
50
4.9427966
51
18.1900829
0
ARC
8
right_labelLayer
10
327.7971124
20
322.8239846
40
3.7087544
50
359.8847445
51
5.31811
0
ARC
8
right_labelLayer
10
328.1514059
20
322.7937455
40
3.3545308
50
349.83447
51
0.3890638
0
ARC
8
right_labelLayer
10
329.3726442
20
322.5659267
40
2.1122733
50
332.6322223
51
350.0705415
0
ARC
8
right_labelLayer
10
329.847986
20
322.331205
40
1.5822651
50
313.6153121
51
332.2677706
0
ARC
8
right_labelLayer
10
329.6189038
20
322.5397921
40
1.891431
50
269.1788399
51
314.2807421
0
ARC
8
right_labelLayer
10
329.5703073
20
322.7079366
40
2.0594933
50
250.5000289
51
270.5978566
0
ARC
8
right_labelLayer
10
329.5079806
20
322.4748763
40
1.8190954
50
225.1300722
51
249.9001513
0
ARC
8
right_labelLayer
10
329.410399
20
322.3670829
40
1.6738716
50
197.7933871
51
224.8941936
0
ARC
8
right_labelLayer
10
330.3237215
20
322.6800684
40
2.6392165
50
184.9925406
51
198.2040378
0
ARC
8
right_labelLayer
10
331.5056869
20
322.8085457
40
3.8279609
50
179.8805816
51
185.3686535
0
LINE
8
right_labelLayer
10
348.1855469
20
317.0157428
11
355.5878906
21
317.0157428
0
LINE
8
right_labelLayer
10
355.5878906
20
317.0157428
11
355.5878906
21
314.9649616
0
LINE
8
right_labelLayer
10
355.5878906
20
314.9649616
11
351.6230469
21
314.4962116
0
LINE
8
right_labelLayer
10
344.3183594
20
299.0079303
11
348.1074219
21
299.0079303
0
LINE
8
right_labelLayer
10
347.0722656
20
296.0977741
11
343.1855469
21
296.0977741
0
ARC
8
right_labelLayer
10
347.4913659
20
311.2264487
40
5.2689787
50
29.458447
51
38.3576711
0
ARC
8
right_labelLayer
10
345.3383492
20
309.9973757
40
7.7480943
50
23.1845274
51
29.5422481
0
ARC
8
right_labelLayer
10
343.2840201
20
309.0863459
40
9.9952271
50
21.2506509
51
23.3489319
0
ARC
8
right_labelLayer
10
346.7758871
20
310.4750789
40
6.2375156
50
6.8504745
51
20.9871866
0
ARC
8
right_labelLayer
10
345.01916
20
310.2368923
40
8.0101571
50
359.8710731
51
7.0432172
0
ARC
8
right_labelLayer
10
345.5971342
20
310.1415849
40
7.4325645
50
342.5649829
51
0.5957658
0
ARC
8
right_labelLayer
10
346.9679226
20
309.7630606
40
6.0115431
50
310.6097853
51
342.0923647
0
ARC
8
right_labelLayer
10
346.1992376
20
310.6571821
40
7.1906648
50
284.9315788
51
310.6222783
0
ARC
8
right_labelLayer
10
345.2373117
20
314.0279056
40
10.6956016
50
272.5334993
51
285.257963
0
ARC
8
right_labelLayer
10
344.9899972
20
317.4060884
40
14.0817537
50
269.9691776
51
272.9312083
0
ARC
8
right_labelLayer
10
344.9592999
20
313.7442032
40
10.4198922
50
263.4836857
51
270.1271407
0
ARC
8
right_labelLayer
10
344.7895701
20
312.1320471
40
8.798901
50
259.4963516
51
263.3904115
0
ARC
8
right_labelLayer
10
345.8400153
20
298.3581764
40
5.7693404
50
117.393504
51
128.4095347
0
ARC
8
right_labelLayer
10
344.354762
20
300.2007417
40
3.4028225
50
128.0881987
51
147.1400351
0
ARC
8
right_labelLayer
10
343.5545933
20
300.7377169
40
2.4393839
50
147.5369157
51
180.2592261
0
ARC
8
right_labelLayer
10
342.795494
20
300.7059134
40
1.680388
50
179.2918967
51
198.3580627
0
ARC
8
right_labelLayer
10
342.4808718
20
300.6232269
40
1.3558922
50
199.2291534
51
239.569106
0
ARC
8
right_labelLayer
10
342.7420352
20
300.9841658
40
1.799886
50
238.2201962
51
239.8454364
0
ARC
8
right_labelLayer
10
342.9498535
20
301.4118011
40
2.2743163
50
240.7302589
51
254.502668
0
ARC
8
right_labelLayer
10
343.5705708
20
303.5507631
40
4.5014422
50
254.1636715
51
262.2123498
0
ARC
8
right_labelLayer
10
344.0622607
20
306.9849896
40
7.9706499
50
262.0555685
51
267.208312
0
ARC
8
right_labelLayer
10
344.2997778
20
311.3415766
40
12.3336602
50
267.0919509
51
270.0863202
0
ARC
8
right_labelLayer
10
348.178295
20
285.7364716
40
13.271648
50
81.5744278
51
90.3059718
0
ARC
8
right_labelLayer
10
348.906275
20
290.4842174
40
8.4685129
50
68.3671486
51
81.7399294
0
ARC
8
right_labelLayer
10
349.8570881
20
292.9141491
40
5.8592205
50
52.1879566
51
68.2500975
0
ARC
8
right_labelLayer
10
350.5223922
20
293.810601
40
4.7431806
50
8.6201337
51
51.8982509
0
ARC
8
right_labelLayer
10
348.1906276
20
293.3172216
40
7.1238969
50
359.743053
51
9.7326353
0
ARC
8
right_labelLayer
10
348.2950555
20
293.1970416
40
7.0199521
50
340.5268771
51
0.7201592
0
ARC
8
right_labelLayer
10
349.326454
20
292.9402362
40
5.9628095
50
302.9903667
51
339.5494532
0
ARC
8
right_labelLayer
10
348.2437225
20
294.3161185
40
7.7080325
50
303.1869693
51
304.1722568
0
ARC
8
right_labelLayer
10
347.2346998
20
296.0631237
40
9.7230364
50
286.2542305
51
302.5280022
0
ARC
8
right_labelLayer
10
345.3984188
20
302.1200283
40
16.0519585
50
276.4939753
51
286.4953668
0
ARC
8
right_labelLayer
10
344.2526845
20
311.6977058
40
25.6978237
50
269.7545064
51
276.6169594
0
ARC
8
right_labelLayer
10
344.0570112
20
304.1650321
40
18.1651158
50
262.5634717
51
270.2698931
0
ARC
8
right_labelLayer
10
343.1673169
20
297.5706508
40
11.5110856
50
251.2101911
51
262.7063978
0
ARC
8
right_labelLayer
10
341.8849661
20
293.8067665
40
7.5347501
50
235.966803
51
251.2229123
0
ARC
8
right_labelLayer
10
340.5257962
20
291.8677648
40
5.1673464
50
208.903629
51
236.4231381
0
ARC
8
right_labelLayer
10
340.6505734
20
291.8154585
40
5.2523707
50
182.2079922
51
207.7461496
0
ARC
8
right_labelLayer
10
342.2386094
20
291.9741006
40
6.8460318
50
179.9784097
51
183.0226914
0
ARC
8
right_labelLayer
10
340.3492766
20
292.0636554
40
4.9574615
50
138.3916145
51
181.0052643
0
ARC
8
right_labelLayer
10
340.8727919
20
291.5931713
40
5.6613141
50
113.8121437
51
138.3496279
0
ARC
8
right_labelLayer
10
341.8658422
20
289.4487544
40
8.0242327
50
102.2870922
51
114.1172584
0
ARC
8
right_labelLayer
10
341.5538
20
300.3510946
40
3.364968
50
216.5861511
51
245.4968675
0
ARC
8
right_labelLayer
10
342.0347731
20
300.7592395
40
3.9946488
50
215.4649683
51
217.1749453
0
ARC
8
right_labelLayer
10
341.2331497
20
300.1802371
40
3.0058168
50
182.1767313
51
215.3415559
0
ARC
8
right_labelLayer
10
341.9474825
20
300.2568666
40
3.7228732
50
179.9836284
51
182.937683
0
ARC
8
right_labelLayer
10
341.9320977
20
300.289272
40
3.7076208
50
161.722578
51
180.4843451
0
ARC
8
right_labelLayer
10
341.5244535
20
300.4005053
40
3.285733
50
144.4963296
51
161.3350511
0
ARC
8
right_labelLayer
10
342.6111106
20
299.5906355
40
4.640779
50
132.7259088
51
144.1479717
0
ARC
8
right_labelLayer
10
344.3527028
20
297.7308277
40
7.1886858
50
125.2212655
51
132.8655699
0
ARC
8
right_labelLayer
10
346.1037068
20
295.2993371
40
10.1849506
50
121.2352695
51
125.3794678
0
ARC
8
right_labelLayer
10
342.9996781
20
309.2581336
40
5.6838156
50
215.1640784
51
247.4747881
0
ARC
8
right_labelLayer
10
344.0606444
20
310.1143796
40
7.0448526
50
212.4714021
51
215.887566
0
ARC
8
right_labelLayer
10
343.7816585
20
309.9147829
40
6.7023501
50
183.0160886
51
212.3123116
0
ARC
8
right_labelLayer
10
345.2525296
20
310.0787179
40
8.1802648
50
179.9759672
51
183.6206699
0
ARC
8
right_labelLayer
10
346.439163
20
310.1612659
40
9.3672316
50
166.8195795
51
180.483933
0
ARC
8
right_labelLayer
10
343.3316772
20
310.9458391
40
6.1629582
50
132.328774
51
167.3340885
0
ARC
8
right_labelLayer
10
343.7474181
20
310.3482456
40
6.8853641
50
106.2189004
51
131.5377554
0
ARC
8
right_labelLayer
10
344.7993158
20
306.9422796
40
10.4497465
50
93.6329768
51
106.5408671
0
ARC
8
right_labelLayer
10
345.1427177
20
303.0869213
40
14.319455
50
89.938039
51
94.0267727
0
ARC
8
right_labelLayer
10
345.1983194
20
304.978962
40
12.4274706
50
82.5852105
51
90.1849531
0
ARC
8
right_labelLayer
10
345.5780426
20
307.9169617
40
9.4650354
50
74.0088985
51
82.5694379
0
ARC
8
right_labelLayer
10
341.7735171
20
291.9714583
40
3.2562401
50
179.2207582
51
200.9355484
0
ARC
8
right_labelLayer
10
341.3862868
20
291.8817953
40
2.8630566
50
202.0286851
51
236.145744
0
ARC
8
right_labelLayer
10
341.9698332
20
292.6227232
40
3.8041275
50
235.0634741
51
238.5042382
0
ARC
8
right_labelLayer
10
342.6483581
20
293.8346481
40
5.1922828
50
239.1066247
51
254.4862762
0
ARC
8
right_labelLayer
10
343.5529513
20
296.953661
40
8.4396926
50
254.232401
51
263.4937333
0
ARC
8
right_labelLayer
10
344.1211693
20
301.7663482
40
13.2857831
50
263.41083
51
270.1457592
0
ARC
8
right_labelLayer
10
344.1817511
20
305.2405323
40
16.7599457
50
269.9084388
51
269.9996222
0
ARC
8
right_labelLayer
10
344.2593444
20
310.2760494
40
21.7956013
50
269.7957337
51
275.3991134
0
ARC
8
right_labelLayer
10
345.0750913
20
301.9016563
40
13.3816276
50
275.2956816
51
283.3516173
0
ARC
8
right_labelLayer
10
346.4041012
20
296.4277386
40
7.7488141
50
283.1370657
51
295.8573027
0
ARC
8
right_labelLayer
10
347.3888769
20
294.277849
40
5.3849192
50
296.4047539
51
301.8008915
0
ARC
8
right_labelLayer
10
347.7749586
20
293.745693
40
4.7294355
50
301.223069
51
318.6238062
0
ARC
8
right_labelLayer
10
348.6457843
20
292.9412766
40
3.5443713
50
319.0765477
51
1.1406987
0
ARC
8
right_labelLayer
10
347.8029935
20
293.0465859
40
4.3865972
50
359.5461159
51
10.9904726
0
ARC
8
right_labelLayer
10
349.4973889
20
293.3912234
40
2.6576193
50
10.6608938
51
30.9361923
0
ARC
8
right_labelLayer
10
350.0346218
20
293.6893696
40
2.0436435
50
31.5095492
51
58.0777723
0
ARC
8
right_labelLayer
10
349.5311056
20
292.7878024
40
3.0755026
50
58.9972228
51
73.8586374
0
ARC
8
right_labelLayer
10
348.5133774
20
289.4560611
40
6.5590404
50
73.4100117
51
81.5907125
0
ARC
8
right_labelLayer
10
347.6510706
20
283.8757823
40
12.2054862
50
81.4172264
51
86.5756697
0
ARC
8
right_labelLayer
10
347.1226473
20
275.4682034
40
20.6296322
50
86.5054225
51
90.1399279
0
ARC
8
right_labelLayer
10
343.1391775
20
288.6450764
40
7.4528419
50
89.6435203
51
100.0209205
0
ARC
8
right_labelLayer
10
342.6707535
20
291.1932623
40
4.8620541
50
99.8102906
51
116.8229536
0
ARC
8
right_labelLayer
10
342.2144576
20
292.1555289
40
3.7975217
50
117.2304402
51
130.5023345
0
ARC
8
right_labelLayer
10
341.980179
20
292.4566324
40
3.4164542
50
130.7944753
51
169.0413429
0
ARC
8
right_labelLayer
10
343.7054068
20
292.0503342
40
5.1879442
50
168.2580505
51
180.3820303
0
ARC
8
right_labelLayer
10
346.6038733
20
310.1118691
40
6.3286678
50
179.5617677
51
191.6529125
0
ARC
8
right_labelLayer
10
344.4034697
20
309.6364625
40
4.0776477
50
191.3555163
51
213.366036
0
ARC
8
right_labelLayer
10
343.8750365
20
309.3313387
40
3.468685
50
213.9573787
51
227.7971561
0
ARC
8
right_labelLayer
10
344.3347846
20
309.8889411
40
4.1907179
50
228.2620839
51
254.7341379
0
ARC
8
right_labelLayer
10
344.9221346
20
311.9023842
40
6.28787
50
254.4016455
51
267.4348822
0
ARC
8
right_labelLayer
10
345.075368
20
313.9572327
40
8.3477412
50
267.0154043
51
270.0323284
0
ARC
8
right_labelLayer
10
345.1755318
20
312.6721085
40
7.0632607
50
269.2256752
51
284.377329
0
ARC
8
right_labelLayer
10
346.1382434
20
309.3180158
40
3.5765559
50
282.7796645
51
346.4828538
0
ARC
8
right_labelLayer
10
343.2599924
20
310.133302
40
6.5667371
50
345.4362055
51
0.7465961
0
ARC
8
right_labelLayer
10
342.8554039
20
310.3185622
40
6.9714808
50
359.1806244
51
15.0431767
0
ARC
8
right_labelLayer
10
346.0143032
20
311.2400473
40
3.6823327
50
13.9535654
51
77.6673844
0
ARC
8
right_labelLayer
10
345.1079824
20
307.9921792
40
7.0514378
50
76.1095061
51
90.7028494
0
ARC
8
right_labelLayer
10
344.9723215
20
308.2402356
40
6.8030287
50
89.5859417
51
101.3334084
0
ARC
8
right_labelLayer
10
344.486155
20
310.5590425
40
4.4339474
50
101.0620536
51
121.9739136
0
ARC
8
right_labelLayer
10
344.1444794
20
311.1736918
40
3.7317887
50
122.5210784
51
134.9966779
0
ARC
8
right_labelLayer
10
344.2851597
20
311.0894041
40
3.8910672
50
135.5839908
51
163.0015901
0
ARC
8
right_labelLayer
10
346.3399465
20
310.4159193
40
6.0531315
50
162.5912087
51
175.7343041
0
ARC
8
right_labelLayer
10
348.8045411
20
310.1731329
40
8.5291602
50
175.3393501
51
180.0863809
0
LINE
8
right_labelLayer
10
377.8730469
20
295.6094928
11
374.6308594
21
295.6094928
0
LINE
8
right_labelLayer
10
374.6308594
20
295.6094928
11
374.6308594
21
309.4571491
0
LINE
8
right_labelLayer
10
363.2246094
20
306.8008991
11
363.2246094
21
295.6094928
0
LINE
8
right_labelLayer
10
363.2246094
20
295.6094928
11
359.9824219
21
295.6094928
0
LINE
8
right_labelLayer
10
359.9824219
20
295.6094928
11
359.9824219
21
326.0001178
0
LINE
8
right_labelLayer
10
359.9824219
20
326.0001178
11
363.2246094
21
326.0001178
0
LINE
8
right_labelLayer
10
363.2246094
20
326.0001178
11
363.2246094
21
316.8008991
0
LINE
8
right_labelLayer
10
363.0683594
20
314.0469928
11
363.2636719
21
314.0469928
0
LINE
8
right_labelLayer
10
377.8730469
20
309.5743366
11
377.8730469
21
295.6094928
0
ARC
8
right_labelLayer
10
365.4661746
20
309.50971
40
9.1648355
50
359.6714031
51
8.6877284
0
ARC
8
right_labelLayer
10
368.8629056
20
310.0484088
40
5.7257406
50
8.4931506
51
22.6579773
0
ARC
8
right_labelLayer
10
370.5887005
20
310.765595
40
3.8568611
50
22.7024314
51
42.3419599
0
ARC
8
right_labelLayer
10
370.782685
20
310.8528538
40
3.655305
50
43.3790967
51
71.5385976
0
ARC
8
right_labelLayer
10
370.0572736
20
308.8258624
40
5.8078784
50
71.0828126
51
84.3691102
0
ARC
8
right_labelLayer
10
369.731648
20
306.0572893
40
8.5952021
50
84.0197848
51
90.1510762
0
ARC
8
right_labelLayer
10
369.6391113
20
304.8413606
40
9.8113498
50
89.5919555
51
100.3595028
0
ARC
8
right_labelLayer
10
368.944378
20
308.4922913
40
6.0950632
50
100.1067858
51
118.0847399
0
ARC
8
right_labelLayer
10
368.2377806
20
309.8788077
40
4.5392511
50
118.4551159
51
139.6706152
0
ARC
8
right_labelLayer
10
368.9471683
20
309.3939306
40
5.3945883
50
140.6208381
51
160.5048828
0
ARC
8
right_labelLayer
10
372.6863674
20
308.0096911
40
9.3815495
50
160.1566983
51
171.5312767
0
ARC
8
right_labelLayer
10
378.736473
20
307.0511247
40
15.5069598
50
171.320232
51
178.340681
0
ARC
8
right_labelLayer
10
384.1496353
20
306.8092844
40
20.9250277
50
178.1079587
51
180.0229603
0
ARC
8
right_labelLayer
10
334.0586058
20
316.7661379
40
29.1660242
50
357.8674202
51
0.0682874
0
ARC
8
right_labelLayer
10
343.9668365
20
316.3881219
40
19.2505915
50
354.9828556
51
357.8943547
0
ARC
8
right_labelLayer
10
350.5102826
20
315.8183294
40
12.6823865
50
351.9713055
51
354.9618933
0
ARC
8
right_labelLayer
10
368.7553888
20
310.6117325
40
6.4776515
50
119.8315928
51
147.972585
0
ARC
8
right_labelLayer
10
369.5397401
20
309.4068249
40
7.9134907
50
116.6657807
51
120.4183092
0
ARC
8
right_labelLayer
10
369.6862204
20
309.0220781
40
8.3231588
50
96.6652518
51
116.378252
0
ARC
8
right_labelLayer
10
370.0017855
20
306.8448647
40
10.5224592
50
89.8927379
51
96.9959161
0
ARC
8
right_labelLayer
10
370.1026899
20
304.2135416
40
13.1540144
50
80.6862972
51
90.3537144
0
ARC
8
right_labelLayer
10
370.92175
20
309.0311113
40
8.2674476
50
65.6022719
51
80.8844193
0
ARC
8
right_labelLayer
10
371.9052804
20
311.2462388
40
5.8438973
50
46.7400829
51
65.4130684
0
ARC
8
right_labelLayer
10
371.9721281
20
311.4573023
40
5.6451944
50
19.220434
51
45.7660748
0
ARC
8
right_labelLayer
10
368.7170727
20
310.2506261
40
9.116304
50
6.4733791
51
19.6468076
0
ARC
8
right_labelLayer
10
363.8531518
20
309.6246143
40
14.0199852
50
359.7945287
51
6.774386
0
LINE
8
right_labelLayer
10
394.3769531
20
298.2852741
11
394.3769531
21
295.8048053
0
LINE
8
right_labelLayer
10
384.7675781
20
301.7618366
11
384.7675781
21
314.4962116
0
LINE
8
right_labelLayer
10
384.7675781
20
314.4962116
11
381.7011719
21
314.4962116
0
LINE
8
right_labelLayer
10
381.7011719
20
314.4962116
11
381.7011719
21
316.0587116
0
LINE
8
right_labelLayer
10
381.7011719
20
316.0587116
11
384.7675781
21
317.4063678
0
LINE
8
right_labelLayer
10
384.7675781
20
317.4063678
11
386.1347656
21
321.9766803
0
LINE
8
right_labelLayer
10
386.1347656
20
321.9766803
11
388.0097656
21
321.9766803
0
LINE
8
right_labelLayer
10
388.0097656
20
321.9766803
11
388.0097656
21
317.0157428
0
LINE
8
right_labelLayer
10
388.0097656
20
317.0157428
11
394.2207031
21
317.0157428
0
LINE
8
right_labelLayer
10
394.2207031
20
317.0157428
11
394.2207031
21
314.4962116
0
LINE
8
right_labelLayer
10
394.2207031
20
314.4962116
11
388.0097656
21
314.4962116
0
LINE
8
right_labelLayer
10
388.0097656
20
314.4962116
11
388.0097656
21
301.8985553
0
ARC
8
right_labelLayer
10
391.4695001
20
308.5424109
40
10.6477851
50
269.8803559
51
278.3028353
0
ARC
8
right_labelLayer
10
391.5710383
20
307.713076
40
9.8124991
50
278.4154494
51
279.0081024
0
ARC
8
right_labelLayer
10
390.3763088
20
315.3455141
40
17.5378705
50
278.9589396
51
280.5104777
0
ARC
8
right_labelLayer
10
391.5147439
20
309.2371974
40
11.3243749
50
280.4847583
51
282.6268276
0
ARC
8
right_labelLayer
10
392.5133304
20
304.8007877
40
6.7769723
50
282.5876383
51
285.5795268
0
ARC
8
right_labelLayer
10
393.0142242
20
302.9585906
40
4.8679477
50
285.7240514
51
286.2565691
0
ARC
8
right_labelLayer
10
393.0138596
20
298.6878208
40
3.1890127
50
287.9888003
51
295.3048452
0
ARC
8
right_labelLayer
10
392.2446964
20
301.0148835
40
5.6398776
50
283.3069101
51
288.1198
0
ARC
8
right_labelLayer
10
391.4321402
20
304.4042852
40
9.1253075
50
280.0070079
51
283.3735352
0
ARC
8
right_labelLayer
10
390.8880248
20
307.3573072
40
12.127975
50
279.1864031
51
280.114225
0
ARC
8
right_labelLayer
10
390.5547704
20
309.2527342
40
14.0523194
50
275.5260139
51
279.2939672
0
ARC
8
right_labelLayer
10
390.9308125
20
305.3248923
40
10.1065206
50
270.8932467
51
275.5483935
0
ARC
8
right_labelLayer
10
390.9780588
20
303.5306202
40
8.3117522
50
270.0031492
51
270.7604201
0
ARC
8
right_labelLayer
10
390.8476834
20
303.6859747
40
8.4681176
50
253.7847919
51
270.8852537
0
ARC
8
right_labelLayer
10
389.8444368
20
300.2645229
40
4.9026264
50
190.3817674
51
253.8772384
0
ARC
8
right_labelLayer
10
394.9579636
20
301.6471309
40
10.191031
50
179.3550907
51
192.8477645
0
ARC
8
right_labelLayer
10
394.5383333
20
301.8577242
40
6.5286954
50
179.6416642
51
189.7505901
0
ARC
8
right_labelLayer
10
392.2335824
20
301.446645
40
4.1876443
50
189.5479704
51
205.7873484
0
ARC
8
right_labelLayer
10
391.2864226
20
301.0098825
40
3.1448578
50
206.1294578
51
221.4083873
0
ARC
8
right_labelLayer
10
391.1802158
20
300.9292942
40
3.0119144
50
221.5949107
51
262.3505242
0
ARC
8
right_labelLayer
10
391.4327947
20
302.2281419
40
4.3335169
50
261.3266111
51
270.1913275
0
LINE
8
bottom_outsideCutPath
10
512
20
600
11
512
21
582
0
LINE
8
bottom_outsideCutPath
10
512
20
582
11
506
21
582
0
LINE
8
bottom_outsideCutPath
10
506
20
582
11
506
21
570
0
LINE
8
bottom_outsideCutPath
10
506
20
570
11
512
21
570
0
LINE
8
bottom_outsideCutPath
10
512
20
570
11
512
21
558
0
LINE
8
bottom_outsideCutPath
10
512
20
558
11
506
21
558
0
LINE
8
bottom_outsideCutPath
10
506
20
558
11
506
21
546
0
LINE
8
bottom_outsideCutPath
10
506
20
546
11
512
21
546
0
LINE
8
bottom_outsideCutPath
10
512
20
546
11
512
21
534
0
LINE
8
bottom_outsideCutPath
10
512
20
534
11
506
21
534
0
LINE
8
bottom_outsideCutPath
10
506
20
534
11
506
21
522
0
LINE
8
bottom_outsideCutPath
10
506
20
522
11
512
21
522
0
LINE
8
bottom_outsideCutPath
10
512
20
522
11
512
21
510
0
LINE
8
bottom_outsideCutPath
10
512
20
510
11
506
21
510
0
LINE
8
bottom_outsideCutPath
10
506
20
510
11
506
21
498
0
LINE
8
bottom_outsideCutPath
10
506
20
498
11
512
21
498
0
LINE
8
bottom_outsideCutPath
10
512
20
498
11
512
21
486
0
LINE
8
bottom_outsideCutPath
10
512
20
486
11
506
21
486
0
LINE
8
bottom_outsideCutPath
10
506
20
486
11
506
21
474
0
LINE
8
bottom_outsideCutPath
10
506
20
474
11
512
21
474
0
LINE
8
bottom_outsideCutPath
10
512
20
474
11
512
21
462
0
LINE
8
bottom_outsideCutPath
10
512
20
462
11
506
21
462
0
LINE
8
bottom_outsideCutPath
10
506
20
462
11
506
21
450
0
LINE
8
bottom_outsideCutPath
10
506
20
450
11
512
21
450
0
LINE
8
bottom_outsideCutPath
10
512
20
450
11
512
21
438
0
LINE
8
bottom_outsideCutPath
10
512
20
438
11
506
21
438
0
LINE
8
bottom_outsideCutPath
10
506
20
438
11
506
21
426
0
LINE
8
bottom_outsideCutPath
10
506
20
426
11
512
21
426
0
LINE
8
bottom_outsideCutPath
10
512
20
426
11
512
21
414
0
LINE
8
bottom_outsideCutPath
10
512
20
414
11
506
21
414
0
LINE
8
bottom_outsideCutPath
10
506
20
414
11
506
21
402
0
LINE
8
bottom_outsideCutPath
10
506
20
402
11
512
21
402
0
LINE
8
bottom_outsideCutPath
10
512
20
402
11
512
21
390
0
LINE
8
bottom_outsideCutPath
10
512
20
390
11
506
21
390
0
LINE
8
bottom_outsideCutPath
10
506
20
390
11
506
21
378
0
LINE
8
bottom_outsideCutPath
10
506
20
378
11
512
21
378
0
LINE
8
bottom_outsideCutPath
10
512
20
378
11
512
21
366
0
LINE
8
bottom_outsideCutPath
10
512
20
366
11
506
21
366
0
LINE
8
bottom_outsideCutPath
10
506
20
366
11
506
21
354
0
LINE
8
bottom_outsideCutPath
10
506
20
354
11
512
21
354
0
LINE
8
bottom_outsideCutPath
10
512
20
354
11
512
21
342
0
LINE
8
bottom_outsideCutPath
10
512
20
342
11
506
21
342
0
LINE
8
bottom_outsideCutPath
10
506
20
342
11
506
21
330
0
LINE
8
bottom_outsideCutPath
10
506
20
330
11
512
21
330
0
LINE
8
bottom_outsideCutPath
10
512
20
330
11
512
21
318
0
LINE
8
bottom_outsideCutPath
10
512
20
318
11
512
21
312
0
LINE
8
bottom_outsideCutPath
10
512
20
312
11
528
21
312
0
LINE
8
bottom_outsideCutPath
10
528
20
312
11
528
21
306
0
LINE
8
bottom_outsideCutPath
10
528
20
306
11
540
21
306
0
LINE
8
bottom_outsideCutPath
10
540
20
306
11
540
21
312
0
LINE
8
bottom_outsideCutPath
10
540
20
312
11
552
21
312
0
LINE
8
bottom_outsideCutPath
10
552
20
312
11
552
21
306
0
LINE
8
bottom_outsideCutPath
10
552
20
306
11
564
21
306
0
LINE
8
bottom_outsideCutPath
10
564
20
306
11
564
21
312
0
LINE
8
bottom_outsideCutPath
10
564
20
312
11
576
21
312
0
LINE
8
bottom_outsideCutPath
10
576
20
312
11
576
21
306
0
LINE
8
bottom_outsideCutPath
10
576
20
306
11
588
21
306
0
LINE
8
bottom_outsideCutPath
10
588
20
306
11
588
21
312
0
LINE
8
bottom_outsideCutPath
10
588
20
312
11
600
21
312
0
LINE
8
bottom_outsideCutPath
10
600
20
312
11
600
21
306
0
LINE
8
bottom_outsideCutPath
10
600
20
306
11
612
21
306
0
LINE
8
bottom_outsideCutPath
10
612
20
306
11
612
21
312
0
LINE
8
bottom_outsideCutPath
10
612
20
312
11
624
21
312
0
LINE
8
bottom_outsideCutPath
10
624
20
312
11
624
21
306
0
LINE
8
bottom_outsideCutPath
10
624
20
306
11
636
21
306
0
LINE
8
bottom_outsideCutPath
10
636
20
306
11
636
21
312
0
LINE
8
bottom_outsideCutPath
10
636
20
312
11
648
21
312
0
LINE
8
bottom_outsideCutPath
10
648
20
312
11
648
21
306
0
LINE
8
bottom_outsideCutPath
10
648
20
306
11
660
21
306
0
LINE
8
bottom_outsideCutPath
10
660
20
306
11
660
21
312
0
LINE
8
bottom_outsideCutPath
10
660
20
312
11
672
21
312
0
LINE
8
bottom_outsideCutPath
10
672
20
312
11
672
21
306
0
LINE
8
bottom_outsideCutPath
10
672
20
306
11
684
21
306
0
LINE
8
bottom_outsideCutPath
10
684
20
306
11
684
21
312
0
LINE
8
bottom_outsideCutPath
10
684
20
312
11
696
21
312
0
LINE
8
bottom_outsideCutPath
10
696
20
312
11
700
21
312
0
LINE
8
bottom_outsideCutPath
10
700
20
312
11
700
21
330
0
LINE
8
bottom_outsideCutPath
10
700
20
330
11
706
21
330
0
LINE
8
bottom_outsideCutPath
10
706
20
330
11
706
21
342
0
LINE
8
bottom_outsideCutPath
10
706
20
342
11
700
21
342
0
LINE
8
bottom_outsideCutPath
10
700
20
342
11
700
21
354
0
LINE
8
bottom_outsideCutPath
10
700
20
354
11
706
21
354
0
LINE
8
bottom_outsideCutPath
10
706
20
354
11
706
21
366
0
LINE
8
bottom_outsideCutPath
10
706
20
366
11
700
21
366
0
LINE
8
bottom_outsideCutPath
10
700
20
366
11
700
21
378
0
LINE
8
bottom_outsideCutPath
10
700
20
378
11
706
21
378
0
LINE
8
bottom_outsideCutPath
10
706
20
378
11
706
21
390
0
LINE
8
bottom_outsideCutPath
10
706
20
390
11
700
21
390
0
LINE
8
bottom_outsideCutPath
10
700
20
390
11
700
21
402
0
LINE
8
bottom_outsideCutPath
10
700
20
402
11
706
21
402
0
LINE
8
bottom_outsideCutPath
10
706
20
402
11
706
21
414
0
LINE
8
bottom_outsideCutPath
10
706
20
414
11
700
21
414
0
LINE
8
bottom_outsideCutPath
10
700
20
414
11
700
21
426
0
LINE
8
bottom_outsideCutPath
10
700
20
426
11
706
21
426
0
LINE
8
bottom_outsideCutPath
10
706
20
426
11
706
21
438
0
LINE
8
bottom_outsideCutPath
10
706
20
438
11
700
21
438
0
LINE
8
bottom_outsideCutPath
10
700
20
438
11
700
21
450
0
LINE
8
bottom_outsideCutPath
10
700
20
450
11
706
21
450
0
LINE
8
bottom_outsideCutPath
10
706
20
450
11
706
21
462
0
LINE
8
bottom_outsideCutPath
10
706
20
462
11
700
21
462
0
LINE
8
bottom_outsideCutPath
10
700
20
462
11
700
21
474
0
LINE
8
bottom_outsideCutPath
10
700
20
474
11
706
21
474
0
LINE
8
bottom_outsideCutPath
10
706
20
474
11
706
21
486
0
LINE
8
bottom_outsideCutPath
10
706
20
486
11
700
21
486
0
LINE
8
bottom_outsideCutPath
10
700
20
486
11
700
21
498
0
LINE
8
bottom_outsideCutPath
10
700
20
498
11
706
21
498
0
LINE
8
bottom_outsideCutPath
10
706
20
498
11
706
21
510
0
LINE
8
bottom_outsideCutPath
10
706
20
510
11
700
21
510
0
LINE
8
bottom_outsideCutPath
10
700
20
510
11
700
21
522
0
LINE
8
bottom_outsideCutPath
10
700
20
522
11
706
21
522
0
LINE
8
bottom_outsideCutPath
10
706
20
522
11
706
21
534
0
LINE
8
bottom_outsideCutPath
10
706
20
534
11
700
21
534
0
LINE
8
bottom_outsideCutPath
10
700
20
534
11
700
21
546
0
LINE
8
bottom_outsideCutPath
10
700
20
546
11
706
21
546
0
LINE
8
bottom_outsideCutPath
10
706
20
546
11
706
21
558
0
LINE
8
bottom_outsideCutPath
10
706
20
558
11
700
21
558
0
LINE
8
bottom_outsideCutPath
10
700
20
558
11
700
21
570
0
LINE
8
bottom_outsideCutPath
10
700
20
570
11
706
21
570
0
LINE
8
bottom_outsideCutPath
10
706
20
570
11
706
21
582
0
LINE
8
bottom_outsideCutPath
10
706
20
582
11
700
21
582
0
LINE
8
bottom_outsideCutPath
10
700
20
582
11
700
21
594
0
LINE
8
bottom_outsideCutPath
10
700
20
594
11
700
21
600
0
LINE
8
bottom_outsideCutPath
10
700
20
600
11
684
21
600
0
LINE
8
bottom_outsideCutPath
10
684
20
600
11
684
21
606
0
LINE
8
bottom_outsideCutPath
10
684
20
606
11
672
21
606
0
LINE
8
bottom_outsideCutPath
10
672
20
606
11
672
21
600
0
LINE
8
bottom_outsideCutPath
10
672
20
600
11
660
21
600
0
LINE
8
bottom_outsideCutPath
10
660
20
600
11
660
21
606
0
LINE
8
bottom_outsideCutPath
10
660
20
606
11
648
21
606
0
LINE
8
bottom_outsideCutPath
10
648
20
606
11
648
21
600
0
LINE
8
bottom_outsideCutPath
10
648
20
600
11
636
21
600
0
LINE
8
bottom_outsideCutPath
10
636
20
600
11
636
21
606
0
LINE
8
bottom_outsideCutPath
10
636
20
606
11
624
21
606
0
LINE
8
bottom_outsideCutPath
10
624
20
606
11
624
21
600
0
LINE
8
bottom_outsideCutPath
10
624
20
600
11
612
21
600
0
LINE
8
bottom_outsideCutPath
10
612
20
600
11
612
21
606
0
LINE
8
bottom_outsideCutPath
10
612
20
606
11
600
21
606
0
LINE
8
bottom_outsideCutPath
10
600
20
606
11
600
21
600
0
LINE
8
bottom_outsideCutPath
10
600
20
600
11
588
21
600
0
LINE
8
bottom_outsideCutPath
10
588
20
600
11
588
21
606
0
LINE
8
bottom_outsideCutPath
10
588
20
606
11
576
21
606
0
LINE
8
bottom_outsideCutPath
10
576
20
606
11
576
21
600
0
LINE
8
bottom_outsideCutPath
10
576
20
600
11
564
21
600
0
LINE
8
bottom_outsideCutPath
10
564
20
600
11
564
21
606
0
LINE
8
bottom_outsideCutPath
10
564
20
606
11
552
21
606
0
LINE
8
bottom_outsideCutPath
10
552
20
606
11
552
21
600
0
LINE
8
bottom_outsideCutPath
10
552
20
600
11
540
21
600
0
LINE
8
bottom_outsideCutPath
10
540
20
600
11
540
21
606
0
LINE
8
bottom_outsideCutPath
10
540
20
606
11
528
21
606
0
LINE
8
bottom_outsideCutPath
10
528
20
606
11
528
21
600
0
LINE
8
bottom_outsideCutPath
10
528
20
600
11
516
21
600
0
LINE
8
bottom_outsideCutPath
10
516
20
600
11
512
21
600
0
LINE
8
bottom_labelLayer
10
543.4413114
20
443.7544116
11
543.2069364
21
443.7544116
0
LINE
8
bottom_labelLayer
10
543.2069364
20
443.7544116
11
542.5233427
21
441.0005054
0
LINE
8
bottom_labelLayer
10
542.5233427
20
441.0005054
11
540.1991239
21
441.0005054
0
LINE
8
bottom_labelLayer
10
540.1991239
20
441.0005054
11
540.1991239
21
471.3911304
0
LINE
8
bottom_labelLayer
10
540.1991239
20
471.3911304
11
543.4413114
21
471.3911304
0
LINE
8
bottom_labelLayer
10
543.4413114
20
471.3911304
11
543.4413114
21
464.0083179
0
LINE
8
bottom_labelLayer
10
543.2850614
20
459.5551929
11
543.4413114
21
459.5551929
0
ARC
8
bottom_labelLayer
10
550.2573227
20
452.849542
40
9.9092532
50
74.2393364
51
90.5623784
0
ARC
8
bottom_labelLayer
10
550.9125561
20
455.2532961
40
7.4179282
50
38.563129
51
74.0670384
0
ARC
8
bottom_labelLayer
10
549.226348
20
453.9421709
40
9.553771
50
16.4709264
51
38.4075301
0
ARC
8
bottom_labelLayer
10
544.3686308
20
452.4189329
40
14.644265
50
5.1338428
51
16.7973384
0
ARC
8
bottom_labelLayer
10
538.236204
20
451.7675013
40
20.8106234
50
359.8779239
51
5.4093639
0
ARC
8
bottom_labelLayer
10
540.0374112
20
451.611008
40
19.0096999
50
350.6562847
51
0.338036
0
ARC
8
bottom_labelLayer
10
546.6645117
20
450.483811
40
12.2875722
50
335.8305888
51
350.8254888
0
ARC
8
bottom_labelLayer
10
549.5796414
20
449.225599
40
9.1129431
50
321.3161437
51
335.5436139
0
ARC
8
bottom_labelLayer
10
550.694118
20
448.3174692
40
7.6753836
50
274.0640059
51
321.4081022
0
ARC
8
bottom_labelLayer
10
550.1749231
20
451.6062102
40
10.9963399
50
269.9225642
51
275.5481767
0
ARC
8
bottom_labelLayer
10
550.1053856
20
450.4439809
40
9.8342526
50
255.7755372
51
270.3185509
0
ARC
8
bottom_labelLayer
10
549.8247456
20
449.1971243
40
8.5567335
50
245.9801612
51
255.5455732
0
ARC
8
bottom_labelLayer
10
549.2811683
20
447.9330298
40
7.1808618
50
215.5850217
51
245.8361615
0
ARC
8
bottom_labelLayer
10
475.8441361
20
463.9511716
40
67.5971995
50
358.1123241
51
0.0484375
0
ARC
8
bottom_labelLayer
10
494.6575329
20
463.319558
40
48.7732081
50
355.7238661
51
358.1258968
0
ARC
8
bottom_labelLayer
10
502.9633869
20
462.748727
40
40.4479432
50
355.4715455
51
355.6529398
0
ARC
8
bottom_labelLayer
10
549.4878497
20
455.3387792
40
7.3714835
50
95.1835124
51
145.1108994
0
ARC
8
bottom_labelLayer
10
550.1357766
20
451.6850658
40
11.0732789
50
89.8743444
51
96.8145428
0
ARC
8
bottom_labelLayer
10
549.6234345
20
450.9329101
40
9.1108169
50
89.5731341
51
100.732428
0
ARC
8
bottom_labelLayer
10
548.9489799
20
454.3404863
40
5.6373187
50
100.446944
51
119.6700751
0
ARC
8
bottom_labelLayer
10
548.3235571
20
455.5097884
40
4.3118815
50
120.1402923
51
142.4248974
0
ARC
8
bottom_labelLayer
10
549.3582657
20
454.8252947
40
5.5500545
50
143.3382269
51
161.2559915
0
ARC
8
bottom_labelLayer
10
553.6852454
20
453.2890732
40
10.1414014
50
160.8926435
51
171.2334238
0
ARC
8
bottom_labelLayer
10
560.9086314
20
452.1237747
40
17.4580761
50
171.0667895
51
177.8456849
0
ARC
8
bottom_labelLayer
10
568.421
20
451.7417012
40
24.9796954
50
177.6176779
51
180.0425242
0
ARC
8
bottom_labelLayer
10
564.8781926
20
451.6394518
40
21.4370446
50
179.7762644
51
185.7075319
0
ARC
8
bottom_labelLayer
10
556.4263667
20
450.7686127
40
12.9405392
50
185.5924881
51
194.2050626
0
ARC
8
bottom_labelLayer
10
551.012165
20
449.3634411
40
7.3471414
50
193.9430431
51
208.0218413
0
ARC
8
bottom_labelLayer
10
548.8215518
20
448.2490141
40
4.8899808
50
208.5536435
51
217.5605597
0
ARC
8
bottom_labelLayer
10
548.6430948
20
448.1747928
40
4.7035364
50
218.1690497
51
253.8047105
0
ARC
8
bottom_labelLayer
10
549.5155082
20
450.8645314
40
7.5303731
50
253.1382386
51
266.8483141
0
ARC
8
bottom_labelLayer
10
549.7601477
20
453.7495972
40
10.4248771
50
266.3775722
51
270.0510514
0
ARC
8
bottom_labelLayer
10
549.8385965
20
449.7876232
40
6.4632692
50
269.386896
51
285.8630704
0
ARC
8
bottom_labelLayer
10
550.3187771
20
448.0521864
40
4.6626864
50
286.0162899
51
326.849735
0
ARC
8
bottom_labelLayer
10
548.0011765
20
449.5875121
40
7.4426671
50
326.7105034
51
343.6661728
0
ARC
8
bottom_labelLayer
10
543.662758
20
450.9131893
40
11.9789222
50
343.4171465
51
353.636913
0
ARC
8
bottom_labelLayer
10
537.1100545
20
451.690715
40
18.5774884
50
353.493474
51
0.2205455
0
ARC
8
bottom_labelLayer
10
536.5324707
20
451.839761
40
19.1550914
50
359.7680748
51
6.30953
0
ARC
8
bottom_labelLayer
10
543.7477746
20
452.6677625
40
11.8925337
50
6.164867
51
16.0396384
0
ARC
8
bottom_labelLayer
10
548.39579
20
454.0375305
40
7.0470653
50
15.7779461
51
32.0151261
0
ARC
8
bottom_labelLayer
10
549.8452406
20
454.8675841
40
5.3784052
50
32.7033974
51
35.524251
0
ARC
8
bottom_labelLayer
10
550.375316
20
455.2443395
40
4.7280803
50
35.5408422
51
79.8011252
0
ARC
8
bottom_labelLayer
10
549.7403821
20
452.5451077
40
7.498527
50
78.6781351
51
90.3749487
0
ARC
8
bottom_labelLayer
10
566.4405641
20
451.610259
40
16.7472217
50
349.1761914
51
0.3862666
0
ARC
8
bottom_labelLayer
10
572.0789537
20
450.4862357
40
10.998156
50
330.2507055
51
349.4116437
0
ARC
8
bottom_labelLayer
10
573.8141615
20
449.5843448
40
9.0444529
50
318.1439772
51
329.7566141
0
ARC
8
bottom_labelLayer
10
574.1273496
20
449.3333557
40
8.6437358
50
278.8959152
51
317.9979127
0
ARC
8
bottom_labelLayer
10
573.320399
20
453.1995337
40
12.5897728
50
269.7502922
51
279.8033185
0
ARC
8
bottom_labelLayer
10
573.1895281
20
451.021172
40
10.4115691
50
253.5436902
51
270.4182498
0
ARC
8
bottom_labelLayer
10
572.842952
20
449.6805248
40
9.0277851
50
238.8115622
51
253.2428275
0
ARC
8
bottom_labelLayer
10
572.7310957
20
449.4555798
40
8.7774509
50
207.7947035
51
238.6757932
0
ARC
8
bottom_labelLayer
10
574.3360645
20
450.4385527
40
10.6562989
50
205.6560185
51
208.4461418
0
ARC
8
bottom_labelLayer
10
575.572376
20
450.9536839
40
11.9939667
50
188.9102462
51
205.3171411
0
ARC
8
bottom_labelLayer
10
579.7386451
20
451.6593172
40
16.2193343
50
179.7744651
51
189.0932919
0
ARC
8
bottom_labelLayer
10
580.3532539
20
451.8371825
40
16.8342037
50
169.244298
51
180.388077
0
ARC
8
bottom_labelLayer
10
574.636491
20
452.967179
40
11.0070767
50
150.7111535
51
169.4695443
0
ARC
8
bottom_labelLayer
10
572.8115178
20
453.9043694
40
8.9572318
50
138.1759422
51
150.2287436
0
ARC
8
bottom_labelLayer
10
572.5079509
20
454.1373213
40
8.5757205
50
99.1759366
51
137.9832747
0
ARC
8
bottom_labelLayer
10
573.3434882
20
450.2051821
40
12.5923353
50
89.7326345
51
100.0759754
0
ARC
8
bottom_labelLayer
10
573.510483
20
451.9033436
40
10.8945744
50
73.5222762
51
90.5692242
0
ARC
8
bottom_labelLayer
10
574.1493867
20
454.2246487
40
8.4875082
50
41.1445613
51
73.2133882
0
ARC
8
bottom_labelLayer
10
572.929772
20
453.1764056
40
10.095653
50
13.501438
51
41.0703422
0
ARC
8
bottom_labelLayer
10
568.2178254
20
451.9433507
40
14.9655881
50
1.1277152
51
13.8800077
0
ARC
8
bottom_labelLayer
10
564.1592613
20
451.7258516
40
19.0281441
50
359.9919
51
1.5419869
0
ARC
8
bottom_labelLayer
10
583.2969784
20
451.6389044
40
16.4183832
50
179.7059633
51
187.9160742
0
ARC
8
bottom_labelLayer
10
577.2752221
20
450.7738857
40
10.3349129
50
187.7639221
51
200.0976823
0
ARC
8
bottom_labelLayer
10
573.9578634
20
449.558402
40
6.8018877
50
200.0845909
51
216.9131622
0
ARC
8
bottom_labelLayer
10
572.7464812
20
448.6934179
40
5.31394
50
217.3009524
51
261.7099121
0
ARC
8
bottom_labelLayer
10
573.3088477
20
451.376973
40
8.0523242
50
260.5033178
51
270.2476713
0
ARC
8
bottom_labelLayer
10
573.4161856
20
450.8551446
40
7.5307698
50
269.4481634
51
284.7255676
0
ARC
8
bottom_labelLayer
10
574.0123525
20
448.6441545
40
5.2408817
50
284.5662286
51
322.6333842
0
ARC
8
bottom_labelLayer
10
572.618488
20
449.6511606
40
6.9599955
50
323.0089188
51
342.6390535
0
ARC
8
bottom_labelLayer
10
568.6317277
20
450.9541492
40
11.1540646
50
342.3615698
51
353.7537633
0
ARC
8
bottom_labelLayer
10
562.7499259
20
451.6631231
40
17.0782096
50
353.536312
51
0.2014239
0
ARC
8
bottom_labelLayer
10
563.6511018
20
451.8057302
40
16.1771391
50
359.7075596
51
7.8972675
0
ARC
8
bottom_labelLayer
10
569.5756216
20
452.6550648
40
10.1921474
50
7.7439872
51
20.0690174
0
ARC
8
bottom_labelLayer
10
572.8769945
20
453.8665441
40
6.6755145
50
20.0257072
51
37.4350486
0
ARC
8
bottom_labelLayer
10
573.9723671
20
454.6438042
40
5.3334969
50
37.9577619
51
80.4006227
0
ARC
8
bottom_labelLayer
10
573.3499029
20
451.8664365
40
8.1771633
50
79.3453381
51
90.3174814
0
ARC
8
bottom_labelLayer
10
573.2346448
20
452.3277609
40
7.7160303
50
89.4805916
51
103.880499
0
ARC
8
bottom_labelLayer
10
572.5862991
20
454.7966607
40
5.1638235
50
103.4685193
51
142.3118911
0
ARC
8
bottom_labelLayer
10
573.8467401
20
453.9102296
40
6.7035612
50
142.902582
51
162.3749538
0
ARC
8
bottom_labelLayer
10
577.8183842
20
452.5866913
40
10.8896786
50
162.0653199
51
173.1674776
0
ARC
8
bottom_labelLayer
10
584.0111977
20
451.7968352
40
17.1325447
50
173.0086159
51
180.2463847
0
LINE
8
bottom_labelLayer
10
598.7147489
20
443.6762866
11
598.7147489
21
441.1958179
0
LINE
8
bottom_labelLayer
10
589.1053739
20
447.1528491
11
589.1053739
21
459.8872241
0
LINE
8
bottom_labelLayer
10
589.1053739
20
459.8872241
11
586.0389677
21
459.8872241
0
LINE
8
bottom_labelLayer
10
586.0389677
20
459.8872241
11
586.0389677
21
461.4497241
0
LINE
8
bottom_labelLayer
10
586.0389677
20
461.4497241
11
589.1053739
21
462.7973804
0
LINE
8
bottom_labelLayer
10
589.1053739
20
462.7973804
11
590.4725614
21
467.3676929
0
LINE
8
bottom_labelLayer
10
590.4725614
20
467.3676929
11
592.3475614
21
467.3676929
0
LINE
8
bottom_labelLayer
10
592.3475614
20
467.3676929
11
592.3475614
21
462.4067554
0
LINE
8
bottom_labelLayer
10
592.3475614
20
462.4067554
11
598.5584989
21
462.4067554
0
LINE
8
bottom_labelLayer
10
598.5584989
20
462.4067554
11
598.5584989
21
459.8872241
0
LINE
8
bottom_labelLayer
10
598.5584989
20
459.8872241
11
592.3475614
21
459.8872241
0
LINE
8
bottom_labelLayer
10
592.3475614
20
459.8872241
11
592.3475614
21
447.2895679
0
ARC
8
bottom_labelLayer
10
595.8072959
20
453.9334235
40
10.6477851
50
269.8803559
51
278.3028353
0
ARC
8
bottom_labelLayer
10
595.9088341
20
453.1040886
40
9.8124991
50
278.4154494
51
279.0081024
0
ARC
8
bottom_labelLayer
10
594.7141046
20
460.7365266
40
17.5378705
50
278.9589396
51
280.5104777
0
ARC
8
bottom_labelLayer
10
595.8525397
20
454.6282099
40
11.3243749
50
280.4847583
51
282.6268276
0
ARC
8
bottom_labelLayer
10
596.8511263
20
450.1918002
40
6.7769723
50
282.5876383
51
285.5795268
0
ARC
8
bottom_labelLayer
10
597.35202
20
448.3496031
40
4.8679477
50
285.7240514
51
286.2565691
0
ARC
8
bottom_labelLayer
10
597.3516555
20
444.0788333
40
3.1890127
50
287.9888003
51
295.3048452
0
ARC
8
bottom_labelLayer
10
596.5824922
20
446.405896
40
5.6398776
50
283.3069101
51
288.1198
0
ARC
8
bottom_labelLayer
10
595.7699361
20
449.7952977
40
9.1253075
50
280.0070079
51
283.3735352
0
ARC
8
bottom_labelLayer
10
595.2258206
20
452.7483197
40
12.127975
50
279.1864031
51
280.114225
0
ARC
8
bottom_labelLayer
10
594.8925662
20
454.6437467
40
14.0523194
50
275.5260139
51
279.2939672
0
ARC
8
bottom_labelLayer
10
595.2686083
20
450.7159048
40
10.1065206
50
270.8932467
51
275.5483935
0
ARC
8
bottom_labelLayer
10
595.3158546
20
448.9216327
40
8.3117522
50
270.0031492
51
270.7604201
0
ARC
8
bottom_labelLayer
10
595.1854792
20
449.0769872
40
8.4681176
50
253.7847919
51
270.8852537
0
ARC
8
bottom_labelLayer
10
594.1822326
20
445.6555354
40
4.9026264
50
190.3817674
51
253.8772384
0
ARC
8
bottom_labelLayer
10
599.2957594
20
447.0381434
40
10.191031
50
179.3550907
51
192.8477645
0
ARC
8
bottom_labelLayer
10
598.8761291
20
447.2487368
40
6.5286954
50
179.6416642
51
189.7505901
0
ARC
8
bottom_labelLayer
10
596.5713783
20
446.8376576
40
4.1876443
50
189.5479704
51
205.7873484
0
ARC
8
bottom_labelLayer
10
595.6242184
20
446.400895
40
3.1448578
50
206.1294578
51
221.4083873
0
ARC
8
bottom_labelLayer
10
595.5180116
20
446.3203067
40
3.0119144
50
221.5949107
51
262.3505242
0
ARC
8
bottom_labelLayer
10
595.7705906
20
447.6191544
40
4.3335169
50
261.3266111
51
270.1913275
0
LINE
8
bottom_labelLayer
10
612.8358427
20
443.6762866
11
612.8358427
21
441.1958179
0
LINE
8
bottom_labelLayer
10
603.2264677
20
447.1528491
11
603.2264677
21
459.8872241
0
LINE
8
bottom_labelLayer
10
603.2264677
20
459.8872241
11
600.1600614
21
459.8872241
0
LINE
8
bottom_labelLayer
10
600.1600614
20
459.8872241
11
600.1600614
21
461.4497241
0
LINE
8
bottom_labelLayer
10
600.1600614
20
461.4497241
11
603.2264677
21
462.7973804
0
LINE
8
bottom_labelLayer
10
603.2264677
20
462.7973804
11
604.5936552
21
467.3676929
0
LINE
8
bottom_labelLayer
10
604.5936552
20
467.3676929
11
606.4686552
21
467.3676929
0
LINE
8
bottom_labelLayer
10
606.4686552
20
467.3676929
11
606.4686552
21
462.4067554
0
LINE
8
bottom_labelLayer
10
606.4686552
20
462.4067554
11
612.6795927
21
462.4067554
0
LINE
8
bottom_labelLayer
10
612.6795927
20
462.4067554
11
612.6795927
21
459.8872241
0
LINE
8
bottom_labelLayer
10
612.6795927
20
459.8872241
11
606.4686552
21
459.8872241
0
LINE
8
bottom_labelLayer
10
606.4686552
20
459.8872241
11
606.4686552
21
447.2895679
0
ARC
8
bottom_labelLayer
10
609.9283897
20
453.9334235
40
10.6477851
50
269.8803559
51
278.3028353
0
ARC
8
bottom_labelLayer
10
610.0299279
20
453.1040886
40
9.8124991
50
278.4154494
51
279.0081024
0
ARC
8
bottom_labelLayer
10
608.8351983
20
460.7365266
40
17.5378705
50
278.9589396
51
280.5104777
0
ARC
8
bottom_labelLayer
10
609.9736335
20
454.6282099
40
11.3243749
50
280.4847583
51
282.6268276
0
ARC
8
bottom_labelLayer
10
610.97222
20
450.1918002
40
6.7769723
50
282.5876383
51
285.5795268
0
ARC
8
bottom_labelLayer
10
611.4731138
20
448.3496031
40
4.8679477
50
285.7240514
51
286.2565691
0
ARC
8
bottom_labelLayer
10
611.4727492
20
444.0788333
40
3.1890127
50
287.9888003
51
295.3048452
0
ARC
8
bottom_labelLayer
10
610.703586
20
446.405896
40
5.6398776
50
283.3069101
51
288.1198
0
ARC
8
bottom_labelLayer
10
609.8910298
20
449.7952977
40
9.1253075
50
280.0070079
51
283.3735352
0
ARC
8
bottom_labelLayer
10
609.3469144
20
452.7483197
40
12.127975
50
279.1864031
51
280.114225
0
ARC
8
bottom_labelLayer
10
609.0136599
20
454.6437467
40
14.0523194
50
275.5260139
51
279.2939672
0
ARC
8
bottom_labelLayer
10
609.389702
20
450.7159048
40
10.1065206
50
270.8932467
51
275.5483935
0
ARC
8
bottom_labelLayer
10
609.4369483
20
448.9216327
40
8.3117522
50
270.0031492
51
270.7604201
0
ARC
8
bottom_labelLayer
10
609.306573
20
449.0769872
40
8.4681176
50
253.7847919
51
270.8852537
0
ARC
8
bottom_labelLayer
10
608.3033263
20
445.6555354
40
4.9026264
50
190.3817674
51
253.8772384
0
ARC
8
bottom_labelLayer
10
613.4168532
20
447.0381434
40
10.191031
50
179.3550907
51
192.8477645
0
ARC
8
bottom_labelLayer
10
612.9972229
20
447.2487368
40
6.5286954
50
179.6416642
51
189.7505901
0
ARC
8
bottom_labelLayer
10
610.692472
20
446.8376576
40
4.1876443
50
189.5479704
51
205.7873484
0
ARC
8
bottom_labelLayer
10
609.7453122
20
446.400895
40
3.1448578
50
206.1294578
51
221.4083873
0
ARC
8
bottom_labelLayer
10
609.6391054
20
446.3203067
40
3.0119144
50
221.5949107
51
262.3505242
0
ARC
8
bottom_labelLayer
10
609.8916843
20
447.6191544
40
4.3335169
50
261.3266111
51
270.1913275
0
ARC
8
bottom_labelLayer
10
618.8429078
20
451.610259
40
16.7472217
50
349.1761914
51
0.3862666
0
ARC
8
bottom_labelLayer
10
624.4812974
20
450.4862357
40
10.998156
50
330.2507055
51
349.4116437
0
ARC
8
bottom_labelLayer
10
626.2165053
20
449.5843448
40
9.0444529
50
318.1439772
51
329.7566141
0
ARC
8
bottom_labelLayer
10
626.5296933
20
449.3333557
40
8.6437358
50
278.8959152
51
317.9979127
0
ARC
8
bottom_labelLayer
10
625.7227428
20
453.1995337
40
12.5897728
50
269.7502922
51
279.8033185
0
ARC
8
bottom_labelLayer
10
625.5918719
20
451.021172
40
10.4115691
50
253.5436902
51
270.4182498
0
ARC
8
bottom_labelLayer
10
625.2452958
20
449.6805248
40
9.0277851
50
238.8115622
51
253.2428275
0
ARC
8
bottom_labelLayer
10
625.1334394
20
449.4555798
40
8.7774509
50
207.7947035
51
238.6757932
0
ARC
8
bottom_labelLayer
10
626.7384082
20
450.4385527
40
10.6562989
50
205.6560185
51
208.4461418
0
ARC
8
bottom_labelLayer
10
627.9747197
20
450.9536839
40
11.9939667
50
188.9102462
51
205.3171411
0
ARC
8
bottom_labelLayer
10
632.1409888
20
451.6593172
40
16.2193343
50
179.7744651
51
189.0932919
0
ARC
8
bottom_labelLayer
10
632.7555977
20
451.8371825
40
16.8342037
50
169.244298
51
180.388077
0
ARC
8
bottom_labelLayer
10
627.0388347
20
452.967179
40
11.0070767
50
150.7111535
51
169.4695443
0
ARC
8
bottom_labelLayer
10
625.2138616
20
453.9043694
40
8.9572318
50
138.1759422
51
150.2287436
0
ARC
8
bottom_labelLayer
10
624.9102947
20
454.1373213
40
8.5757205
50
99.1759366
51
137.9832747
0
ARC
8
bottom_labelLayer
10
625.7458319
20
450.2051821
40
12.5923353
50
89.7326345
51
100.0759754
0
ARC
8
bottom_labelLayer
10
625.9128267
20
451.9033436
40
10.8945744
50
73.5222762
51
90.5692242
0
ARC
8
bottom_labelLayer
10
626.5517304
20
454.2246487
40
8.4875082
50
41.1445613
51
73.2133882
0
ARC
8
bottom_labelLayer
10
625.3321157
20
453.1764056
40
10.095653
50
13.501438
51
41.0703422
0
ARC
8
bottom_labelLayer
10
620.6201692
20
451.9433507
40
14.9655881
50
1.1277152
51
13.8800077
0
ARC
8
bottom_labelLayer
10
616.561605
20
451.7258516
40
19.0281441
50
359.9919
51
1.5419869
0
ARC
8
bottom_labelLayer
10
635.6993222
20
451.6389044
40
16.4183832
50
179.7059633
51
187.9160742
0
ARC
8
bottom_labelLayer
10
629.6775658
20
450.7738857
40
10.3349129
50
187.7639221
51
200.0976823
0
ARC
8
bottom_labelLayer
10
626.3602071
20
449.558402
40
6.8018877
50
200.0845909
51
216.9131622
0
ARC
8
bottom_labelLayer
10
625.148825
20
448.6934179
40
5.31394
50
217.3009524
51
261.7099121
0
ARC
8
bottom_labelLayer
10
625.7111914
20
451.376973
40
8.0523242
50
260.5033178
51
270.2476713
0
ARC
8
bottom_labelLayer
10
625.8185294
20
450.8551446
40
7.5307698
50
269.4481634
51
284.7255676
0
ARC
8
bottom_labelLayer
10
626.4146963
20
448.6441545
40
5.2408817
50
284.5662286
51
322.6333842
0
ARC
8
bottom_labelLayer
10
625.0208318
20
449.6511606
40
6.9599955
50
323.0089188
51
342.6390535
0
ARC
8
bottom_labelLayer
10
621.0340715
20
450.9541492
40
11.1540646
50
342.3615698
51
353.7537633
0
ARC
8
bottom_labelLayer
10
615.1522697
20
451.6631231
40
17.0782096
50
353.536312
51
0.2014239
0
ARC
8
bottom_labelLayer
10
616.0534456
20
451.8057302
40
16.1771391
50
359.7075596
51
7.8972675
0
ARC
8
bottom_labelLayer
10
621.9779654
20
452.6550648
40
10.1921474
50
7.7439872
51
20.0690174
0
ARC
8
bottom_labelLayer
10
625.2793382
20
453.8665441
40
6.6755145
50
20.0257072
51
37.4350486
0
ARC
8
bottom_labelLayer
10
626.3747109
20
454.6438042
40
5.3334969
50
37.9577619
51
80.4006227
0
ARC
8
bottom_labelLayer
10
625.7522466
20
451.8664365
40
8.1771633
50
79.3453381
51
90.3174814
0
ARC
8
bottom_labelLayer
10
625.6369886
20
452.3277609
40
7.7160303
50
89.4805916
51
103.880499
0
ARC
8
bottom_labelLayer
10
624.9886428
20
454.7966607
40
5.1638235
50
103.4685193
51
142.3118911
0
ARC
8
bottom_labelLayer
10
626.2490838
20
453.9102296
40
6.7035612
50
142.902582
51
162.3749538
0
ARC
8
bottom_labelLayer
10
630.220728
20
452.5866913
40
10.8896786
50
162.0653199
51
173.1674776
0
ARC
8
bottom_labelLayer
10
636.4135415
20
451.7968352
40
17.1325447
50
173.0086159
51
180.2463847
0
LINE
8
bottom_labelLayer
10
671.8006864
20
441.0005054
11
668.5584989
21
441.0005054
0
LINE
8
bottom_labelLayer
10
668.5584989
20
441.0005054
11
668.5584989
21
454.9262866
0
LINE
8
bottom_labelLayer
10
658.1483427
20
452.9536304
11
658.1483427
21
441.0005054
0
LINE
8
bottom_labelLayer
10
658.1483427
20
441.0005054
11
654.9061552
21
441.0005054
0
LINE
8
bottom_labelLayer
10
654.9061552
20
441.0005054
11
654.9061552
21
454.9262866
0
LINE
8
bottom_labelLayer
10
644.5155302
20
452.2309741
11
644.5155302
21
441.0005054
0
LINE
8
bottom_labelLayer
10
644.5155302
20
441.0005054
11
641.2733427
21
441.0005054
0
LINE
8
bottom_labelLayer
10
641.2733427
20
441.0005054
11
641.2733427
21
462.4067554
0
LINE
8
bottom_labelLayer
10
641.2733427
20
462.4067554
11
643.9100614
21
462.4067554
0
LINE
8
bottom_labelLayer
10
643.9100614
20
462.4067554
11
644.4374052
21
459.4770679
0
LINE
8
bottom_labelLayer
10
644.4374052
20
459.4770679
11
644.5936552
21
459.4770679
0
LINE
8
bottom_labelLayer
10
657.4842802
20
459.1645679
11
657.6405302
21
459.1645679
0
LINE
8
bottom_labelLayer
10
671.8006864
20
454.9653491
11
671.8006864
21
441.0005054
0
ARC
8
bottom_labelLayer
10
658.9939114
20
454.9772287
40
9.5647232
50
359.694839
51
8.1471445
0
ARC
8
bottom_labelLayer
10
662.516899
20
455.4985888
40
6.0034304
50
7.9864721
51
20.7949507
0
ARC
8
bottom_labelLayer
10
664.4643151
20
456.2445717
40
3.9180372
50
20.7071105
51
40.0217621
0
ARC
8
bottom_labelLayer
10
664.8915302
20
456.5240924
40
3.4116616
50
41.0408108
51
73.1792619
0
ARC
8
bottom_labelLayer
10
664.2733506
20
454.6543998
40
5.3804855
50
72.639548
51
86.256802
0
ARC
8
bottom_labelLayer
10
664.0753129
20
452.5174354
40
7.5260442
50
85.8144504
51
90.0685282
0
ARC
8
bottom_labelLayer
10
664.002557
20
451.7010551
40
8.3426626
50
89.562143
51
101.296173
0
ARC
8
bottom_labelLayer
10
663.3742128
20
454.7091527
40
5.2698272
50
101.0032287
51
121.78405
0
ARC
8
bottom_labelLayer
10
662.8965156
20
455.5619768
40
4.2934976
50
122.3597193
51
140.2884138
0
ARC
8
bottom_labelLayer
10
663.7559467
20
454.9318123
40
5.3576457
50
140.9765347
51
161.1699396
0
ARC
8
bottom_labelLayer
10
666.9936045
20
453.7796048
40
8.7940313
50
160.8731829
51
172.5272431
0
ARC
8
bottom_labelLayer
10
672.4036069
20
453.0324418
40
14.2553061
50
172.3776437
51
180.1829677
0
ARC
8
bottom_labelLayer
10
676.1162671
20
452.9537581
40
17.9679243
50
179.8942567
51
180.0004075
0
ARC
8
bottom_labelLayer
10
645.3415676
20
454.9772287
40
9.5647232
50
359.694839
51
8.1471445
0
ARC
8
bottom_labelLayer
10
648.8645552
20
455.4985888
40
6.0034304
50
7.9864721
51
20.7949507
0
ARC
8
bottom_labelLayer
10
650.8119714
20
456.2445717
40
3.9180372
50
20.7071105
51
40.0217621
0
ARC
8
bottom_labelLayer
10
651.2480697
20
456.530231
40
3.4009311
50
41.0610735
51
72.8993571
0
ARC
8
bottom_labelLayer
10
650.6181798
20
454.6549811
40
5.3787337
50
72.3600981
51
85.956183
0
ARC
8
bottom_labelLayer
10
650.4049486
20
452.4512236
40
7.5922578
50
85.523813
51
90.0793316
0
ARC
8
bottom_labelLayer
10
650.3322218
20
451.9910487
40
8.0526657
50
89.5573303
51
101.4832178
0
ARC
8
bottom_labelLayer
10
649.7141515
20
454.8868449
40
5.0918725
50
101.1546381
51
123.0655708
0
ARC
8
bottom_labelLayer
10
649.2940261
20
455.6186875
40
4.2495967
50
123.7020659
51
142.3021911
0
ARC
8
bottom_labelLayer
10
650.2781519
20
454.951046
40
5.4370409
50
143.0769766
51
161.3913808
0
ARC
8
bottom_labelLayer
10
654.2451093
20
453.5500065
40
9.6438806
50
161.0234413
51
171.4469126
0
ARC
8
bottom_labelLayer
10
660.8123563
20
452.5212673
40
16.2911403
50
171.3041946
51
178.3501552
0
ARC
8
bottom_labelLayer
10
667.0884459
20
452.2409551
40
22.572918
50
178.0975995
51
180.0253343
0
ARC
8
bottom_labelLayer
10
650.086358
20
456.247088
40
6.3720133
50
117.1209502
51
149.5423741
0
ARC
8
bottom_labelLayer
10
650.7366786
20
455.0912265
40
7.6974203
50
93.8343336
51
117.507214
0
ARC
8
bottom_labelLayer
10
650.9162977
20
453.5002201
40
9.2971619
50
89.9662132
51
94.2831295
0
ARC
8
bottom_labelLayer
10
651.0239148
20
452.1829282
40
10.6149435
50
77.5572222
51
90.551296
0
ARC
8
bottom_labelLayer
10
652.008866
20
456.4193838
40
6.265965
50
52.7027032
51
78.0053785
0
ARC
8
bottom_labelLayer
10
652.3597839
20
457.0722779
40
5.5351728
50
22.2097928
51
51.4970514
0
ARC
8
bottom_labelLayer
10
663.5138955
20
455.7985287
40
6.7695376
50
119.4041795
51
150.1828787
0
ARC
8
bottom_labelLayer
10
664.2646529
20
454.6568505
40
8.1332776
50
118.2583569
51
120.0629826
0
ARC
8
bottom_labelLayer
10
664.2625308
20
454.5733642
40
8.2059139
50
95.8635176
51
117.9693208
0
ARC
8
bottom_labelLayer
10
664.5402507
20
452.5652473
40
10.2321432
50
89.9196906
51
96.2617599
0
ARC
8
bottom_labelLayer
10
664.6294097
20
451.5276046
40
11.2700241
50
79.9360985
51
90.3803659
0
ARC
8
bottom_labelLayer
10
665.3803482
20
455.594603
40
7.1344368
50
62.9723234
51
80.1665109
0
ARC
8
bottom_labelLayer
10
666.1653564
20
457.2051357
40
5.3431703
50
44.2290016
51
62.6229123
0
ARC
8
bottom_labelLayer
10
665.9318765
20
457.1019928
40
5.5831257
50
19.5612015
51
43.3161214
0
ARC
8
bottom_labelLayer
10
662.5409931
20
455.8283737
40
9.2049553
50
7.5041917
51
19.9645341
0
ARC
8
bottom_labelLayer
10
656.9300146
20
455.0404242
40
14.8708615
50
359.7107427
51
7.6907269
0
ENDSEC
0
EOF